<svg width="726" height="452" viewBox="0 0 726 452" fill="none" xmlns="http://www.w3.org/2000/svg">
<path d="M693.13 350.952H628.864C626.517 350.952 624.615 349.051 624.615 346.704C624.615 344.357 626.517 342.455 628.864 342.455H693.13C695.477 342.455 697.378 344.358 697.378 346.704C697.378 349.051 695.477 350.952 693.13 350.952Z" fill="#E6F5FA"/>
<path d="M74.8118 306.324H4.24882C1.90289 306.324 0 304.422 0 302.075C0 299.728 1.90173 297.826 4.24882 297.826H74.8118C77.1577 297.826 79.0606 299.729 79.0606 302.075C79.0606 304.422 77.1577 306.324 74.8118 306.324Z" fill="#E6F5FA"/>
<path d="M706.883 402.969H700.146C698.376 402.969 696.94 401.533 696.94 399.763V393.439C696.94 391.669 698.376 390.234 700.146 390.234H706.883C708.653 390.234 710.088 391.669 710.088 393.439V399.763C710.088 401.534 708.653 402.969 706.883 402.969Z" fill="#90D3ED"/>
<path d="M56.8723 371.085H47.949C45.6042 371.085 43.7036 369.184 43.7036 366.839V358.463C43.7036 356.118 45.6042 354.218 47.949 354.218H56.8723C59.2171 354.218 61.1176 356.118 61.1176 358.463V366.839C61.1176 369.184 59.2171 371.085 56.8723 371.085Z" fill="#90D3ED"/>
<path d="M481.459 19.6649H512.01C513.574 19.6649 514.843 20.9512 514.843 22.5372V37.515C514.843 39.101 513.575 40.3873 512.01 40.3873H496.254L486.889 48.4118V40.8118L481.402 40.6557C479.86 40.6244 478.626 39.3474 478.626 37.7834V22.5372C478.626 20.9512 479.895 19.6649 481.459 19.6649Z" stroke="white" stroke-width="1.49524" stroke-miterlimit="10" stroke-linecap="round" stroke-linejoin="round"/>
<path d="M683.801 158.399C683.801 163.583 679.656 167.786 674.545 167.786C669.433 167.786 665.288 163.583 665.288 158.399C665.288 153.214 669.433 149.011 674.545 149.011C679.656 149.011 683.801 153.214 683.801 158.399Z" stroke="white" stroke-width="1.45429" stroke-miterlimit="10"/>
<path d="M19.5086 236.624C19.5086 241.809 15.3639 246.011 10.2521 246.011C5.13916 246.011 0.995605 241.809 0.995605 236.624C0.995605 231.439 5.14032 227.237 10.2521 227.237C15.3639 227.237 19.5086 231.439 19.5086 236.624Z" stroke="white" stroke-width="1.45429" stroke-miterlimit="10"/>
<path d="M271.296 33.9465C271.648 34.3571 272.322 34.1072 272.32 33.5659L272.285 22.2874V4.03816C272.285 1.80791 270.477 -0.00012207 268.247 -0.00012207H219.112C216.882 -0.00012207 215.075 1.80791 215.075 4.037V23.8409C215.075 26.0712 216.883 27.878 219.112 27.878H266.101L271.296 33.9465Z" fill="#0083C8"/>
<path d="M234.431 14.0973C234.436 15.453 233.339 16.5554 231.983 16.56C230.628 16.5647 229.525 15.468 229.521 14.1123C229.516 12.7566 230.613 11.6542 231.968 11.6496C233.324 11.6449 234.426 12.7415 234.431 14.0973Z" fill="white"/>
<path d="M244.961 14.064C244.965 15.4197 243.87 16.5221 242.513 16.5268C241.157 16.5314 240.055 15.4359 240.05 14.079C240.046 12.7233 241.142 11.6209 242.498 11.6163C243.854 11.6128 244.956 12.7083 244.961 14.064Z" fill="white"/>
<path d="M255.493 14.0315C255.498 15.3872 254.401 16.4896 253.045 16.4942C251.69 16.4989 250.587 15.4023 250.583 14.0465C250.578 12.6908 251.673 11.5884 253.03 11.5838C254.387 11.5791 255.488 12.6757 255.493 14.0315Z" fill="white"/>
<path d="M652.927 80.6149H595.461C589.88 80.6149 585.354 76.0897 585.354 70.5082V17.084C585.354 12.8525 588.785 9.42151 593.017 9.42151H652.927C657.159 9.42151 660.59 12.8525 660.59 17.084V72.9537C660.59 77.1851 657.159 80.6149 652.927 80.6149Z" fill="#0083C8"/>
<path d="M640.152 50.839L635.687 46.3738C634.89 45.497 633.852 45.0181 632.816 45.0181C631.779 45.0181 630.743 45.497 629.945 46.294L627.393 48.8458C627.233 48.766 627.074 48.6862 626.914 48.6064C626.595 48.4468 626.356 48.3669 626.117 48.2073C623.725 46.6919 621.572 44.6988 619.499 42.147C618.542 40.9509 617.824 39.8346 617.426 38.878C618.065 38.3192 618.622 37.6819 619.181 37.1231C619.42 36.8837 619.66 36.6442 619.898 36.4059C620.775 35.5291 621.254 34.4915 621.254 33.455C621.254 32.4186 620.775 31.3821 619.898 30.5041L617.665 28.2715C617.426 28.0321 617.187 27.7926 616.948 27.4745C616.469 26.9956 615.912 26.4381 615.433 25.9592C614.636 25.1621 613.598 24.6832 612.562 24.6832C611.525 24.6832 610.569 25.0823 609.691 25.9592L606.899 28.7504C605.863 29.7869 605.224 31.1426 605.066 32.658C604.906 35.0502 605.545 37.2828 606.102 38.7183C607.378 42.3864 609.371 45.6555 612.322 49.164C615.911 53.3908 620.137 56.7396 625.08 59.1318C626.915 60.0087 629.466 61.0451 632.257 61.2846C632.417 61.2846 632.576 61.2846 632.815 61.2846C634.728 61.2846 636.323 60.5674 637.599 59.2117C637.599 59.2117 637.599 59.2117 637.679 59.1318C638.078 58.6529 638.556 58.1752 639.114 57.6963C639.434 57.377 639.832 56.9791 640.151 56.6598C641.826 54.9062 641.826 52.514 640.152 50.839ZM638.317 54.986C637.998 55.3052 637.679 55.6234 637.361 55.9426C636.802 56.4215 636.324 56.9791 635.765 57.5378C634.968 58.3348 634.09 58.7339 632.894 58.7339C632.735 58.7339 632.655 58.7339 632.495 58.7339C630.103 58.5743 627.871 57.6176 626.275 56.8206C621.73 54.588 617.743 51.4775 614.394 47.4913C611.683 44.2222 609.849 41.1117 608.573 37.8426C607.776 35.9293 607.457 34.414 607.617 32.8986C607.696 32.0218 608.016 31.2236 608.733 30.5862L611.444 27.8748C611.684 27.6353 612.083 27.3172 612.561 27.3172C613.04 27.3172 613.358 27.5566 613.677 27.8748C614.156 28.3537 614.634 28.8314 615.112 29.3103C615.352 29.5498 615.591 29.869 615.91 30.1073L618.142 32.3399C618.382 32.5793 618.701 33.0571 618.701 33.4562C618.701 33.9351 618.382 34.333 618.142 34.5725C617.903 34.8119 617.663 35.0514 617.425 35.2897C616.708 36.0069 616.069 36.6454 615.432 37.2828C615.432 37.2828 615.432 37.2828 615.352 37.3626C614.555 38.1596 614.715 38.878 614.873 39.3557V39.4355C615.432 40.8711 616.309 42.147 617.505 43.741C619.737 46.5323 622.129 48.6851 624.761 50.3601C625.08 50.5995 625.478 50.7591 625.798 50.9188C626.117 51.0784 626.356 51.1582 626.595 51.3179L626.674 51.3977C627.471 51.7968 628.27 51.6371 628.907 50.9986L631.698 48.2073C631.938 47.9679 632.337 47.6486 632.815 47.6486C633.214 47.6486 633.612 47.9679 633.851 48.2073L638.316 52.6724C639.036 53.3908 639.036 54.1878 638.317 54.986Z" fill="white"/>
<path d="M98.5407 135.821H34.1318C27.876 135.821 22.8047 130.75 22.8047 124.494V64.6138C22.8047 59.871 26.6498 56.0259 31.3926 56.0259H98.5407C103.284 56.0259 107.129 59.871 107.129 64.6138V127.234C107.129 131.977 103.284 135.821 98.5407 135.821Z" fill="#FFCC05"/>
<path d="M48.9166 79.4204C40.102 88.235 40.102 102.705 48.9166 111.52C57.7312 120.334 72.2012 120.334 81.0158 111.52C89.8304 102.705 89.8304 88.235 81.0158 79.4204C72.2012 70.6058 57.7324 70.6058 48.9166 79.4204ZM80.9638 82.6894H73.7305C73.0052 80.4175 72.0705 78.1456 70.9184 75.8726C74.9243 77.0883 78.4119 79.4979 80.9638 82.6894ZM56.6323 94.1426C56.6357 91.209 56.9816 88.2766 57.7081 85.3431H72.2267C72.952 88.2766 73.2979 91.209 73.3013 94.1426H56.6323ZM73.2123 96.7974C73.0121 99.7298 72.4812 102.663 71.6529 105.597H58.2807C57.4524 102.665 56.9215 99.731 56.7213 96.7974H73.2123ZM64.9668 74.9934C66.0576 74.9934 67.1288 75.079 68.1734 75.2433C69.5638 77.7257 70.6535 80.207 71.4644 82.6894H58.4692C59.279 80.207 60.3698 77.7257 61.7602 75.2433C62.8048 75.079 63.8748 74.9934 64.9668 74.9934ZM59.0152 75.8726C57.8619 78.1456 56.9284 80.4175 56.2031 82.6894H48.9698C51.5217 79.4979 55.0082 77.0872 59.0152 75.8726ZM47.1653 85.3431H55.45C54.7236 88.2766 54.343 91.209 54.2898 94.1426H44.5324C44.7372 90.9569 45.6684 87.9689 47.1653 85.3431ZM47.1653 105.597C45.6684 102.972 44.7372 99.9831 44.5336 96.7974H54.3303C54.4737 99.7298 54.9399 102.663 55.7126 105.597H47.1653ZM48.9687 108.252H56.4958C57.2465 110.551 58.18 112.851 59.2928 115.151C55.1701 113.964 51.5807 111.516 48.9687 108.252ZM64.9668 115.948C64.0576 115.948 63.1622 115.889 62.2842 115.773C61.0326 113.266 59.9672 110.758 59.1101 108.252H70.8235C69.9664 110.76 68.8998 113.266 67.6493 115.773C66.7714 115.888 65.876 115.948 64.9668 115.948ZM70.6396 115.151C71.7524 112.851 72.6871 110.551 73.4367 108.252H80.9638C78.3529 111.516 74.7635 113.964 70.6396 115.151ZM82.7672 105.597H74.2198C74.9925 102.663 75.4587 99.731 75.6021 96.7974H85.3988C85.1952 99.9831 84.264 102.972 82.7672 105.597ZM85.3988 94.1426H75.6426C75.5894 91.209 75.2077 88.2766 74.4824 85.3431H82.7672C84.264 87.9689 85.1952 90.9569 85.3988 94.1426Z" fill="white"/>
<path d="M717.816 296.717H656.443C650.482 296.717 645.649 291.885 645.649 285.923V228.865C645.649 224.346 649.313 220.682 653.832 220.682H717.815C722.334 220.682 725.997 224.346 725.997 228.865V288.533C725.997 293.054 722.334 296.717 717.816 296.717Z" fill="#6FC7BF"/>
<path d="M695.236 252.486C695.236 247.098 690.868 242.73 685.48 242.73C680.092 242.73 675.724 247.098 675.724 252.486C675.724 257.874 680.092 262.242 685.48 262.242C690.866 262.236 695.23 257.872 695.236 252.486ZM678.162 252.486C678.162 248.445 681.438 245.169 685.479 245.169C689.52 245.169 692.796 248.445 692.796 252.486C692.796 256.527 689.52 259.804 685.479 259.804C681.44 259.799 678.167 256.526 678.162 252.486Z" fill="white"/>
<path d="M684.496 281.256C684.894 281.8 685.656 281.918 686.2 281.52C686.301 281.446 686.39 281.357 686.464 281.256C686.562 281.121 687.027 280.485 687.732 279.483L694.931 268.349C698.276 262.645 701.334 256.369 701.334 252.487C701.334 243.732 694.236 236.634 685.48 236.634C676.725 236.634 669.627 243.732 669.627 252.487C669.627 256.257 672.513 262.285 675.743 267.854L683.233 279.487C683.935 280.487 684.398 281.121 684.496 281.256ZM685.48 239.072C692.89 239.072 698.896 245.078 698.896 252.487C698.896 258.323 689.978 272.106 685.48 278.449C680.983 272.106 672.065 258.323 672.065 252.487C672.065 245.078 678.071 239.072 685.48 239.072Z" fill="white"/>
<path d="M119.43 233.207L114.505 245.046C114.505 245.046 142.871 265.363 166.339 277.026C173.741 280.704 182.343 274.658 181.883 266.405C181.878 266.321 181.873 266.235 181.869 266.151C181.617 261.675 178.671 257.798 174.425 256.359C150.43 248.226 145.742 244.983 119.43 233.207Z" fill="#D97F48"/>
<path d="M118.256 246.103C118.256 246.103 93.7217 256.916 84.7012 241.227L121.908 231.992L118.256 246.103Z" fill="#D97F48"/>
<path d="M194.728 191.08C182.998 211.169 168.852 239.926 161.081 261.837C159.074 267.496 161.133 273.821 166.595 276.314C166.66 276.344 166.725 276.373 166.79 276.403C172.141 278.862 178.474 276.857 181.329 271.704C199.06 239.71 214.853 214.779 214.853 214.779L194.728 191.08Z" fill="#D97F48"/>
<path d="M195.208 185.539C195.208 185.539 177.581 189.282 162.838 232.8L196.018 252.482L208.252 228.187L195.208 185.539Z" fill="#6FC7BF"/>
<path d="M178.897 241.529H140.607V235.395H178.897C180.59 235.395 181.963 236.769 181.963 238.462C181.963 240.156 180.59 241.529 178.897 241.529Z" fill="#08101C"/>
<path d="M155.83 241.506H68.5822C66.5405 241.506 64.7348 240.18 64.1229 238.233L48.665 186.552C47.994 184.415 49.5892 182.241 51.8287 182.241H134.559C136.6 182.241 138.406 183.566 139.018 185.513L155.83 241.506Z" fill="#111D36"/>
<path d="M105.483 209.825C106.13 213.418 103.742 216.855 100.15 217.501C96.5584 218.148 93.1205 215.76 92.4738 212.169C91.8272 208.577 94.2148 205.139 97.8066 204.492C101.399 203.844 104.836 206.232 105.483 209.825Z" fill="#E6F5FA"/>
<path d="M273.521 247.493C273.521 247.493 294.578 323.515 303.169 389.64L317.625 386.899C317.625 386.899 313.137 290.006 298.557 230.065L273.521 247.493Z" fill="#D97F48"/>
<path d="M317.507 383.584C317.507 383.584 339.262 415.705 313.153 430.144C311.433 431.095 309.261 430.707 307.988 429.209L307.82 429.01C306.415 427.357 306.575 424.935 308.098 423.391C311.807 419.631 316.795 411.84 308.846 401.664C308.846 401.664 304.673 402.728 305.372 411.013C305.551 413.145 303.781 414.941 301.652 414.739C300.199 414.601 299.005 413.561 298.65 412.146C297.281 406.684 295.016 393.14 303.747 385.864L317.507 383.584Z" fill="#D97F48"/>
<path d="M276.259 185.539C276.259 185.539 289.728 189.465 304.089 234.951L270.91 254.634L263.215 228.185L276.259 185.539Z" fill="#6FC7BF"/>
<path d="M274.229 184.305L249.235 174.356L223.538 174.701L197.755 184.152C192.916 185.925 190.202 191.069 191.468 196.064L210.402 270.753H261.129L278.618 192.617C279.395 189.144 277.535 185.622 274.229 184.305Z" fill="#6FC7BF"/>
<path d="M261.129 270.752H210.402V278.869H261.129V270.752Z" fill="#111D36"/>
<path d="M202.825 240.863L194.12 206.525" stroke="#51A99F" stroke-width="1.58292" stroke-miterlimit="10"/>
<path d="M267.422 242.64L275.505 206.525" stroke="#51A99F" stroke-width="1.58292" stroke-miterlimit="10"/>
<path d="M261.129 278.87H210.402C210.402 278.87 185.821 285.099 169.374 400.233C166.867 417.781 164.705 434.886 162.838 451.285H210.743L231.906 345.027L236.536 346.245L244.347 451.285H289.355L290.295 394.54C290.295 394.54 286.24 302.183 261.129 278.87Z" fill="#006AB8"/>
<path d="M236.536 346.244L220.773 340.089" stroke="#005A94" stroke-width="1.58292" stroke-miterlimit="10"/>
<path d="M278.084 130.795C275.84 122.28 275.023 123.802 267.474 106.867C262.964 96.7485 259.474 92.6813 257.394 91.0445C257.394 91.0445 249.767 82.8349 236.125 82.8349C223.098 82.8349 215.555 90.635 215.555 90.635C213.577 91.9537 209.859 95.7757 204.915 106.866C197.366 123.802 196.549 122.278 194.305 130.793C192.061 139.308 194.917 155.02 212.465 158.08C212.465 158.08 210.221 155.836 209.405 152.164C209.405 152.164 216.75 162.162 226.748 161.55H245.642C255.639 162.162 262.985 152.164 262.985 152.164C262.168 155.836 259.924 158.08 259.924 158.08C277.471 155.022 280.328 139.31 278.084 130.795Z" fill="#111D36"/>
<path d="M259.58 178.474L249.235 174.356L246.112 147.139C246.112 147.139 242.888 150.425 238.61 151.22C234.332 152.014 230.189 149.513 230.137 149.483C230.085 149.453 226.643 146.587 226.643 146.587L223.538 174.7L212.266 178.832C212.266 178.832 212.993 186.155 236.837 186.155C260.678 186.156 259.58 178.474 259.58 178.474Z" fill="#D97F48"/>
<path d="M224.675 147.563C224.675 147.563 231.223 160.209 239.022 158.397C247.164 156.506 247.127 145.812 247.127 145.812L224.675 147.563Z" fill="#111D36"/>
<path d="M264.237 111.22C264.237 126.707 252.186 139.261 237.319 139.261C222.453 139.261 210.401 126.707 210.401 111.22C210.401 95.7328 222.453 85.197 237.319 85.197C252.186 85.197 264.237 95.7328 264.237 111.22Z" fill="#111D36"/>
<path d="M259.562 112.662C259.562 122.317 258.219 130.649 256.878 136.562C255.565 142.352 251.87 146.397 246.65 149.653L245.699 150.247C240.175 153.693 233.038 153.773 227.43 150.453C221.773 147.104 217.813 142.689 216.595 136.477C214.378 125.177 214.135 112.663 214.135 112.663C214.135 112.663 212.027 88.2903 236.525 88.7634C261.024 89.2365 259.562 112.662 259.562 112.662Z" fill="#D97F48"/>
<path d="M216.808 135.552C212.49 139.28 203.403 124.521 207.582 120.541C211.762 116.562 214.718 123.037 214.718 123.037L215.566 127.7L216.828 133.977L217.153 135.385L216.808 135.552Z" fill="#D97F48"/>
<path d="M209.459 125.515C209.459 125.515 211.225 121.692 215.334 128.405" stroke="#111D36" stroke-width="1.16128" stroke-miterlimit="10" stroke-linecap="round" stroke-linejoin="round"/>
<path d="M256.867 135.639C261.246 139.292 270.08 124.379 265.833 120.473C261.585 116.565 258.741 123.091 258.741 123.091L257.974 127.769L256.819 134.067L256.519 135.48L256.867 135.639Z" fill="#D97F48"/>
<path d="M264.041 125.477C264.041 125.477 262.21 121.685 258.216 128.466" stroke="#111D36" stroke-width="1.16128" stroke-miterlimit="10" stroke-linecap="round" stroke-linejoin="round"/>
<path d="M214.451 120.253C214.451 120.253 224.247 107.011 221.986 93.5963C221.986 93.5963 214.716 97.2552 212.824 106.698C210.93 116.142 214.451 120.253 214.451 120.253Z" fill="#111D36"/>
<path d="M259.973 120.513C259.973 120.513 248.2 106.111 250.459 92.6974C250.459 92.6974 258.351 97.2563 260.245 106.699C262.138 116.142 259.973 120.513 259.973 120.513Z" fill="#111D36"/>
<path d="M207.183 110.729H266.486C266.486 110.729 259.807 85.6075 234.795 84.1107C209.784 82.6126 207.183 110.729 207.183 110.729Z" fill="#111D36"/>
<path d="M228.252 122.128C228.252 123.375 227.241 124.386 225.994 124.386C224.747 124.386 223.736 123.375 223.736 122.128C223.736 120.881 224.747 119.87 225.994 119.87C227.241 119.87 228.252 120.881 228.252 122.128Z" fill="#111D36"/>
<path d="M249.163 122.128C249.163 123.375 248.152 124.386 246.905 124.386C245.658 124.386 244.647 123.375 244.647 122.128C244.647 120.881 245.658 119.87 246.905 119.87C248.152 119.87 249.163 120.881 249.163 122.128Z" fill="#111D36"/>
<path d="M235.317 127.049L235.32 130.097C235.322 130.865 236.004 131.441 236.732 131.288L238.352 130.948" stroke="#111D36" stroke-width="1.14243" stroke-miterlimit="10" stroke-linecap="round" stroke-linejoin="round"/>
<path d="M232.705 115.131L219.017 116.776C219.017 116.776 220.116 113.146 225.709 112.522C231.302 111.899 232.705 115.131 232.705 115.131Z" fill="#111D36"/>
<path d="M240.598 115.131L254.286 116.776C254.286 116.776 253.187 113.146 247.594 112.522C242.001 111.899 240.598 115.131 240.598 115.131Z" fill="#111D36"/>
<path d="M223.773 131.399C228.93 131.399 233.111 127.218 233.111 122.061C233.111 116.903 228.93 112.722 223.773 112.722C218.615 112.722 214.434 116.903 214.434 122.061C214.434 127.218 218.615 131.399 223.773 131.399Z" stroke="#6FC7BF" stroke-width="1.25278" stroke-miterlimit="10"/>
<path d="M250.224 131.399C255.381 131.399 259.562 127.218 259.562 122.061C259.562 116.903 255.381 112.722 250.224 112.722C245.066 112.722 240.885 116.903 240.885 122.061C240.885 127.218 245.066 131.399 250.224 131.399Z" stroke="#6FC7BF" stroke-width="1.25278" stroke-miterlimit="10"/>
<path d="M233.112 122.837C233.112 122.837 236.41 117.766 240.884 122.837" stroke="#6FC7BF" stroke-width="1.25278" stroke-miterlimit="10"/>
<path d="M229.549 135.56H244.448C244.448 135.56 237.467 143.886 229.549 135.56Z" fill="white"/>
<path d="M553.021 209.805L587.033 239.242C593.466 244.809 594.26 254.501 588.818 261.041C583.351 267.612 573.618 268.567 566.979 263.186L533.278 235.874L553.021 209.805Z" fill="#F7A771"/>
<path d="M509.681 180.974C534.419 184.972 561.568 209.806 561.568 209.806L539.114 241.926L509.547 217.71L509.681 180.974Z" fill="#0083C8"/>
<path d="M588.933 177.519L564.482 247.377C561.755 255.1 566.073 263.528 573.936 265.824C582.218 268.243 590.735 262.812 592.038 254.282L604.579 180.104L588.933 177.519Z" fill="#F7A771"/>
<path d="M588.934 177.519C588.934 177.519 584.128 171.328 583.177 153.626C583.118 152.52 583.75 151.484 584.751 151.012C586.22 150.32 587.967 151.05 588.506 152.581L590.94 159.971L604.578 180.105L588.934 177.519Z" fill="#F7A771"/>
<path d="M590.939 159.97L591.531 135.404C591.58 134.358 592.272 132.89 593.607 132.834C595.06 132.673 596.166 133.69 596.203 134.83L596.756 152.249L599.996 131.882C600.153 130.892 601.062 130.201 602.058 130.316C603.038 130.428 603.763 131.28 603.716 132.266L602.659 154.372L607.091 136.206C607.331 135.223 608.242 134.553 609.252 134.618C610.444 134.694 611.329 135.751 611.193 136.938L608.915 156.87L617.722 144.465C618.479 143.564 619.852 143.525 620.66 144.38C621.265 145.02 621.372 145.985 620.919 146.743L613.512 161.757C613.512 161.757 613.045 171.099 604.579 180.104L591.488 172.324L590.939 159.97Z" fill="#F7A771"/>
<path d="M590.939 159.971C590.939 159.971 600.201 160.011 600.374 168.327" stroke="#111D36" stroke-width="1.17597" stroke-miterlimit="10" stroke-linecap="round" stroke-linejoin="round"/>
<path d="M507.173 179.055L525.673 186.067C530.512 187.841 531.745 193.211 530.478 198.205L521.927 304.046H448.95L443.328 194.758C442.551 191.286 444.411 187.763 447.717 186.447L472.711 176.497L507.173 179.055Z" fill="#0083C8"/>
<path d="M527.701 232.578L529.409 211.449" stroke="#00678D" stroke-width="1.68669" stroke-miterlimit="10"/>
<path d="M445.03 251.905C445.03 251.905 425.201 328.966 420.244 395.463L405.659 393.517C405.659 393.517 407.802 296.523 419.078 235.875L445.03 251.905Z" fill="#F7A771"/>
<path d="M445.688 187.68C445.688 187.68 429.252 191.606 414.891 237.093L451.036 256.775L458.731 230.327L445.688 187.68Z" fill="#0083C8"/>
<path d="M498.826 176.544L497.397 150.314C497.397 150.314 492.551 153.697 488.147 154.516C483.744 155.335 479.479 152.758 479.424 152.727C479.37 152.696 474.301 149.746 474.301 149.746L472.758 176.495L472.711 176.496L465.004 179.564C465.004 179.564 469.846 187.811 485.994 186.972C502.141 186.134 507.173 179.053 507.173 179.053L498.826 176.544Z" fill="#F7A771"/>
<path d="M473.257 150.751C473.257 150.751 480.389 163.768 488.884 161.904C497.75 159.957 498.083 148.608 498.083 148.608L473.257 150.751Z" fill="#111D36"/>
<path d="M509.716 114.824C509.716 124.763 508.334 133.34 506.954 139.427C505.603 145.386 501.799 149.551 496.425 152.903L495.446 153.514C489.761 157.06 482.413 157.144 476.641 153.725C470.818 150.278 466.741 145.733 465.486 139.337C463.204 127.706 462.955 114.823 462.955 114.823C462.955 114.823 460.784 89.7329 486.003 90.221C511.221 90.7092 509.716 114.824 509.716 114.824Z" fill="#F7A771"/>
<path d="M465.704 138.386C461.261 142.223 451.905 127.03 456.208 122.934C460.511 118.838 463.555 125.503 463.555 125.503L464.427 130.304L465.726 136.766L466.061 138.215L465.704 138.386Z" fill="#F7A771"/>
<path d="M458.142 128.054C458.142 128.054 459.96 124.119 464.19 131.028" stroke="#111D36" stroke-width="1.19541" stroke-miterlimit="10" stroke-linecap="round" stroke-linejoin="round"/>
<path d="M506.941 138.476C511.449 142.236 520.543 126.885 516.171 122.863C511.798 118.841 508.869 125.557 508.869 125.557L508.079 130.371L506.891 136.855L506.581 138.309L506.941 138.476Z" fill="#F7A771"/>
<path d="M514.327 128.015C514.327 128.015 512.441 124.111 508.33 131.092" stroke="#111D36" stroke-width="1.19541" stroke-miterlimit="10" stroke-linecap="round" stroke-linejoin="round"/>
<path d="M477.486 123.041C477.486 124.325 476.445 125.366 475.161 125.366C473.877 125.366 472.836 124.325 472.836 123.041C472.836 121.757 473.877 120.716 475.161 120.716C476.445 120.717 477.486 121.758 477.486 123.041Z" fill="#111D36"/>
<path d="M499.013 123.041C499.013 124.325 497.971 125.366 496.687 125.366C495.403 125.366 494.362 124.325 494.362 123.041C494.362 121.757 495.403 120.716 496.687 120.716C497.971 120.717 499.013 121.758 499.013 123.041Z" fill="#111D36"/>
<path d="M484.758 126.579L484.761 131.244C484.762 132.035 485.465 132.627 486.214 132.47L487.882 132.119" stroke="#111D36" stroke-width="1.17597" stroke-miterlimit="10" stroke-linecap="round" stroke-linejoin="round"/>
<path d="M489.526 114.512L502.943 117.978C502.943 117.978 502.333 114.215 496.844 112.847C491.355 111.48 489.526 114.512 489.526 114.512Z" fill="#111D36"/>
<path d="M481.191 114.512L467.774 117.978C467.774 117.978 468.384 114.215 473.873 112.847C479.361 111.48 481.191 114.512 481.191 114.512Z" fill="#111D36"/>
<path d="M484.813 139.305C485.305 138.987 485.665 138.488 485.82 137.919C486.134 136.763 486.27 134.917 484.042 134.708C480.771 134.402 475.293 140.693 470.501 137.086C470.501 137.086 475.082 145.593 484.813 139.305Z" fill="#111D36"/>
<path d="M486.636 139.305C486.145 138.987 485.786 138.488 485.633 137.919C485.32 136.763 485.185 134.917 487.404 134.708C490.661 134.402 496.114 140.693 500.886 137.086C500.886 137.086 496.325 145.593 486.636 139.305Z" fill="#111D36"/>
<path d="M509.134 85.093C500.89 79.2617 485.197 84.6858 476.514 88.4696C476.767 85.72 475.065 83.9709 475.065 83.9709C460.152 88.5448 462.026 97.0378 463.068 99.7481C460.145 102.823 456.127 110.493 463.752 126.579C463.752 126.579 468.01 112.842 466.198 101.909C473.267 105.107 492.455 112.766 504.649 107.893C505.068 117.279 508.704 126.579 508.704 126.579C513.317 114.779 512.672 107.677 510.835 103.502C512.939 100.991 519.131 92.1643 509.134 85.093Z" fill="#111D36"/>
<path d="M508.088 451.283H554.986C537.665 377.266 524.075 326.104 524.075 326.104L521.929 304.046H486.321L487.932 381.526L508.088 451.283Z" fill="#006AB8"/>
<path d="M487.931 381.526L486.321 304.046H448.951C420.98 345.906 436.81 420.292 436.81 420.292L441.073 451.283H487.931V381.526Z" fill="#006AB8"/>
<path d="M487.932 381.526V359.57L498.52 343.167" stroke="#005A94" stroke-width="1.58292" stroke-miterlimit="10"/>
<path d="M343.973 425.547C343.973 425.547 356.573 363.011 363.987 345.962C364.66 344.415 366.9 344.618 367.346 346.244C369.132 352.742 371.485 371.89 370.435 428.248L370.459 451.284H414.685L421.201 395.844C421.201 395.844 431.052 318.573 398.963 274.689H334.643C334.643 274.689 301.848 322.396 297.527 388.284C296.566 402.943 294.909 425.335 292.914 451.285H338.482L343.973 425.547Z" fill="#0083C8"/>
<path d="M352.966 340.089L368.028 346.245" stroke="#00678D" stroke-width="1.68669" stroke-miterlimit="10"/>
<path d="M352.79 152.722L321.856 161.226L334.643 266.819H399.551L412.354 160.764L378.064 152.258L352.79 152.722Z" fill="#2558B1"/>
<path d="M398.963 266.819H334.644V274.688H398.963V266.819Z" fill="#111D36"/>
<path d="M382.689 228.769C382.689 228.769 409.196 218.134 423.395 225.555L424.734 242.62L381.452 248.062L382.689 228.769Z" fill="#F7A771"/>
<path d="M439.326 263.173C439.326 263.173 396.292 268.341 361.42 250.039L390.959 241.091L427.455 234.952L439.326 263.173Z" fill="#2558B1"/>
<path d="M410.262 160.44C410.262 160.44 426.976 161.51 437.63 194.604C448.949 229.769 449.771 257.456 441.916 262.099C434.059 266.741 424.311 256.491 414.312 228.173C404.312 199.855 399.699 184.605 399.699 184.605L410.262 160.44Z" fill="#2558B1"/>
<path d="M406.829 206.525L409.404 185.192" stroke="#0A0A09" stroke-width="1.68669" stroke-miterlimit="10"/>
<path d="M321.856 161.226C321.856 161.226 305.142 162.296 294.488 195.39C283.169 230.555 282.346 258.242 290.202 262.885C298.059 267.528 308.985 257.277 318.984 228.96C328.983 200.641 332.418 185.391 332.418 185.391L321.856 161.226Z" fill="#2558B1"/>
<path d="M327.095 204.484L324.774 185.192" stroke="#0A0A09" stroke-width="1.68669" stroke-miterlimit="10"/>
<path d="M335.717 228.899C335.717 228.899 323.71 216.457 303.883 209.983C303.018 209.701 302.056 209.907 301.373 210.509C299.98 211.738 300.304 213.991 301.986 214.778L313.933 220.36L298.252 221.406C295.669 221.579 293.677 223.879 294.04 226.443C294.36 228.701 295.888 231.648 300.239 235.069L335.717 228.899Z" fill="#F7A771"/>
<path d="M300.239 235.067C300.239 235.067 357.071 223.856 384.032 223.968L394.791 250.567C394.791 250.567 310.67 271.657 290.204 262.885L300.239 235.067Z" fill="#2558B1"/>
<path d="M335.718 228.898C335.718 228.898 371.44 223.325 384.033 223.968L385.553 227.725" stroke="#0A0A09" stroke-width="1.68669" stroke-miterlimit="10"/>
<path d="M334.131 262.585L394.791 250.567L385.552 227.725" stroke="#0A0A09" stroke-width="1.68669" stroke-miterlimit="10"/>
<path d="M337.243 107.111L324.552 123.674C324.552 123.674 370.197 158.735 407.737 121.195L394.345 104.853L337.243 107.111Z" fill="#111D36"/>
<path d="M377.997 151.44L374.791 126.006C374.791 126.006 371.483 129.379 367.092 130.195C362.701 131.01 358.45 128.443 358.395 128.412C358.341 128.381 354.811 125.439 354.811 125.439L352.874 151.793C352.874 152.106 352.841 152.416 352.792 152.721L366.692 182.936L378.066 152.256C378.025 151.989 377.997 151.716 377.997 151.44Z" fill="#F7A771"/>
<path d="M352.792 126.441C352.792 126.441 359.513 140.637 367.516 138.778C375.872 136.837 375.834 124.643 375.834 124.643L352.792 126.441Z" fill="#111D36"/>
<path d="M393.395 89.1407C393.395 105.035 381.026 117.92 365.769 117.92C350.511 117.92 338.143 105.035 338.143 89.1407C338.143 73.2467 350.511 62.4332 365.769 62.4332C381.026 62.4332 393.395 73.2467 393.395 89.1407Z" fill="#111D36"/>
<path d="M388.596 90.6214C388.596 100.53 387.218 109.081 385.841 115.15C384.494 121.091 380.703 125.244 375.345 128.585L374.369 129.194C368.699 132.73 361.375 132.812 355.62 129.404C349.814 125.968 345.75 121.437 344.499 115.061C342.223 103.464 341.974 90.6203 341.974 90.6203C341.974 90.6203 339.81 65.6063 364.952 66.0921C390.096 66.5791 388.596 90.6214 388.596 90.6214Z" fill="#F7A771"/>
<path d="M344.719 114.114C340.289 117.94 330.962 102.792 335.251 98.7084C339.542 94.625 342.576 101.269 342.576 101.269L343.446 106.056L344.741 112.498L345.076 113.943L344.719 114.114Z" fill="#F7A771"/>
<path d="M337.178 103.812C337.178 103.812 338.99 99.8885 343.208 106.777" stroke="#111D36" stroke-width="1.19182" stroke-miterlimit="10" stroke-linecap="round" stroke-linejoin="round"/>
<path d="M385.83 114.202C390.325 117.951 399.392 102.646 395.032 98.6366C390.673 94.6261 387.753 101.323 387.753 101.323L386.965 106.123L385.781 112.587L385.472 114.038L385.83 114.202Z" fill="#F7A771"/>
<path d="M393.194 103.774C393.194 103.774 391.314 99.8825 387.216 106.842" stroke="#111D36" stroke-width="1.19182" stroke-miterlimit="10" stroke-linecap="round" stroke-linejoin="round"/>
<path d="M389.297 84.501C387.793 76.9981 382.612 72.5122 380.343 70.8638C377.527 68.076 373.791 65.8839 368.842 65.2454C368.842 65.2454 353.142 61.7056 346.642 73.5799C344.401 75.6852 341.69 79.2006 340.627 84.5021C338.683 94.1935 342.297 98.4134 342.297 98.4134C342.297 98.4134 348.472 90.0627 350.026 79.823C354.782 83.7571 364.42 88.6804 382.711 88.4328C385.57 94.4607 389.018 98.6806 389.018 98.6806C389.018 98.6806 391.24 94.1924 389.297 84.501Z" fill="#111D36"/>
<path d="M356.464 100.337C356.464 101.618 355.427 102.655 354.146 102.655C352.866 102.655 351.828 101.618 351.828 100.337C351.828 99.0564 352.866 98.0188 354.146 98.0188C355.427 98.0188 356.464 99.0564 356.464 100.337Z" fill="#111D36"/>
<path d="M377.925 100.337C377.925 101.618 376.888 102.655 375.607 102.655C374.327 102.655 373.289 101.618 373.289 100.337C373.289 99.0564 374.327 98.0188 375.607 98.0188C376.888 98.0188 377.925 99.0564 377.925 100.337Z" fill="#111D36"/>
<path d="M363.162 105.386L363.166 108.514C363.167 109.303 363.867 109.894 364.614 109.737L366.277 109.388" stroke="#111D36" stroke-width="1.17239" stroke-miterlimit="10" stroke-linecap="round" stroke-linejoin="round"/>
<path d="M374.574 89.6114C374.574 89.6114 367.786 89.055 367.718 91.8173C367.718 91.8173 367.724 93.6878 373.645 94.0592C379.567 94.4305 381.107 93.9967 381.648 92.2396C382.189 90.4813 377.757 89.6276 374.574 89.6114Z" fill="#111D36"/>
<path d="M354.278 89.6114C354.278 89.6114 361.066 89.055 361.134 91.8174C361.134 91.8174 361.128 93.6879 355.207 94.0592C349.285 94.4305 347.746 93.9968 347.204 92.2396C346.663 90.4813 351.095 89.6276 354.278 89.6114Z" fill="#111D36"/>
<path d="M371.017 112.149C371.017 112.149 368.58 116.064 362.3 114.957" stroke="#111D36" stroke-width="1.17239" stroke-miterlimit="10" stroke-linecap="round" stroke-linejoin="round"/>
</svg>
