<svg width="148" height="37" viewBox="0 0 148 37" fill="none" xmlns="http://www.w3.org/2000/svg">
<path d="M2.36 29.32C1.72 29.32 1.2 29.1733 0.8 28.88C0.426667 28.5867 0.2 28.2 0.12 27.72C0.04 27.2133 0.133333 26.6533 0.4 26.04L10.96 2.64C11.3067 1.86667 11.72 1.32 12.2 0.999998C12.7067 0.653331 13.28 0.479998 13.92 0.479998C14.5333 0.479998 15.08 0.653331 15.56 0.999998C16.0667 1.32 16.4933 1.86667 16.84 2.64L27.44 26.04C27.7333 26.6533 27.84 27.2133 27.76 27.72C27.68 28.2267 27.4533 28.6267 27.08 28.92C26.7067 29.1867 26.2133 29.32 25.6 29.32C24.8533 29.32 24.2667 29.1467 23.84 28.8C23.44 28.4267 23.08 27.8667 22.76 27.12L20.16 21.08L22.32 22.48H5.44L7.6 21.08L5.04 27.12C4.69333 27.8933 4.33333 28.4533 3.96 28.8C3.58667 29.1467 3.05333 29.32 2.36 29.32ZM13.84 6.36L8.24 19.68L7.2 18.4H20.56L19.56 19.68L13.92 6.36H13.84ZM33.8456 36.52C33.0456 36.52 32.4323 36.3067 32.0056 35.88C31.579 35.4533 31.3656 34.8267 31.3656 34V11.64C31.3656 10.8133 31.579 10.1867 32.0056 9.76C32.4323 9.33333 33.0323 9.12 33.8056 9.12C34.6056 9.12 35.219 9.33333 35.6456 9.76C36.0723 10.1867 36.2856 10.8133 36.2856 11.64V14.76L35.8456 13.56C36.2456 12.2 37.059 11.1067 38.2856 10.28C39.539 9.45333 40.9923 9.04 42.6456 9.04C44.3523 9.04 45.8456 9.45333 47.1256 10.28C48.4323 11.1067 49.4456 12.28 50.1656 13.8C50.8856 15.2933 51.2456 17.0933 51.2456 19.2C51.2456 21.28 50.8856 23.0933 50.1656 24.64C49.4456 26.16 48.4456 27.3333 47.1656 28.16C45.8856 28.9867 44.379 29.4 42.6456 29.4C41.019 29.4 39.5923 29 38.3656 28.2C37.139 27.3733 36.3123 26.3067 35.8856 25H36.3656V34C36.3656 34.8267 36.139 35.4533 35.6856 35.88C35.259 36.3067 34.6456 36.52 33.8456 36.52ZM41.2456 25.6C42.2323 25.6 43.099 25.36 43.8456 24.88C44.5923 24.4 45.1656 23.6933 45.5656 22.76C45.9923 21.8 46.2056 20.6133 46.2056 19.2C46.2056 17.0667 45.7523 15.48 44.8456 14.44C43.939 13.3733 42.739 12.84 41.2456 12.84C40.259 12.84 39.3923 13.08 38.6456 13.56C37.899 14.0133 37.3123 14.72 36.8856 15.68C36.4856 16.6133 36.2856 17.7867 36.2856 19.2C36.2856 21.3067 36.739 22.9067 37.6456 24C38.5523 25.0667 39.7523 25.6 41.2456 25.6ZM57.83 36.52C57.03 36.52 56.4167 36.3067 55.99 35.88C55.5633 35.4533 55.35 34.8267 55.35 34V11.64C55.35 10.8133 55.5633 10.1867 55.99 9.76C56.4167 9.33333 57.0167 9.12 57.79 9.12C58.59 9.12 59.2033 9.33333 59.63 9.76C60.0567 10.1867 60.27 10.8133 60.27 11.64V14.76L59.83 13.56C60.23 12.2 61.0433 11.1067 62.27 10.28C63.5233 9.45333 64.9767 9.04 66.63 9.04C68.3367 9.04 69.83 9.45333 71.11 10.28C72.4167 11.1067 73.43 12.28 74.15 13.8C74.87 15.2933 75.23 17.0933 75.23 19.2C75.23 21.28 74.87 23.0933 74.15 24.64C73.43 26.16 72.43 27.3333 71.15 28.16C69.87 28.9867 68.3633 29.4 66.63 29.4C65.0033 29.4 63.5767 29 62.35 28.2C61.1233 27.3733 60.2967 26.3067 59.87 25H60.35V34C60.35 34.8267 60.1233 35.4533 59.67 35.88C59.2433 36.3067 58.63 36.52 57.83 36.52ZM65.23 25.6C66.2167 25.6 67.0833 25.36 67.83 24.88C68.5767 24.4 69.15 23.6933 69.55 22.76C69.9767 21.8 70.19 20.6133 70.19 19.2C70.19 17.0667 69.7367 15.48 68.83 14.44C67.9233 13.3733 66.7233 12.84 65.23 12.84C64.2433 12.84 63.3767 13.08 62.63 13.56C61.8833 14.0133 61.2967 14.72 60.87 15.68C60.47 16.6133 60.27 17.7867 60.27 19.2C60.27 21.3067 60.7233 22.9067 61.63 24C62.5367 25.0667 63.7367 25.6 65.23 25.6ZM86.0144 29.4C83.801 29.4 82.1344 28.7733 81.0144 27.52C79.8944 26.24 79.3344 24.3733 79.3344 21.92V3C79.3344 2.17333 79.5477 1.54666 79.9744 1.12C80.401 0.693331 81.0144 0.479998 81.8144 0.479998C82.6144 0.479998 83.2277 0.693331 83.6544 1.12C84.1077 1.54666 84.3344 2.17333 84.3344 3V21.68C84.3344 22.9067 84.5877 23.8133 85.0944 24.4C85.6277 24.9867 86.3744 25.28 87.3344 25.28C87.5477 25.28 87.7477 25.28 87.9344 25.28C88.121 25.2533 88.3077 25.2267 88.4944 25.2C88.8677 25.1467 89.121 25.2533 89.2544 25.52C89.3877 25.76 89.4544 26.2667 89.4544 27.04C89.4544 27.7067 89.321 28.2267 89.0544 28.6C88.7877 28.9733 88.3477 29.2 87.7344 29.28C87.4677 29.3067 87.1877 29.3333 86.8944 29.36C86.601 29.3867 86.3077 29.4 86.0144 29.4ZM100.833 29.4C98.8058 29.4 97.0458 28.9867 95.5525 28.16C94.0592 27.3333 92.8992 26.16 92.0725 24.64C91.2458 23.0933 90.8325 21.28 90.8325 19.2C90.8325 17.6267 91.0592 16.2267 91.5125 15C91.9925 13.7467 92.6725 12.68 93.5525 11.8C94.4325 10.8933 95.4858 10.2133 96.7125 9.76C97.9392 9.28 99.3125 9.04 100.833 9.04C102.859 9.04 104.619 9.45333 106.113 10.28C107.606 11.1067 108.766 12.28 109.593 13.8C110.419 15.32 110.833 17.12 110.833 19.2C110.833 20.7733 110.593 22.1867 110.113 23.44C109.659 24.6933 108.993 25.7733 108.113 26.68C107.233 27.56 106.179 28.24 104.953 28.72C103.726 29.1733 102.353 29.4 100.833 29.4ZM100.833 25.6C101.819 25.6 102.686 25.36 103.433 24.88C104.179 24.4 104.753 23.6933 105.153 22.76C105.579 21.8 105.793 20.6133 105.793 19.2C105.793 17.0667 105.339 15.48 104.433 14.44C103.526 13.3733 102.326 12.84 100.833 12.84C99.8458 12.84 98.9792 13.08 98.2325 13.56C97.4858 14.0133 96.8992 14.72 96.4725 15.68C96.0725 16.6133 95.8725 17.7867 95.8725 19.2C95.8725 21.3067 96.3258 22.9067 97.2325 24C98.1392 25.0667 99.3392 25.6 100.833 25.6ZM117.519 29.32C116.693 29.32 116.053 29.1067 115.599 28.68C115.173 28.2267 114.959 27.5867 114.959 26.76V11.64C114.959 10.8133 115.173 10.1867 115.599 9.76C116.026 9.33333 116.626 9.12 117.399 9.12C118.173 9.12 118.773 9.33333 119.199 9.76C119.626 10.1867 119.839 10.8133 119.839 11.64V14.16H119.439C119.813 12.56 120.546 11.3467 121.639 10.52C122.733 9.69333 124.186 9.2 125.999 9.04C126.559 8.98667 126.999 9.13333 127.319 9.48C127.666 9.8 127.866 10.3067 127.919 11C127.973 11.6667 127.813 12.2133 127.439 12.64C127.093 13.04 126.559 13.28 125.839 13.36L124.959 13.44C123.333 13.6 122.106 14.1067 121.279 14.96C120.453 15.7867 120.039 16.96 120.039 18.48V26.76C120.039 27.5867 119.826 28.2267 119.399 28.68C118.973 29.1067 118.346 29.32 117.519 29.32ZM136.868 29.4C135.455 29.4 134.188 29.1333 133.068 28.6C131.975 28.04 131.108 27.2933 130.468 26.36C129.855 25.4267 129.548 24.3733 129.548 23.2C129.548 21.76 129.921 20.6267 130.668 19.8C131.415 18.9467 132.628 18.3333 134.308 17.96C135.988 17.5867 138.241 17.4 141.068 17.4H143.068V20.28H141.108C139.455 20.28 138.135 20.36 137.148 20.52C136.161 20.68 135.455 20.96 135.028 21.36C134.628 21.7333 134.428 22.2667 134.428 22.96C134.428 23.84 134.735 24.56 135.348 25.12C135.961 25.68 136.815 25.96 137.908 25.96C138.788 25.96 139.561 25.76 140.228 25.36C140.921 24.9333 141.468 24.36 141.868 23.64C142.268 22.92 142.468 22.0933 142.468 21.16V16.56C142.468 15.2267 142.175 14.2667 141.588 13.68C141.001 13.0933 140.015 12.8 138.628 12.8C137.855 12.8 137.015 12.8933 136.108 13.08C135.228 13.2667 134.295 13.5867 133.308 14.04C132.801 14.28 132.348 14.3467 131.948 14.24C131.575 14.1333 131.281 13.92 131.068 13.6C130.855 13.2533 130.748 12.88 130.748 12.48C130.748 12.08 130.855 11.6933 131.068 11.32C131.281 10.92 131.641 10.6267 132.148 10.44C133.375 9.93333 134.548 9.57333 135.668 9.36C136.815 9.14667 137.855 9.04 138.788 9.04C140.708 9.04 142.281 9.33333 143.508 9.92C144.761 10.5067 145.695 11.4 146.308 12.6C146.921 13.7733 147.228 15.2933 147.228 17.16V26.76C147.228 27.5867 147.028 28.2267 146.628 28.68C146.228 29.1067 145.655 29.32 144.908 29.32C144.161 29.32 143.575 29.1067 143.148 28.68C142.748 28.2267 142.548 27.5867 142.548 26.76V24.84H142.868C142.681 25.7733 142.308 26.5867 141.748 27.28C141.215 27.9467 140.535 28.4667 139.708 28.84C138.881 29.2133 137.935 29.4 136.868 29.4Z" fill="#007BFF"/>
</svg>
