<svg width="30" height="36" viewBox="0 0 30 36" fill="none" xmlns="http://www.w3.org/2000/svg">
<path d="M19.6454 10.8507C19.3255 10.5309 19.2445 9.97215 19.6427 9.57403C20.0408 9.17591 20.5195 9.17692 20.9193 9.57672C25.3172 13.9745 25.3323 21.1558 20.953 25.5352C20.6345 25.8537 20.0761 25.9323 19.6763 25.5325C19.2765 25.1327 19.2755 24.6539 19.6736 24.2558C23.4163 20.673 23.4035 14.6088 19.6454 10.8507ZM16.4779 22.3341C16.158 22.0142 16.0771 21.4555 16.4752 21.0574C18.3862 19.1464 18.3798 16.1143 16.4607 14.1953C16.1409 13.8754 16.0599 13.3167 16.458 12.9186C16.8562 12.5205 17.3349 12.5215 17.7347 12.9213C20.2934 15.48 20.3022 19.6292 17.7542 22.1772C17.2765 22.6549 16.7977 22.6539 16.4779 22.3341ZM24.6315 29.3729C24.313 29.6914 23.7546 29.77 23.3548 29.3702C22.955 28.9704 22.954 28.4917 23.3521 28.0935C29.085 22.3606 29.0652 12.9451 23.3081 7.188C22.9882 6.86816 22.9073 6.30945 23.3054 5.91133C23.7035 5.5132 24.1822 5.51421 24.582 5.91402C30.9792 12.4704 31.081 22.9234 24.6315 29.3729ZM13.9826 12.0357C13.983 12.1952 13.9037 12.4344 13.7444 12.5937C13.5852 12.7529 13.346 12.8322 13.1864 12.8319L10.633 12.8265C9.67554 12.8245 8.8793 13.6207 8.88132 14.5782L8.65388 20.243C8.65589 21.2005 9.4555 22.0001 10.413 22.0021L13.2855 22.0082C13.7643 22.0092 14.1641 22.409 14.1651 22.8877L14.11 34.617C14.1103 34.7766 14.0311 35.0158 13.8718 35.175C13.7126 35.3343 13.4734 35.4136 13.3138 35.4132C13.1542 35.4129 9.48375 35.4052 8.60586 35.3235C6.37168 35.3188 3.89359 33.1592 2.69082 30.364C0.0447299 24.2144 0.499944 13.0445 2.39848 5.22894C2.55672 4.59094 3.27233 3.39557 4.22781 2.44008C5.10368 1.56422 6.53758 0.450156 8.61184 0.294943C10.5265 0.139393 13.0002 0.224397 13.1598 0.224733C13.6386 0.225742 14.0384 0.625542 13.9594 1.02433L13.9826 12.0357ZM8.77513 2.05071C7.25924 2.1273 6.22379 3.00283 5.50718 3.71945C4.63131 4.59531 4.15458 5.55181 4.15492 5.71139C1.93923 14.4838 1.96041 24.5376 4.28532 29.729C5.32749 32.0452 7.40545 33.6454 8.6025 33.7277C9.24084 33.729 11.1558 33.7331 12.4325 33.7358L12.4117 23.8415L10.3371 23.8372C8.42207 23.8331 6.90282 22.3139 6.89879 20.3989L7.12622 14.7341C7.12253 12.9787 8.71501 11.3862 10.5501 11.3103L12.3055 11.314L12.286 2.0581C11.3281 1.8965 9.89188 1.89347 8.77513 2.05071Z" fill="#0C335E"/>
</svg>
