<svg width="669" height="648" viewBox="0 0 669 648" fill="none" xmlns="http://www.w3.org/2000/svg">
<path d="M251.481 170.369C258.357 164.098 265.964 158.868 274.059 154.729L274.297 129.262L315.474 120.341L326.233 143.422C335.315 143.838 344.405 145.449 353.261 148.312L371.43 130.481L406.856 153.29L398.147 177.205C404.421 184.083 409.651 191.693 413.787 199.788L439.25 200.026L448.173 241.202L425.092 251.963C424.676 261.043 423.064 270.133 420.202 278.989L438.032 297.159L415.227 332.584L391.309 323.873C384.432 330.146 376.824 335.374 368.727 339.512L368.488 364.978L327.312 373.899L316.552 350.817C307.471 350.401 298.381 348.789 289.526 345.927L271.358 363.759L235.932 340.95L244.641 317.033C238.368 310.156 233.137 302.549 228.999 294.451L203.535 294.213L194.613 253.037L217.696 242.276C218.112 233.196 219.725 224.106 222.585 215.25L204.756 197.081L227.562 161.656L251.481 170.369ZM274.48 216.919C257.799 242.83 265.28 277.356 291.191 294.036C317.1 310.717 351.627 303.233 368.306 277.323C384.986 251.414 377.507 216.886 351.596 200.206C325.685 183.528 291.16 191.009 274.48 216.919Z" fill="#E0E0E0"/>
<path d="M274.479 216.918C274.479 216.918 274.637 216.656 274.975 216.162C275.332 215.649 275.838 214.924 276.495 213.982C276.834 213.502 277.209 212.968 277.624 212.378C278.066 211.809 278.607 211.233 279.161 210.582C279.723 209.936 280.33 209.242 280.976 208.501C281.596 207.732 282.433 207.085 283.222 206.304C286.367 203.165 290.822 199.919 296.441 197.046C302.07 194.207 309.047 191.934 316.995 191.298C317.988 191.226 318.994 191.153 320.009 191.08C321.028 191.067 322.059 191.118 323.1 191.136C324.14 191.19 325.201 191.125 326.256 191.276C327.313 191.405 328.382 191.536 329.462 191.667C330.002 191.735 330.543 191.805 331.088 191.874C331.623 191.993 332.163 192.114 332.704 192.234C333.787 192.476 334.88 192.72 335.984 192.966C337.079 193.245 338.147 193.658 339.244 194.002C340.327 194.391 341.468 194.656 342.518 195.185C344.65 196.156 346.881 197.021 348.935 198.318C349.976 198.936 351.067 199.494 352.091 200.172C353.091 200.888 354.1 201.61 355.114 202.337C355.614 202.709 356.146 203.045 356.627 203.45L358.047 204.701C358.988 205.549 359.978 206.358 360.895 207.255C362.617 209.159 364.505 210.969 366.011 213.143C367.695 215.182 369.018 217.508 370.436 219.805C371.086 220.987 371.64 222.23 372.251 223.451C372.536 224.072 372.881 224.667 373.118 225.311L373.84 227.246C374.914 229.798 375.536 232.524 376.274 235.243C376.736 238.022 377.297 240.817 377.386 243.692L377.537 245.844L377.491 248.01L377.434 250.186C377.433 250.914 377.393 251.64 377.278 252.363C377.1 253.812 376.92 255.265 376.74 256.726C376.418 258.162 376.095 259.603 375.772 261.049C374.264 266.782 371.851 272.353 368.62 277.519C365.255 282.6 361.184 287.106 356.588 290.854C355.406 291.748 354.227 292.639 353.053 293.526C351.798 294.295 350.548 295.06 349.303 295.823L348.367 296.388L347.385 296.866L345.428 297.818L343.476 298.758L341.454 299.512C338.798 300.622 336.022 301.268 333.301 301.998C330.52 302.453 327.78 303.014 325.013 303.094L322.952 303.237C322.267 303.288 321.582 303.22 320.899 303.218C319.535 303.167 318.174 303.178 316.828 303.074C314.148 302.736 311.483 302.494 308.931 301.805C306.327 301.336 303.898 300.366 301.451 299.586C300.256 299.121 299.109 298.556 297.947 298.05L296.219 297.275C295.652 297.006 295.124 296.66 294.578 296.359C293.496 295.735 292.423 295.116 291.357 294.502C290.316 293.85 289.356 293.089 288.363 292.397C286.331 291.064 284.622 289.389 282.854 287.851C281.937 287.114 281.225 286.182 280.422 285.359C279.654 284.502 278.837 283.701 278.13 282.82C277.448 281.917 276.774 281.023 276.106 280.138L275.108 278.816L274.247 277.421C273.68 276.493 273.119 275.574 272.564 274.665C271.991 273.767 271.609 272.774 271.131 271.85C270.684 270.908 270.21 269.991 269.801 269.059C269.446 268.103 269.097 267.158 268.751 266.225C266.041 258.726 265.224 251.435 265.477 245.136C265.766 238.831 266.877 233.434 268.434 229.272C268.818 228.229 269.061 227.201 269.503 226.317C269.911 225.422 270.292 224.583 270.646 223.804C271.009 223.031 271.311 222.3 271.645 221.661C272.009 221.041 272.34 220.477 272.636 219.971C273.223 218.982 273.673 218.223 273.992 217.685C274.305 217.171 274.479 216.918 274.479 216.918C274.479 216.918 274.348 217.198 274.06 217.723C273.757 218.268 273.328 219.039 272.77 220.042C272.483 220.552 272.163 221.12 271.812 221.745C271.489 222.386 271.199 223.119 270.849 223.895C270.506 224.675 270.136 225.514 269.743 226.411C269.312 227.295 269.081 228.323 268.708 229.363C267.201 233.517 266.14 238.89 265.892 245.15C265.678 251.404 266.527 258.63 269.244 266.046C269.59 266.97 269.941 267.905 270.295 268.85C270.704 269.772 271.177 270.678 271.624 271.609C272.101 272.523 272.481 273.504 273.053 274.391C273.605 275.289 274.165 276.197 274.729 277.114L275.584 278.492L276.576 279.797C277.24 280.671 277.91 281.553 278.586 282.444C279.287 283.314 280.099 284.104 280.861 284.95C281.658 285.762 282.364 286.681 283.273 287.408C285.027 288.923 286.72 290.576 288.734 291.888C289.717 292.571 290.667 293.32 291.699 293.963C292.754 294.568 293.818 295.177 294.889 295.791C295.43 296.088 295.95 296.428 296.512 296.693L298.222 297.455C299.371 297.951 300.505 298.509 301.688 298.965C304.107 299.73 306.508 300.686 309.081 301.144C311.604 301.821 314.237 302.055 316.883 302.386C318.212 302.485 319.556 302.471 320.903 302.521C321.577 302.522 322.255 302.59 322.93 302.538L324.964 302.393C327.697 302.312 330.402 301.751 333.148 301.302C335.833 300.577 338.574 299.938 341.195 298.839L343.191 298.095L345.117 297.165L347.048 296.224L348.017 295.752L348.941 295.193C350.169 294.439 351.402 293.683 352.64 292.924C353.799 292.047 354.961 291.167 356.128 290.285C360.659 286.583 364.677 282.137 368 277.122C371.188 272.023 373.568 266.527 375.061 260.87C375.381 259.443 375.702 258.02 376.019 256.604C376.197 255.163 376.376 253.727 376.553 252.298C376.666 251.585 376.707 250.867 376.707 250.149L376.764 248.001L376.814 245.864L376.665 243.739C376.581 240.899 376.027 238.141 375.575 235.396C374.849 232.711 374.24 230.017 373.182 227.497L372.47 225.586C372.238 224.949 371.897 224.361 371.616 223.748C371.014 222.542 370.47 221.313 369.83 220.144C368.432 217.873 367.132 215.573 365.47 213.557C363.988 211.405 362.126 209.615 360.427 207.729C359.523 206.841 358.545 206.04 357.618 205.2L356.217 203.959C355.744 203.556 355.219 203.223 354.724 202.854C353.723 202.133 352.727 201.417 351.74 200.706C350.728 200.032 349.652 199.478 348.623 198.866C346.596 197.576 344.391 196.719 342.286 195.75C341.249 195.223 340.12 194.961 339.05 194.571C337.965 194.227 336.91 193.816 335.828 193.537C334.737 193.291 333.656 193.046 332.585 192.804C332.05 192.682 331.517 192.561 330.987 192.441C330.449 192.371 329.912 192.301 329.378 192.231C328.31 192.097 327.253 191.965 326.207 191.833C325.163 191.679 324.112 191.74 323.082 191.683C322.051 191.662 321.029 191.607 320.021 191.615C319.014 191.683 318.018 191.751 317.033 191.819C309.156 192.417 302.228 194.634 296.623 197.417C291.026 200.233 286.574 203.423 283.416 206.515C282.623 207.285 281.783 207.921 281.157 208.679C280.504 209.409 279.893 210.092 279.324 210.728C278.763 211.369 278.215 211.937 277.766 212.496C277.342 213.074 276.958 213.601 276.613 214.073C275.93 214.996 275.406 215.706 275.036 216.207C274.679 216.683 274.479 216.918 274.479 216.918Z" fill="#263238"/>
<path d="M251.48 170.369C251.48 170.369 250.966 170.2 249.946 169.839C248.915 169.47 247.392 168.926 245.386 168.208C241.341 166.751 235.349 164.59 227.52 161.769L227.659 161.722C221.865 170.754 214.199 182.706 204.912 197.185L204.888 196.952C210.292 202.446 216.304 208.558 222.739 215.101L222.831 215.195L222.791 215.319C220.157 223.512 218.376 232.604 217.938 242.288L217.931 242.434L217.798 242.497C210.609 245.855 202.824 249.493 194.726 253.276L194.872 252.983C197.689 265.944 200.679 279.703 203.82 294.153L203.539 293.925C211.421 293.994 220.103 294.071 229.004 294.149L229.188 294.15L229.272 294.315C233.143 301.902 238.406 309.746 244.876 316.82L245.007 316.962L244.94 317.143C242.243 324.557 239.27 332.734 236.241 341.063L236.111 340.673C247.239 347.832 259.243 355.554 271.544 363.469L271.118 363.513C276.774 357.959 282.987 351.858 289.28 345.676L289.432 345.528L289.634 345.593C297.796 348.238 307.08 350.038 316.57 350.46L316.785 350.47L316.877 350.665C320.248 357.894 323.927 365.78 327.641 373.746L327.238 373.547C340.274 370.721 354.246 367.691 368.412 364.62L368.123 364.974C368.198 356.931 368.279 348.25 368.361 339.507L368.362 339.284L368.56 339.183C376.31 335.232 384.104 329.957 391.042 323.617L391.062 323.6L391.229 323.45L391.437 323.525C399.461 326.447 407.436 329.351 415.355 332.235L414.919 332.382C422.619 320.423 430.227 308.606 437.727 296.959L437.773 297.413C431.772 291.295 425.829 285.238 419.946 279.24L419.793 279.084L419.861 278.876C422.713 270.064 424.325 260.974 424.738 251.945L424.748 251.728L424.945 251.637C432.752 248 440.439 244.419 448.029 240.882L447.834 241.274C444.791 227.217 441.819 213.483 438.922 200.096L439.251 200.363C430.61 200.28 422.125 200.198 413.787 200.117L413.588 200.116L413.497 199.937C409.242 191.604 403.947 184.037 397.917 177.419L397.786 177.275L397.853 177.094C400.843 168.895 403.743 160.946 406.573 153.183L406.695 153.546C394.235 145.513 382.475 137.931 371.283 130.716L371.633 130.68C365.239 136.948 359.238 142.828 353.453 148.499L353.338 148.611L353.185 148.561C343.875 145.552 334.847 144.071 326.228 143.661L326.08 143.654L326.018 143.521C322.114 135.125 318.6 127.567 315.281 120.43L315.524 120.551C299.549 123.99 285.951 126.919 274.336 129.42L274.466 129.259C274.353 139.458 274.259 147.806 274.182 154.726L274.18 154.798L274.116 154.831C265.854 159.059 260.287 163.182 256.704 165.993C254.911 167.405 253.629 168.523 252.766 169.258C251.904 170.016 251.48 170.369 251.48 170.369C251.48 170.369 253.067 168.783 256.624 165.902C260.186 163.058 265.739 158.896 274.004 154.624L273.939 154.729C273.992 147.809 274.054 139.461 274.131 129.262L274.132 129.131L274.261 129.102C285.869 126.572 299.459 123.61 315.427 120.13L315.597 120.093L315.67 120.252C319.002 127.383 322.532 134.934 326.451 143.321L326.243 143.181C334.904 143.578 343.978 145.051 353.343 148.061L353.076 148.123C358.854 142.445 364.846 136.556 371.232 130.279L371.393 130.121L371.583 130.243C382.784 137.446 394.554 145.013 407.022 153.032L407.229 153.165L407.145 153.396C404.322 161.161 401.431 169.112 398.448 177.314L398.384 176.989C404.458 183.643 409.794 191.255 414.082 199.638L413.79 199.458C422.126 199.533 430.613 199.61 439.254 199.688L439.524 199.691L439.582 199.956C442.488 213.342 445.466 227.072 448.516 241.128L448.576 241.403L448.321 241.522C440.732 245.062 433.048 248.647 425.243 252.288L425.448 251.98C425.035 261.072 423.414 270.225 420.546 279.1L420.459 278.736C426.343 284.732 432.287 290.787 438.29 296.904L438.494 297.112L438.336 297.357C430.839 309.005 423.231 320.823 415.534 332.785L415.375 333.033L415.099 332.932C407.181 330.048 399.206 327.144 391.181 324.223L391.555 324.15L391.535 324.168C384.547 330.554 376.697 335.867 368.892 339.845L369.093 339.52C369.011 348.263 368.929 356.943 368.852 364.987L368.849 365.28L368.563 365.342C354.398 368.409 340.424 371.436 327.388 374.258L327.106 374.319L326.984 374.057C323.271 366.09 319.597 358.203 316.228 350.973L316.536 351.178C306.981 350.75 297.635 348.933 289.418 346.266L289.77 346.182C283.472 352.36 277.257 358.456 271.598 364.009L271.402 364.202L271.171 364.053C258.875 356.13 246.878 348.4 235.754 341.233L235.533 341.09L235.624 340.843C238.659 332.517 241.641 324.342 244.344 316.931L244.408 317.254C237.903 310.13 232.616 302.233 228.731 294.596L228.999 294.762C220.099 294.674 211.415 294.588 203.534 294.51L203.301 294.507L203.252 294.281C200.13 279.826 197.158 266.065 194.357 253.099L194.313 252.894L194.503 252.805C202.609 249.034 210.4 245.409 217.593 242.062L217.454 242.27C217.91 232.54 219.717 223.41 222.379 215.189L222.43 215.407C216.01 208.85 210.013 202.725 204.622 197.217L204.517 197.11L204.597 196.984C213.932 182.536 221.638 170.608 227.462 161.596L227.513 161.517L227.6 161.549C235.391 164.415 241.354 166.608 245.379 168.089C247.385 168.833 248.906 169.397 249.938 169.779C250.959 170.16 251.48 170.369 251.48 170.369Z" fill="#263238"/>
<path d="M440.55 384.727L358.529 437.139H627.409V384.727H440.55Z" fill="#455A64"/>
<path d="M592.208 352.36V357.635V469.505L668.555 410.932L592.208 352.36Z" fill="#455A64"/>
<path d="M492.378 408.591H494.589V416.35H499.387V418.153H492.379L492.378 408.591Z" fill="#263238"/>
<path d="M507.007 416.105H502.567L501.719 418.153H499.45L503.714 408.591H505.9L510.175 418.153H507.853L507.007 416.105ZM506.309 414.423L504.793 410.763L503.278 414.423H506.309Z" fill="#263238"/>
<path d="M510.88 413.946V408.593H513.094V413.865C513.094 415.683 513.889 416.433 515.227 416.433C516.577 416.433 517.358 415.683 517.358 413.865V408.593H519.543V413.946C519.543 416.761 517.93 418.317 515.213 418.317C512.493 418.316 510.88 416.761 510.88 413.946Z" fill="#263238"/>
<path d="M530.492 408.591V418.153H528.678L523.911 412.347V418.153H521.726V408.591H523.554L528.307 414.396V408.591H530.492Z" fill="#263238"/>
<path d="M532.155 413.372C532.155 410.49 534.369 408.427 537.348 408.427C539 408.427 540.381 409.029 541.282 410.121L539.86 411.433C539.218 410.695 538.413 410.313 537.456 410.313C535.665 410.313 534.396 411.569 534.396 413.372C534.396 415.174 535.667 416.432 537.456 416.432C538.413 416.432 539.218 416.05 539.86 415.297L541.282 416.609C540.38 417.715 539 418.316 537.334 418.316C534.369 418.316 532.155 416.254 532.155 413.372Z" fill="#263238"/>
<path d="M551.534 408.591V418.153H549.323V414.232H544.977V418.153H542.768V408.591H544.977V412.361H549.323V408.591H551.534Z" fill="#263238"/>
<path d="M109.54 253.922C117.962 360.624 207.484 444.87 316.312 444.87V392.459C230.84 392.459 161.304 322.923 161.304 237.451C161.304 237.451 163.64 210.405 165.269 202.257L113.67 192.556C111.791 201.81 108.797 244.508 109.54 253.922Z" fill="#FF725E"/>
<path d="M176.127 343.978L175.233 347.087L175.304 347.172L176.521 348.662L178.582 346.978L179.981 348.689L172.586 354.741L169.965 351.539C168.35 349.562 168.363 347.488 170.022 346.131C171.131 345.223 172.403 345.118 173.601 345.743L174.62 342.139L176.127 343.978ZM171.44 350.493L172.58 351.886L175.158 349.777L174.018 348.385C173.161 347.339 172.244 347.208 171.441 347.865C170.628 348.529 170.584 349.446 171.44 350.493Z" fill="#263238"/>
<path d="M167.925 336.054L169.353 335L173.747 340.951L166.063 346.628L161.773 340.818L163.201 339.764L166.186 343.807L167.855 342.573L165.22 339.003L166.605 337.982L169.239 341.55L171.018 340.237L167.925 336.054Z" fill="#263238"/>
<path d="M155.426 331.437L165.666 329.555L166.883 331.368L161.239 340.112L159.909 338.128L163.959 331.912L156.65 333.262L155.426 331.437Z" fill="#263238"/>
<path d="M154.921 330.551L153.748 328.672L161.865 323.61L163.038 325.487L154.921 330.551Z" fill="#263238"/>
<path d="M155.45 316.228L156.985 315.337L160.701 321.74L152.432 326.538L148.805 320.289L150.342 319.398L152.863 323.744L154.658 322.703L152.431 318.864L153.921 318L156.148 321.841L158.062 320.73L155.45 316.228Z" fill="#263238"/>
<path d="M141.127 305.541L151.058 303.984L152.136 306.099L147.33 310.909L154.077 309.903L155.149 312.006L148.067 319.142L147.025 317.101L152.027 312.129L145.022 313.171L144.093 311.348L149.132 306.328L142.09 307.423L141.127 305.541Z" fill="#263238"/>
<path d="M197.458 189.276L94.4268 161.019L127.762 241.433L197.458 189.276Z" fill="#455A64"/>
<path d="M171.197 187.287C192.972 127.983 250.009 85.5596 316.77 85.5596V33.1481C227.094 33.1481 150.526 90.3532 121.642 170.189L171.197 187.287Z" fill="#455A64"/>
<path d="M178.419 115.843L182.007 113.394C184.589 111.631 187.424 111.978 189.057 114.37C190.689 116.761 189.979 119.529 187.397 121.291L183.809 123.741L178.419 115.843ZM186.282 119.854C187.85 118.783 188.238 117.147 187.206 115.634C186.172 114.121 184.509 113.886 182.939 114.955L181.268 116.096L184.611 120.993L186.282 119.854Z" fill="#263238"/>
<path d="M198.239 111.741L199.24 113.209L193.127 117.383L187.735 109.486L193.703 105.411L194.705 106.877L190.551 109.711L191.721 111.427L195.387 108.924L196.359 110.345L192.693 112.848L193.941 114.676L198.239 111.741Z" fill="#263238"/>
<path d="M204.107 102.51C205.31 104.269 204.736 106.266 202.626 107.706L201.035 108.792L202.521 110.969L200.695 112.216L195.304 104.319L198.722 101.986C200.831 100.545 202.896 100.738 204.107 102.51ZM202.256 103.773C201.663 102.904 200.753 102.782 199.635 103.544L198.145 104.561L200.017 107.303L201.507 106.286C202.624 105.524 202.841 104.63 202.256 103.773Z" fill="#263238"/>
<path d="M203.445 98.7602L205.273 97.5137L209.647 103.921L213.606 101.218L214.623 102.708L208.837 106.659L203.445 98.7602Z" fill="#263238"/>
<path d="M212.322 98.491C210.72 96.1438 211.361 93.1592 213.854 91.4579C216.337 89.7623 219.354 90.234 220.963 92.5925C222.574 94.9511 221.912 97.93 219.431 99.6256C216.937 101.327 213.925 100.837 212.322 98.491ZM219.115 93.8547C218.089 92.3532 216.328 92.0514 214.918 93.0147C213.507 93.9765 213.148 95.7273 214.174 97.2274C215.198 98.7275 216.957 99.0307 218.368 98.0688C219.779 97.1056 220.139 95.3548 219.115 93.8547Z" fill="#263238"/>
<path d="M226.576 90.448L228.485 93.2456L226.658 94.4936L224.733 91.6733L218.211 88.6844L220.15 87.36L224.658 89.4281L224.37 84.4787L226.166 83.2534L226.576 90.448Z" fill="#263238"/>
<path d="M346.294 123.994L278.041 49.3334L365.133 0L346.294 123.994Z" fill="#85C1E9"/>
<path d="M440.465 135.478C410.997 101.773 368.443 82.4418 323.718 82.4418V30.0303C383.567 30.0303 440.502 55.8904 479.924 100.98L440.465 135.478Z" fill="#85C1E9"/>
<path d="M381.471 65.0497L378.614 63.9547L379.26 62.2719L387.04 65.2522L386.394 66.9351L383.535 65.8415L380.759 73.087L378.695 72.2938L381.471 65.0497Z" fill="#263238"/>
<path d="M392.276 75.5956L391.643 77.2544L384.729 74.6054L388.148 65.6757L394.896 68.2608L394.26 69.9182L389.566 68.1192L388.824 70.0584L392.971 71.6463L392.355 73.2541L388.207 71.6647L387.414 73.7315L392.276 75.5956Z" fill="#263238"/>
<path d="M392.919 76.736L394.217 75.4484C394.759 76.2841 395.734 77.0972 396.806 77.508C398.03 77.9769 398.683 77.7601 398.894 77.2105C399.534 75.539 393.905 74.699 395.174 71.3829C395.755 69.8644 397.465 69.0697 400.002 70.0443C401.125 70.4735 402.17 71.1818 402.799 72.0218L401.561 73.3476C400.912 72.5558 400.146 72.0005 399.354 71.6974C398.129 71.2285 397.482 71.5062 397.265 72.0685C396.634 73.7145 402.261 74.5687 401.006 77.8465C400.435 79.3381 398.71 80.1399 396.157 79.1625C394.743 78.6186 393.476 77.6511 392.919 76.736Z" fill="#263238"/>
<path d="M405.916 74.4144L403.058 73.3208L403.702 71.638L411.482 74.6184L410.837 76.3012L407.98 75.2062L405.204 82.4518L403.14 81.6599L405.916 74.4144Z" fill="#263238"/>
<path d="M507.649 333.011L460.193 310.767C469.858 290.146 478.725 260.428 478.725 237.451C478.725 212.832 473.133 189.306 462.101 167.525C460.186 163.748 453.25 151.17 451.347 148.023L496.183 120.882C498.939 125.436 506.523 139.236 508.855 143.84C523.641 173.03 531.137 204.525 531.137 237.449C531.137 268.174 520.603 305.378 507.649 333.011Z" fill="#FF725E"/>
<path d="M432.889 171.922L522.14 113.202L439.736 85.1417L432.889 171.922Z" fill="#FF725E"/>
<path d="M499.857 181.636L501.035 185.814C501.886 188.824 500.653 191.4 497.868 192.186C495.08 192.972 492.686 191.419 491.835 188.411L490.656 184.229L499.857 181.636ZM493.552 187.812C494.067 189.64 495.497 190.528 497.257 190.031C499.018 189.534 499.772 188.03 499.256 186.204L498.708 184.257L493.003 185.867L493.552 187.812Z" fill="#263238"/>
<path d="M496.949 201.798L495.218 202.189L493.588 194.974L502.906 192.869L504.498 199.912L502.767 200.301L501.661 195.403L499.636 195.86L500.612 200.186L498.935 200.567L497.959 196.24L495.803 196.727L496.949 201.798Z" fill="#263238"/>
<path d="M506.543 211.058L496.409 208.664L496.025 206.514L504.707 200.777L505.129 203.129L498.919 207.19L506.156 208.894L506.543 211.058Z" fill="#263238"/>
<path d="M499.963 220.526L498.204 220.764L497.212 213.434L506.68 212.152L507.649 219.308L505.892 219.545L505.217 214.568L503.161 214.845L503.758 219.241L502.054 219.474L501.456 215.075L499.267 215.373L499.963 220.526Z" fill="#263238"/>
<path d="M507.884 221.526L508.092 223.729L500.374 224.46L500.823 229.229L499.029 229.401L498.369 222.429L507.884 221.526Z" fill="#263238"/>
<path d="M503.861 229.518C506.695 229.373 508.909 231.472 509.064 234.486C509.218 237.485 507.248 239.817 504.397 239.962C501.549 240.107 499.349 237.994 499.193 234.993C499.037 231.983 501.022 229.666 503.861 229.518ZM504.283 237.726C506.094 237.634 507.27 236.287 507.182 234.583C507.095 232.88 505.79 231.66 503.975 231.754C502.162 231.847 500.986 233.194 501.074 234.897C501.162 236.601 502.468 237.821 504.283 237.726Z" fill="#263238"/>
<path d="M505.756 250.034C503.626 250.042 502.298 248.45 502.287 245.896L502.279 243.973L499.645 243.984L499.637 241.773L509.194 241.736L509.21 245.871C509.217 248.422 507.898 250.025 505.756 250.034ZM505.748 247.794C506.799 247.79 507.411 247.106 507.406 245.756L507.398 243.953L504.08 243.964L504.087 245.767C504.093 247.119 504.709 247.797 505.748 247.794Z" fill="#263238"/>
<path d="M323.718 444.87H156.466V392.459H323.718C372.41 392.459 417.325 370.24 446.944 331.503L488.58 363.339C448.963 415.151 388.873 444.87 323.718 444.87Z" fill="#FF725E"/>
<path d="M420.451 318.397L509.382 377.599L503.005 290.783L420.451 318.397Z" fill="#FF725E"/>
<g opacity="0.3">
<path d="M509.382 377.599L503.005 290.783L420.45 318.397L444.603 334.476C414.986 371.372 371.146 392.459 323.718 392.459H156.466V444.87H323.718C388.756 444.87 448.745 415.253 488.367 363.61L509.382 377.599Z" fill="black"/>
</g>
<path d="M419.198 388.695C420.481 390.396 419.999 392.418 417.961 393.955L416.42 395.113L418.008 397.218L416.24 398.548L410.487 390.909L413.793 388.419C415.833 386.886 417.908 386.982 419.198 388.695ZM417.408 390.044C416.775 389.202 415.859 389.124 414.781 389.936L413.339 391.022L415.336 393.673L416.778 392.588C417.856 391.775 418.033 390.874 417.408 390.044Z" fill="#263238"/>
<path d="M418.362 384.981L420.13 383.651L424.798 389.847L428.626 386.964L429.714 388.406L424.118 392.62L418.362 384.981Z" fill="#263238"/>
<path d="M434.567 382.183L431.023 384.855L431.576 387.002L429.768 388.366L427.419 378.165L429.164 376.85L438.333 381.915L436.476 383.312L434.567 382.183ZM433 381.261L429.586 379.247L430.576 383.084L433 381.261Z" fill="#263238"/>
<path d="M440.378 368.402L446.131 376.041L444.679 377.133L437.381 375.363L440.873 379.999L439.128 381.315L433.375 373.677L434.835 372.576L442.125 374.353L438.633 369.716L440.378 368.402Z" fill="#263238"/>
<path d="M142.54 360.091V477.236L217.906 418.664L142.54 360.091Z" fill="#85C1E9"/>
<path d="M156.465 392.459H0V444.87H156.465V392.459Z" fill="#85C1E9"/>
<path d="M67.058 416.889C67.058 419.02 65.4587 420.344 62.9047 420.344H60.9782V422.981H58.7656V413.419H62.9047C65.4587 413.419 67.058 414.743 67.058 416.889ZM64.817 416.889C64.817 415.837 64.1343 415.222 62.7815 415.222H60.9782V418.543H62.7815C64.1343 418.543 64.817 417.926 64.817 416.889Z" fill="#263238"/>
<path d="M68.624 413.419H70.8366V421.177H75.6316V422.981H68.6254L68.624 413.419Z" fill="#263238"/>
<path d="M83.253 420.932H78.8136L77.9651 422.981H75.6973L79.9596 413.419H82.1453L86.4218 422.981H84.0987L83.253 420.932ZM82.5547 419.252L81.039 415.592L79.5233 419.252H82.5547Z" fill="#263238"/>
<path d="M96.1853 413.419V422.981H94.3693L89.6027 417.174V422.981H87.417V413.419H89.2471L93.9996 419.224V413.419H96.1853Z" fill="#263238"/>
<path d="M305.027 605.242L300.99 648L277.879 646.283L281.835 603.436L305.027 605.242Z" fill="#007BFF"/>
<path d="M289.733 645.54C289.541 645.52 290.385 636.154 291.62 624.624C292.855 613.091 294.011 603.762 294.204 603.782C294.397 603.803 293.551 613.166 292.317 624.698C291.083 636.229 289.926 645.561 289.733 645.54Z" fill="#263238"/>
<path d="M301.269 645.051L278.158 643.259L277.879 646.283L300.99 648L301.269 645.051Z" fill="#263238"/>
<path d="M279.147 632.589C279.114 632.56 279.345 632.238 279.828 631.714C280.311 631.19 281.067 630.477 282.1 629.718C283.134 628.963 284.459 628.163 286.071 627.586C287.668 626.996 289.582 626.657 291.568 626.872C295.556 627.272 298.717 629.555 300.175 631.666C300.937 632.711 301.378 633.666 301.616 634.34C301.848 635.019 301.92 635.408 301.88 635.42C301.747 635.478 301.341 633.912 299.784 631.969C298.284 630.026 295.275 627.953 291.492 627.569C287.722 627.175 284.425 628.775 282.383 630.126C280.298 631.509 279.234 632.679 279.147 632.589Z" fill="#263238"/>
<g opacity="0.3">
<path d="M280.718 615.631L280.283 620.342L303.458 621.959L303.793 618.412L280.718 615.631Z" fill="black"/>
</g>
<path d="M397.954 602.252L400.733 645.109L377.641 647.07L374.769 604.136L397.954 602.252Z" fill="#007BFF"/>
<path d="M389.224 644.462C389.03 644.472 388.383 635.091 387.778 623.511C387.172 611.928 386.839 602.533 387.033 602.523C387.225 602.513 387.873 611.892 388.479 623.474C389.084 635.055 389.417 644.452 389.224 644.462Z" fill="#263238"/>
<path d="M400.542 642.154L377.439 644.04L377.642 647.07L400.734 645.109L400.542 642.154Z" fill="#263238"/>
<path d="M376.723 633.349C376.686 633.325 376.863 632.971 377.258 632.376C377.653 631.782 378.286 630.959 379.186 630.046C380.087 629.138 381.268 628.138 382.768 627.312C384.253 626.476 386.087 625.839 388.083 625.737C392.083 625.5 395.567 627.255 397.34 629.108C398.258 630.019 398.843 630.893 399.186 631.52C399.523 632.154 399.656 632.526 399.618 632.545C399.496 632.622 398.846 631.141 397.002 629.469C395.212 627.788 391.913 626.217 388.117 626.436C384.332 626.645 381.33 628.745 379.529 630.403C377.689 632.1 376.825 633.424 376.723 633.349Z" fill="#263238"/>
<g opacity="0.3">
<path d="M375.591 616.357L375.908 621.078L399.046 619.008L398.815 615.451L375.591 616.357Z" fill="black"/>
</g>
<path d="M332.563 223.406L300.738 228.154L299.247 200.924C299.247 200.924 296.948 200.825 294.914 189.208C292.88 177.59 289.125 157.9 289.125 157.9C302.146 149.849 318.575 149.194 332.061 156.193L334.063 157.232L332.563 223.406Z" fill="#FFBE9D"/>
<path d="M332.598 172.16C332.789 172.041 340.499 168.453 341.525 176.455C342.55 184.457 334.021 183.891 333.977 183.664C333.933 183.436 332.598 172.16 332.598 172.16Z" fill="#FFBE9D"/>
<path d="M293.61 176.767C293.39 176.715 285.732 175.991 287.283 183.908C288.836 191.825 296.75 188.596 296.72 188.365C296.691 188.137 293.61 176.767 293.61 176.767Z" fill="#FFBE9D"/>
<path d="M335.13 170.839C334.979 177.708 335.789 181.172 335.37 185.812C334.708 193.153 331.957 199.145 325.95 203.731C319.942 208.316 311.035 209.693 304.61 205.816C300.151 203.124 296.764 199.817 295.371 194.903C293.979 189.989 291.96 181.218 291.108 176.183C289.569 167.108 287.532 158.522 287.532 158.522L313.661 149.471L330.385 155.778L335.13 170.839Z" fill="#263238"/>
<path d="M312.992 209.953C312.981 210.145 315.178 210.307 317.769 209.592C320.364 208.891 322.163 207.637 322.052 207.479C321.942 207.292 320.051 208.215 317.569 208.882C315.093 209.569 312.989 209.737 312.992 209.953Z" fill="#263238"/>
<path d="M335.662 182.388C335.343 175.425 334.588 167.525 334.529 160.141C334.506 157.37 334.873 153.311 334.182 150.628C333.489 147.935 332.764 145.173 331.118 142.909C329.052 140.069 325.565 138.254 321.96 138.141C318.355 138.029 314.714 139.621 312.401 142.325C309.989 139.815 305.905 138.967 302.6 140.289C299.295 141.61 296.986 145.013 297.061 148.458C294.864 147.01 291.653 147.193 289.612 148.881C287.569 150.57 286.878 153.614 288.008 155.943C286.129 156.564 284.609 158.142 284.099 159.998C283.59 161.855 284.107 163.935 285.43 165.345C286.976 166.996 289.388 167.652 291.047 169.196C292.958 170.973 293.607 173.907 292.624 176.314" fill="#263238"/>
<path d="M294.326 163.738C294.302 163.752 294.413 164.015 294.746 164.436C295.08 164.85 295.658 165.423 296.583 165.88C297.492 166.331 298.796 166.661 300.253 166.382C301.69 166.116 303.256 165.252 304.248 163.733L303.656 163.677C304.219 165.35 305.899 166.684 307.897 167.076C309.898 167.557 312.248 166.86 313.839 165.358C315.325 164.008 316.209 162.225 316.552 160.49L315.911 160.667C317.719 162.571 320.358 163.215 322.522 162.903C324.745 162.607 326.395 161.304 327.319 160.053C328.268 158.78 328.587 157.536 328.68 156.709C328.766 155.869 328.663 155.418 328.633 155.421C328.575 155.423 328.589 155.876 328.429 156.674C328.264 157.461 327.885 158.621 326.943 159.78C326.02 160.923 324.472 162.063 322.446 162.289C320.463 162.535 318.059 161.896 316.467 160.185L315.972 159.654L315.826 160.362C315.498 161.957 314.669 163.602 313.322 164.821C311.862 166.178 309.843 166.785 308.055 166.378C306.265 166.041 304.789 164.882 304.28 163.462L304.051 162.821L303.687 163.403C302.841 164.759 301.444 165.588 300.148 165.868C298.838 166.163 297.631 165.915 296.753 165.538C294.961 164.748 294.409 163.654 294.326 163.738Z" fill="#455A64"/>
<path d="M293.857 160.575C293.994 160.582 293.62 159.28 294.537 157.491C294.996 156.627 295.822 155.692 297.067 155.197C298.286 154.696 299.898 154.625 301.289 155.29L302.016 155.637L301.822 154.869C301.636 154.138 301.603 153.338 301.727 152.537C302.025 150.742 303.086 149.163 304.433 148.286C305.778 147.382 307.334 147.162 308.566 147.252C311.107 147.47 312.296 148.724 312.37 148.589C312.398 148.562 312.156 148.238 311.556 147.813C310.957 147.402 309.969 146.905 308.627 146.735C307.305 146.569 305.587 146.741 304.045 147.725C302.506 148.684 301.305 150.428 300.974 152.434C300.833 153.329 300.876 154.233 301.095 155.06L301.628 154.641C299.993 153.883 298.173 154.01 296.808 154.617C295.409 155.223 294.527 156.325 294.094 157.293C293.647 158.274 293.595 159.147 293.64 159.716C293.691 160.29 293.82 160.583 293.857 160.575Z" fill="#455A64"/>
<path d="M311.04 158.031C311.136 157.97 310.945 157.58 310.886 156.933C310.819 156.284 310.935 155.387 311.346 154.445C311.751 153.535 312.258 152.591 312.557 152.084C312.906 151.607 313.339 151.83 313.39 151.781C313.43 151.761 313.404 151.597 313.161 151.489C312.941 151.377 312.481 151.422 312.162 151.733C311.842 152.04 311.646 152.396 311.38 152.791C311.126 153.192 310.859 153.652 310.639 154.173C310.18 155.21 310.125 156.317 310.354 157.036C310.578 157.77 310.968 158.087 311.04 158.031Z" fill="#455A64"/>
<path d="M325.372 145.441C325.453 145.397 325.276 144.82 324.636 144.069C324.309 143.705 323.854 143.292 323.208 143.021C322.572 142.741 321.725 142.673 320.947 142.913C319.364 143.401 318.48 144.619 318.002 145.418C317.519 146.251 317.328 146.8 317.412 146.849C317.506 146.904 317.873 146.432 318.448 145.705C319.022 144.996 319.881 144.004 321.161 143.619C322.439 143.208 323.589 143.854 324.248 144.438C324.925 145.028 325.273 145.501 325.372 145.441Z" fill="#455A64"/>
<path d="M326.657 179.872C326.833 179.953 328.094 177.56 328.676 174.335C329.278 171.112 328.945 168.462 328.749 168.483C328.524 168.493 328.51 171.087 327.925 174.213C327.361 177.342 326.449 179.791 326.657 179.872Z" fill="#455A64"/>
<path d="M323.354 182.365C323.551 182.422 324.28 180.681 324.763 178.426C325.252 176.171 325.303 174.299 325.097 174.28C324.884 174.258 324.498 176.066 324.017 178.283C323.541 180.499 323.148 182.306 323.354 182.365Z" fill="#455A64"/>
<path d="M300.79 186.575C300.603 186.564 300.763 189.927 302.851 193.42C304.905 196.933 307.81 198.759 307.893 198.596C308.052 198.423 305.474 196.414 303.514 193.049C301.511 189.708 301.023 186.528 300.79 186.575Z" fill="#455A64"/>
<path d="M296.233 181.354C296.053 181.297 295.465 184.307 296.727 187.739C297.952 191.187 300.342 193.16 300.445 193.006C300.625 192.857 298.601 190.757 297.447 187.489C296.245 184.241 296.469 181.358 296.233 181.354Z" fill="#455A64"/>
<path d="M299.344 222.64L299.624 215.811L332.889 208.785L334.064 214.407L299.344 222.64Z" fill="white"/>
<path d="M195.214 305.242C195.214 305.242 193.571 306.086 194.717 307.289C195.863 308.491 210.991 321.925 213.035 323.243C215.078 324.56 221.2 326.15 221.2 326.15L225.198 325.406L227.538 315.771L230.359 311.136L229.64 310.071L232.297 299.77C232.297 299.77 229.991 298.835 228.936 300.495C227.448 302.836 225.393 306.621 225.393 306.621C225.393 306.621 221.233 307.255 219.718 305.45C218.204 303.644 209.386 288.763 208.32 288.504C207.253 288.245 205.632 288.571 206.495 290.938C207.359 293.305 212.998 301.743 212.783 302.205C212.568 302.666 211.712 303.301 211.299 302.892C210.885 302.482 201.887 290.602 200.462 290.398C198.944 290.181 197.854 291.408 199.25 293.7C200.645 295.99 207.967 304.344 207.631 304.879C207.295 305.414 206.322 304.767 206.322 304.767C206.322 304.767 197.949 296.026 196.775 296.182C195.47 296.354 195.266 297.667 195.928 298.753C196.589 299.838 205.073 308.039 205.222 308.692C205.319 309.119 204.96 310.807 204.278 310.231C203.597 309.654 195.878 304.686 195.214 305.242Z" fill="#FFBE9D"/>
<path d="M280.732 392.245L278.971 506.524L275.09 625.157L307.292 627.484L318.157 506.524L330.521 420.697L333.244 420.53L357.57 509.886L372.731 624.556C374.615 624.086 403.128 621.834 403.128 621.834L383.348 389.648L380.052 370.338L295.278 372.222L280.732 392.245Z" fill="#263238"/>
<path d="M376.041 330.697L373.589 264.597L369.511 218.952H341.717L334.62 212.033L298.97 218.952L295.67 228.909C295.67 228.909 267.039 238.025 265.451 240.804C265.451 240.804 275.493 280.437 280.223 302.646C283.468 317.885 286.885 333.504 286.885 333.504L277.842 406.622C277.482 406.622 332.916 404.183 332.916 404.183L386.469 398.391L376.041 330.697Z" fill="#85C1E9"/>
<path d="M404.989 198.171C404.989 198.171 396.832 198.809 396.349 198.809C395.866 198.809 387.467 199.581 387.467 199.581C387.467 199.581 387.854 197.554 389.785 196.685C391.715 195.816 395.397 194.471 395.783 193.795C396.17 193.119 397.026 192.148 396.254 191.085C395.482 190.023 381.411 175.741 380.928 174.969C380.445 174.197 379.673 172.748 380.928 172.459C382.183 172.17 383.727 173.522 384.79 174.39C385.852 175.258 391.33 179.888 391.909 179.597C392.489 179.307 392.006 178.825 392.006 178.825C392.006 178.825 382.7 169.249 382.604 168.959C382.508 168.67 381.411 165.847 384.062 166.31C385.331 166.533 394.999 176.411 395.385 176.026C395.772 175.639 387.276 164.731 388.048 163.862C388.82 162.994 389.69 162.124 391.234 163.862C392.778 165.6 399.431 174.482 399.918 174.578C400.406 174.675 400.985 174.192 400.791 173.516C400.598 172.84 396.645 165.957 396.645 165.184C396.645 164.412 397.421 164.221 398.193 164.124C398.965 164.028 407.257 176.026 407.257 176.026C407.257 176.026 413.657 186.324 414.305 187.514C415.055 188.895 416.139 192.727 416.139 192.727L404.989 198.171Z" fill="#FFBE9D"/>
<path d="M402.951 198.702L408.509 220.144L395.803 224.909L368.404 218.952V259.454L372.278 269.986C372.278 269.986 429.615 242.315 433.423 239.268C440.542 233.574 429.241 213.965 429.241 213.965L418.833 191.553L402.951 198.702Z" fill="#455A64"/>
<path d="M265.45 240.805L259.038 253.645L242.834 307.29L224.725 312.12L221.321 328.672C221.321 328.672 249.639 335.31 254.892 333.03C263.811 329.157 278.696 292.222 278.696 292.222L276.682 260.647L265.45 240.805Z" fill="#455A64"/>
<path d="M426.498 228.909C426.335 229.088 423.143 225.626 418.049 223.08C412.983 220.478 408.304 219.952 408.352 219.716C408.36 219.629 409.536 219.644 411.399 220.001C413.257 220.353 415.792 221.113 418.384 222.421C420.97 223.736 423.082 225.331 424.466 226.621C425.855 227.912 426.563 228.851 426.498 228.909Z" fill="#263238"/>
<path d="M421.094 220.026C421.031 220.249 418.008 219.224 414.181 219.492C410.349 219.71 407.481 221.108 407.39 220.896C407.274 220.757 410.118 218.991 414.134 218.756C418.146 218.482 421.19 219.873 421.094 220.026Z" fill="#263238"/>
<path d="M341.716 218.954C341.743 218.998 341.188 219.379 340.16 220.035C339.651 220.373 339.01 220.756 338.243 221.162C337.484 221.58 336.623 222.066 335.63 222.521C333.681 223.508 331.263 224.476 328.547 225.46C325.815 226.392 322.762 227.279 319.512 228.013C312.999 229.449 306.975 230.017 302.62 230.173C300.442 230.255 298.678 230.261 297.46 230.212C296.242 230.171 295.57 230.125 295.57 230.074C295.57 230.023 296.243 229.973 297.459 229.925C298.673 229.885 300.429 229.8 302.592 229.651C306.92 229.363 312.89 228.717 319.352 227.292C322.576 226.565 325.606 225.705 328.327 224.815C331.03 223.875 333.447 222.965 335.409 222.046C336.407 221.624 337.279 221.176 338.051 220.795C338.83 220.427 339.487 220.083 340.015 219.784C341.085 219.209 341.69 218.91 341.716 218.954Z" fill="#263238"/>
<path d="M350.119 333.569C350.129 333.619 349.401 333.802 348.075 334.091C346.751 334.391 344.813 334.727 342.406 335.05C337.596 335.703 330.857 336.112 323.452 335.558C316.045 334.987 309.445 333.566 304.787 332.194C302.457 331.511 300.592 330.888 299.328 330.391C298.06 329.906 297.369 329.614 297.386 329.568C297.403 329.519 298.128 329.719 299.42 330.119C300.708 330.531 302.589 331.076 304.925 331.691C309.594 332.928 316.155 334.256 323.505 334.821C330.854 335.371 337.542 335.048 342.342 334.531C344.745 334.276 346.687 334.021 348.023 333.807C349.363 333.608 350.109 333.52 350.119 333.569Z" fill="#263238"/>
<path d="M241.825 312.204C241.629 312.147 243.618 304.74 246.266 295.662C248.914 286.58 251.219 279.268 251.415 279.325C251.61 279.381 249.623 286.787 246.974 295.868C244.325 304.946 242.02 312.26 241.825 312.204Z" fill="#263238"/>
<path d="M328.754 354.991C328.958 354.986 329.329 363.23 329.583 373.401C329.836 383.576 329.877 391.825 329.674 391.83C329.47 391.835 329.098 383.594 328.845 373.419C328.591 363.247 328.552 354.996 328.754 354.991Z" fill="#263238"/>
<path d="M349.068 417.653C349.105 417.854 341.901 419.341 332.983 420.976C324.06 422.611 316.801 423.774 316.764 423.573C316.727 423.373 323.929 421.885 332.851 420.249C341.768 418.616 349.031 417.453 349.068 417.653Z" fill="#455A64"/>
<path d="M381.755 504.352C381.751 504.587 377.504 504.301 372.49 505.551C367.462 506.753 363.825 508.964 363.713 508.757C363.665 508.68 364.51 508.029 366.029 507.213C367.543 506.397 369.754 505.464 372.315 504.835C374.877 504.213 377.269 504.021 378.99 504.048C380.711 504.074 381.762 504.262 381.755 504.352Z" fill="#455A64"/>
<path d="M304.213 509.907C304.165 510.124 301.542 509.583 298.289 509.738C295.034 509.866 292.469 510.632 292.402 510.421C292.324 510.253 294.875 509.138 298.258 509.002C301.638 508.843 304.275 509.733 304.213 509.907Z" fill="#455A64"/>
<path d="M286.883 333.506C286.858 333.511 286.779 333.262 286.651 332.782C286.511 332.219 286.337 331.523 286.124 330.675C285.672 328.735 285.06 326.103 284.315 322.9C282.818 316.228 280.788 307.191 278.547 297.204C276.316 287.212 274.299 278.173 272.809 271.499C272.091 268.289 271.503 265.654 271.068 263.709C270.887 262.855 270.736 262.152 270.616 261.586C270.521 261.099 270.483 260.839 270.507 260.834C270.531 260.828 270.618 261.074 270.761 261.55C270.918 262.109 271.11 262.8 271.347 263.641C271.843 265.461 272.514 268.106 273.317 271.38C274.924 277.928 277.03 287.001 279.268 297.044C281.506 307.083 283.455 316.19 284.827 322.79C285.478 326.015 286.012 328.663 286.406 330.616C286.563 331.476 286.692 332.181 286.797 332.752C286.878 333.241 286.908 333.5 286.883 333.506Z" fill="#263238"/>
<path d="M372.215 241.853C372.228 241.852 372.249 241.989 372.279 242.257C372.308 242.566 372.344 242.958 372.39 243.446C372.481 244.491 372.604 246.034 372.73 248.021C373.001 251.996 373.315 257.753 373.674 264.865C374.384 279.092 375.216 298.752 376.031 320.469C376.16 323.968 376.286 327.414 376.405 330.684L376.401 330.641C379.295 349.747 381.856 366.656 383.704 378.851C384.587 384.889 385.298 389.756 385.798 393.172C386.023 394.814 386.2 396.106 386.329 397.041C386.379 397.45 386.418 397.78 386.45 398.045C386.472 398.272 386.479 398.388 386.468 398.391C386.457 398.392 386.427 398.279 386.382 398.057C386.332 397.795 386.271 397.467 386.195 397.062C386.036 396.133 385.816 394.848 385.537 393.214C384.985 389.805 384.199 384.95 383.224 378.926C381.316 366.74 378.67 349.844 375.681 330.753L375.678 330.732L375.677 330.709C375.555 327.44 375.426 323.994 375.296 320.495C373.614 277.621 372.372 245.871 372.215 241.853Z" fill="#263238"/>
<g opacity="0.3">
<path d="M338.034 221.456C324.635 226.855 311.396 230.188 297.02 230.198C298.855 232.198 301.7 233.24 304.519 233.499C307.338 233.758 310.166 233.313 312.93 232.781C319.925 231.432 326.782 229.506 333.392 227.032C335.674 226.18 338.347 223.718 338.034 221.456Z" fill="black"/>
</g>
<g opacity="0.3">
<path d="M271.304 263.14C271.523 268.3 270.952 274.502 272.033 279.552C273.113 284.6 275.103 289.549 278.483 293.428C275.984 283.705 273.873 273.053 271.304 263.14Z" fill="black"/>
</g>
<g opacity="0.3">
<path d="M312.866 340.92L312.427 340.852C316.763 345.778 323.96 346.291 330.523 346.336C337.086 346.382 344.216 345.958 348.619 341.091C336.855 343.46 324.607 343.4 312.866 340.92Z" fill="black"/>
</g>
</svg>
