<svg width="478" height="477" viewBox="0 0 478 477" fill="none" xmlns="http://www.w3.org/2000/svg">
<path d="M261.53 465.148C266.196 465.148 269.977 460.46 269.977 454.677C269.977 448.893 266.196 444.205 261.53 444.205C256.865 444.205 253.083 448.893 253.083 454.677C253.083 460.46 256.865 465.148 261.53 465.148Z" fill="#040962"/>
<path d="M349.81 465.148C354.476 465.148 358.258 460.46 358.258 454.677C358.258 448.893 354.476 444.205 349.81 444.205C345.145 444.205 341.363 448.893 341.363 454.677C341.363 460.46 345.145 465.148 349.81 465.148Z" fill="#040962"/>
<path d="M350.83 432.01H325.626C318.612 432.01 312.927 426.325 312.927 419.312V319.332H296.722V419.312C296.722 426.325 291.037 432.01 284.023 432.01H260.512H258.044C254.233 432.01 251.144 435.101 251.144 438.911V440.366V452.749C251.144 453.601 251.834 454.292 252.686 454.292H258.97C259.822 454.292 260.512 453.601 260.512 452.749V447.266C260.512 443.455 263.603 440.366 267.413 440.366H343.928C347.739 440.366 350.828 443.456 350.828 447.266V452.749C350.828 453.601 351.519 454.292 352.371 454.292H358.655C359.507 454.292 360.197 453.601 360.197 452.749V440.366V438.911C360.197 435.099 357.107 432.01 353.296 432.01H350.83Z" fill="white"/>
<path d="M314.073 330.836H294.309C292.985 330.836 291.91 329.763 291.91 328.438V322.092C291.91 320.768 292.983 319.694 294.309 319.694H314.073C315.397 319.694 316.472 320.767 316.472 322.092V328.438C316.472 329.763 315.397 330.836 314.073 330.836Z" fill="#3C4AA0"/>
<path d="M385.462 307.714V317.899C385.462 320.433 383.413 322.482 380.879 322.482H240.291L240.428 307.714H385.462Z" fill="#111A75"/>
<path d="M417.035 136.658L385.462 307.714H348.139C348.139 307.714 358.709 304.087 360.199 280.066C360.957 267.931 359.392 250.592 352.983 225.888H354.833C362.012 225.888 367.838 220.062 367.838 212.883V122.275C367.838 120.872 367.664 119.53 367.353 118.226H401.684C411.446 118.226 418.799 127.07 417.035 136.658Z" fill="#111A75"/>
<path d="M402.479 136.658L370.906 307.714H348.139C348.139 307.714 358.709 304.087 360.199 280.066C360.957 267.931 359.392 250.592 352.983 225.888H354.833C362.012 225.888 367.838 220.062 367.838 212.883V122.275C367.838 120.872 367.664 119.53 367.353 118.226H387.127C396.889 118.226 404.242 127.07 402.479 136.658Z" fill="#B4B0FA"/>
<path d="M353.058 105.408C353.058 105.408 344.213 75.4772 344.213 43.2397C344.213 11.0021 331.676 0 318.116 0H289.298C273.513 0 260.492 12.315 259.568 28.0729C258.796 41.2449 257.623 55.8093 255.944 63.9634C252.362 81.3608 244.968 114.89 238.559 132.538C232.15 150.187 237.267 165.283 252.873 165.537C252.873 165.537 251.594 197.519 294.066 188.82C334.342 180.57 361.502 168.424 357.222 119.838C356.779 114.806 355.379 109.896 353.058 105.408Z" fill="black"/>
<path d="M274.167 36.3476C271.541 36.3476 268.904 35.9079 266.906 34.5888C264.916 33.2747 263.796 31.2502 263.572 28.5723C262.566 16.5082 272.402 8.90312 272.822 8.58515C273.095 8.37773 273.484 8.43362 273.691 8.70439C273.899 8.97764 273.845 9.3664 273.572 9.57507C273.474 9.64835 263.862 17.0982 264.808 28.4692C265.001 30.7807 265.911 32.4438 267.588 33.5517C272.948 37.0903 284.091 33.4598 284.204 33.4225C284.528 33.3132 284.882 33.4921 284.989 33.8163C285.097 34.1417 284.919 34.4932 284.595 34.6012C284.28 34.7068 279.243 36.3476 274.167 36.3476Z" fill="#101A77"/>
<path d="M315.883 32.3481C315.549 32.3481 315.273 32.0836 315.262 31.7482C315.258 31.629 314.855 19.781 313.786 15.8338C313.697 15.5021 313.892 15.1618 314.224 15.0724C314.56 14.9805 314.898 15.1792 314.985 15.5096C316.09 19.596 316.487 31.2154 316.504 31.7072C316.515 32.0501 316.247 32.337 315.904 32.3481C315.895 32.3481 315.888 32.3481 315.883 32.3481Z" fill="#101A77"/>
<path d="M364.036 111.566C313.46 138.283 275.788 127.887 262.771 122.683C264.374 121.354 266.075 120.124 267.876 119.044C275.08 114.734 285.029 108.71 291.028 104.785C295.736 101.705 297.375 96.5749 297.773 91.9296C298.232 86.5267 297.003 81.7944 297.003 81.7944H292.792C280.483 81.7944 270.509 71.8207 270.509 59.5119V31.7272H315.882L322.055 86.3652C323.272 97.1338 332.376 105.257 343.207 105.257H350.821C356.162 105.257 360.919 107.716 364.036 111.566Z" fill="#FCE8D4"/>
<path d="M314.498 258.616C323.172 263.085 337.553 282.814 360.198 280.062C360.952 267.928 359.392 250.596 352.983 225.884H354.833C362.012 225.884 367.838 220.059 367.838 212.88V122.272C367.838 118.211 366.409 114.485 364.034 111.559C313.463 138.283 275.785 127.888 262.777 122.684C259.25 125.622 256.22 129.132 253.854 133.102L222.617 185.617C220.679 188.858 217.189 190.846 213.413 190.846H210.357V220.282H218.704C223.449 220.282 227.97 218.208 231.062 214.618L266.163 173.842C266.163 173.842 274.794 203.449 264.489 250.729L264.492 250.735C264.49 250.736 304.495 253.464 314.498 258.616Z" fill="#85C1E9"/>
<path d="M224.49 450.461C224.49 450.461 222.25 453.18 218.382 456.514C221.05 458.015 224.052 460.391 226.302 464.099C226.302 464.099 233.423 456.786 243.189 456.209C242.083 453.143 240.741 450.223 239.184 448.003L239.392 424.398H220.852L224.49 450.461Z" fill="#FCE8D4"/>
<path d="M226.304 464.098C224.053 460.39 221.051 458.014 218.383 456.513C213.025 461.131 204.537 466.932 194.496 468.346C194.496 468.346 189.267 467.923 186.882 471.463C186.075 472.668 186.882 474.308 188.31 474.556C195.142 475.699 215.76 478.357 243.843 474.543C245.594 474.295 246.861 472.743 246.699 470.991C246.396 467.675 245.174 461.702 243.19 456.207C233.424 456.785 226.304 464.098 226.304 464.098Z" fill="black"/>
<path d="M201.149 286.196C186.906 290.135 195.694 334.081 195.694 334.081L195.691 334.097C195.781 334.805 202.344 386.236 200.234 390.147C198.123 394.084 194.781 402.878 204.78 409.548C204.78 409.548 200.234 426.216 216.306 424.39H220.852L220.853 424.397H239.395L240.428 307.712H269.176C251.525 299.838 212.099 283.166 201.149 286.196Z" fill="#007BFF"/>
<path d="M314.498 258.616C304.497 253.464 264.492 250.736 264.492 250.736L264.488 250.73C264.487 250.734 264.487 250.736 264.487 250.739C264.487 250.739 217.823 240.43 207.216 250.739C196.608 261.035 153.869 308.929 150.23 322.256C147.883 330.864 150.23 336.503 150.23 336.503C150.23 336.503 142.02 339.757 139.623 344.688C134.481 355.27 144.728 363.44 144.775 363.479H144.779C144.779 363.479 151.001 364.769 159.293 374.926L195.688 334.081C195.688 334.081 195.689 334.092 195.691 334.097L195.694 334.081C195.694 334.081 186.906 290.136 201.149 286.196C212.099 283.166 251.525 299.838 269.174 307.712H348.138C348.138 307.712 358.707 304.09 360.198 280.064C337.553 282.814 323.173 263.085 314.498 258.616Z" fill="#007BFF"/>
<path d="M144.778 363.479H144.774L144.776 363.48L130.841 388.632C130.841 388.632 127.948 387.908 123.655 386.674C125.259 389.971 126.8 394.194 125.988 397.12C125.988 397.12 132.198 396.319 138.756 401.232C139.54 399.479 140.339 397.528 141.138 395.301L159.294 374.926C151 364.768 144.778 363.479 144.778 363.479Z" fill="#FCE8D4"/>
<path d="M125.987 397.12C126.8 394.195 125.258 389.971 123.655 386.674C115.022 384.194 100.702 379.644 92.6716 374.708C91.5911 374.038 90.2 374.249 89.3926 375.242C89.0076 375.702 88.8213 376.261 88.8213 376.832C88.8213 377.391 89.0076 377.95 89.3802 378.41C94.1249 384.21 111.141 404.294 125.772 412.094C128.468 413.535 131.834 412.852 133.635 410.38C135.082 408.398 136.871 405.447 138.754 401.232C132.198 396.319 125.987 397.12 125.987 397.12Z" fill="black"/>
<path d="M309.908 81.7943C309.908 81.7943 303.772 91.9916 297.773 91.9295C298.233 86.5265 297.003 81.7943 297.003 81.7943H309.908Z" fill="#FFCB9C"/>
<path d="M266.167 174.467C265.91 174.467 265.669 174.305 265.579 174.048C265.51 173.847 258.785 153.768 270.017 134.948C270.194 134.651 270.575 134.558 270.869 134.733C271.164 134.908 271.26 135.29 271.085 135.585C260.156 153.897 266.687 173.448 266.754 173.644C266.866 173.968 266.693 174.322 266.369 174.434C266.303 174.455 266.234 174.467 266.167 174.467Z" fill="#85C1E9"/>
<path d="M280.551 208.321C280.247 208.321 279.98 208.096 279.938 207.786C279.89 207.447 280.126 207.133 280.468 207.085L345.363 198.072L341.457 132.576C341.436 132.233 341.696 131.939 342.04 131.919C342.379 131.894 342.676 132.16 342.696 132.501L346.636 198.571C346.656 198.895 346.422 199.179 346.101 199.223L280.637 208.315C280.61 208.319 280.581 208.321 280.551 208.321Z" fill="#85C1E9"/>
<path d="M280.553 226.337C280.339 226.337 280.142 226.228 280.028 226.048L278.646 223.854C278.464 223.564 278.551 223.181 278.84 222.999C279.131 222.817 279.515 222.902 279.696 223.192L280.894 225.095L351.379 224.913H351.38C351.721 224.913 352 225.19 352.001 225.532C352.002 225.875 351.724 226.155 351.381 226.155L280.553 226.337Z" fill="#85C1E9"/>
<path d="M289.893 62.3501C289.893 62.3501 284.291 59.9343 283.413 61.3614C282.534 62.7898 286.159 64.546 290.992 64.546C295.825 64.546 299.559 61.58 298.571 59.933C297.581 58.2861 289.893 62.3501 289.893 62.3501Z" fill="white"/>
<path d="M291.411 68.6608C289.516 68.6608 288.161 68 288.076 67.9578C287.771 67.805 287.646 67.4336 287.798 67.1256C287.951 66.8176 288.325 66.6958 288.63 66.8449C288.655 66.8585 291.277 68.118 294.142 66.8349C294.453 66.6946 294.822 66.8337 294.962 67.1467C295.102 67.4597 294.962 67.8273 294.649 67.9677C293.494 68.4869 292.382 68.6608 291.411 68.6608Z" fill="#FFCB9C"/>
<path d="M288.961 57.3159C287.735 57.3159 286.765 56.7769 286.282 56.321C286.157 56.2043 286.088 56.0403 286.088 55.8702V40.4935C286.088 37.3859 283.158 36.5997 283.128 36.5922C282.795 36.5078 282.595 36.1687 282.681 35.8371C282.765 35.5054 283.1 35.303 283.436 35.3899C284.783 35.7352 287.33 37.2468 287.33 40.4948V55.5708C287.827 55.9099 289.222 56.6104 291.024 55.3622C291.305 55.1672 291.692 55.2367 291.888 55.5174C292.083 55.7994 292.013 56.1869 291.732 56.3819C290.738 57.0688 289.79 57.3159 288.961 57.3159Z" fill="#FFCB9C"/>
<path d="M297.938 42.7279C296.491 42.7279 295.313 43.9054 295.313 45.3536C295.313 46.8006 296.491 47.9793 297.938 47.9793C299.386 47.9793 300.564 46.8019 300.564 45.3536C300.564 43.9054 299.386 42.7279 297.938 42.7279Z" fill="#040962"/>
<path d="M277.931 42.7279C276.483 42.7279 275.306 43.9054 275.306 45.3536C275.306 46.8006 276.483 47.9793 277.931 47.9793C279.378 47.9793 280.556 46.8018 280.556 45.3536C280.556 43.9054 279.378 42.7279 277.931 42.7279Z" fill="#040962"/>
<path d="M305.666 55.8404C308.009 55.8404 309.908 53.9414 309.908 51.5988C309.908 49.2562 308.009 47.3572 305.666 47.3572C303.324 47.3572 301.425 49.2562 301.425 51.5988C301.425 53.9414 303.324 55.8404 305.666 55.8404Z" fill="#FCBFAC"/>
<path d="M277.937 51.6C277.937 53.9475 276.037 55.8354 273.689 55.8354C272.423 55.8354 271.28 55.2765 270.51 54.3946V48.793C271.28 47.9111 272.423 47.3522 273.689 47.3522C276.037 47.3522 277.937 49.2525 277.937 51.6Z" fill="#FCBFAC"/>
<path d="M304.499 37.2692C304.442 37.2692 304.384 37.2618 304.326 37.2444C296.9 35.0795 294.03 37.1227 294.003 37.1425C293.728 37.345 293.34 37.2928 293.136 37.0221C292.93 36.7513 292.977 36.3675 293.246 36.1588C293.377 36.057 296.558 33.6872 304.673 36.0533C305.004 36.1489 305.192 36.4942 305.097 36.8233C305.016 37.0941 304.769 37.2692 304.499 37.2692Z" fill="#040962"/>
<path d="M272.648 37.2691C272.421 37.2691 272.202 37.1436 272.093 36.9262C271.94 36.6195 272.064 36.2468 272.371 36.0928C276.501 34.0273 281.206 35.4805 281.404 35.5438C281.731 35.6482 281.911 35.996 281.808 36.3226C281.705 36.6493 281.356 36.8319 281.029 36.7275C280.986 36.7151 276.598 35.3687 272.926 37.2032C272.835 37.2479 272.741 37.2691 272.648 37.2691Z" fill="#040962"/>
<path d="M414.993 207.346C414.977 207.346 414.961 207.349 414.945 207.349V202.958C414.945 202.382 414.478 201.916 413.903 201.916H392.689C392.113 201.916 391.646 202.383 391.646 202.958V228.905C391.646 229.48 392.113 229.947 392.689 229.947H413.903C414.478 229.947 414.945 229.48 414.945 228.905V223.481C414.961 223.481 414.977 223.483 414.993 223.483C418.711 223.483 421.735 219.862 421.735 215.413C421.735 210.966 418.712 207.346 414.993 207.346ZM414.993 221C414.977 221 414.961 220.994 414.945 220.994V209.837C414.961 209.837 414.977 209.83 414.993 209.83C417.341 209.83 419.251 212.336 419.251 215.416C419.251 218.495 417.341 221 414.993 221Z" fill="#F9FBFC"/>
<path d="M399.28 246.157H391.303L315.74 469.017H323.61L395.291 257.603L466.973 469.017H474.843L399.28 246.157Z" fill="#040962"/>
<path d="M78.7221 246.157L3.15918 469.017H11.0288L82.7103 257.603L154.392 469.017H162.262L86.6986 246.157H78.7221Z" fill="#040962"/>
<path d="M105.939 170.815L98.81 199.941L92.2644 226.732H53.9346L69.0504 182.937L73.2361 170.815H105.939Z" fill="#6161C9"/>
<path d="M108.36 170.815L100.945 201.158L94.6853 226.732H56.3555L71.0862 184.093L75.6694 170.815H108.36Z" fill="white"/>
<path d="M103.929 223.525H41.41C40.2226 223.525 39.2588 224.488 39.2588 225.677V227.798C39.2588 228.985 40.2214 229.949 41.41 229.949H103.929C105.116 229.949 106.08 228.987 106.08 227.798V225.677C106.079 224.488 105.116 223.525 103.929 223.525Z" fill="#7F7FDD"/>
<path opacity="0.28" d="M108.361 170.815L100.946 201.158L98.8095 199.941L71.0868 184.093L69.0498 182.937L73.2355 170.815H108.361Z" fill="#6161C9"/>
<path d="M171.241 179.266H31.7619C29.7448 179.266 27.7985 177.631 27.4147 175.614L10.3476 86.0261C10.1638 85.0573 10.3712 84.1282 10.9252 83.4439L11.3934 82.8651C11.9474 82.1807 12.8031 81.7957 13.7719 81.7957H153.251C155.268 81.7957 157.214 83.4302 157.598 85.4473L174.664 175.037C174.849 176.006 174.64 176.935 174.087 177.619L173.618 178.198C173.066 178.881 172.21 179.266 171.241 179.266Z" fill="#7F7FDD"/>
<path d="M171.304 176.547H33.9635C31.9464 176.547 30.0001 174.913 29.6163 172.895L12.9579 85.4461C12.5741 83.429 13.8968 81.7944 15.9139 81.7944H153.254C155.271 81.7944 157.218 83.429 157.601 85.4461L174.26 172.895C174.644 174.913 173.32 176.547 171.304 176.547Z" fill="white"/>
<path d="M169.352 173.349H34.6926C33.9759 173.349 33.2841 172.768 33.1475 172.051L16.8107 86.2907C16.6741 85.574 17.1448 84.9927 17.8615 84.9927H152.521C153.238 84.9927 153.93 85.574 154.067 86.2907L170.403 172.051C170.54 172.768 170.07 173.349 169.352 173.349Z" fill="#553F77"/>
<path d="M22.8871 93.9902H24.9377C25.5041 93.9902 25.8755 93.5306 25.7674 92.9642C25.6594 92.3979 25.1129 91.9383 24.5465 91.9383H22.4958C21.9295 91.9383 21.5581 92.3979 21.6662 92.9642C21.7742 93.5306 22.3207 93.9902 22.8871 93.9902Z" fill="#85C1E9"/>
<path d="M43.3939 93.9902H63.9015C64.4679 93.9902 64.8393 93.5306 64.7312 92.9642C64.6231 92.3979 64.0766 91.9383 63.5103 91.9383H43.0027C42.4363 91.9383 42.0649 92.3979 42.173 92.9642C42.2811 93.5306 42.8276 93.9902 43.3939 93.9902Z" fill="#362656"/>
<path d="M68.0033 93.9902H70.0539C70.6203 93.9902 70.9917 93.5306 70.8836 92.9642C70.7756 92.3979 70.2291 91.9383 69.6627 91.9383H67.6121C67.0457 91.9383 66.6743 92.3979 66.7824 92.9642C66.8904 93.5306 67.4369 93.9902 68.0033 93.9902Z" fill="#7859B5"/>
<path d="M88.5111 93.9902H95.2368C95.8032 93.9902 96.1746 93.5306 96.0665 92.9642C95.9585 92.3979 95.412 91.9383 94.8456 91.9383H88.1199C87.5535 91.9383 87.1821 92.3979 87.2902 92.9642C87.3982 93.5306 87.9447 93.9902 88.5111 93.9902Z" fill="#7859B5"/>
<path d="M74.1554 93.9902H84.4098C84.9762 93.9902 85.3475 93.5306 85.2395 92.9642C85.1314 92.3979 84.5849 91.9383 84.0185 91.9383H73.7654C73.199 91.9383 72.8276 92.3979 72.9357 92.9642C73.0425 93.5306 73.589 93.9902 74.1554 93.9902Z" fill="#735F99"/>
<path d="M29.0394 93.9902H39.2926C39.859 93.9902 40.2304 93.5306 40.1223 92.9642C40.0142 92.3979 39.4677 91.9383 38.9014 91.9383H28.6482C28.0818 91.9383 27.7104 92.3979 27.8185 92.9642C27.9266 93.5306 28.4731 93.9902 29.0394 93.9902Z" fill="#735F99"/>
<path d="M54.6204 99.095C54.5124 98.5286 53.9659 98.0691 53.3995 98.0691H30.8425C30.2762 98.0691 29.9048 98.5286 30.0128 99.095C30.1209 99.6614 30.6674 100.121 31.2338 100.121H53.792C54.3571 100.121 54.7285 99.6614 54.6204 99.095Z" fill="#735F99"/>
<path d="M26.7401 98.0703H23.6648C23.0984 98.0703 22.727 98.5299 22.8351 99.0963C22.9432 99.6627 23.4897 100.122 24.056 100.122H27.1326C27.699 100.122 28.0704 99.6627 27.9623 99.0963C27.853 98.5287 27.3065 98.0703 26.7401 98.0703Z" fill="#85C1E9"/>
<path d="M78.0093 98.0703H57.5017C56.9353 98.0703 56.564 98.5299 56.672 99.0963C56.7801 99.6627 57.3266 100.122 57.893 100.122H78.4005C78.9669 100.122 79.3383 99.6627 79.2302 99.0963C79.1222 98.5287 78.5744 98.0703 78.0093 98.0703Z" fill="#735F99"/>
<path d="M85.5769 100.121C86.1433 100.121 86.5147 99.6614 86.4066 99.095C86.2986 98.5286 85.7521 98.0691 85.1857 98.0691H82.1091C81.5428 98.0691 81.1714 98.5286 81.2794 99.095C81.3875 99.6614 81.934 100.121 82.5004 100.121H85.5769Z" fill="#7859B5"/>
<path d="M96.0146 98.0703H89.2888C88.7224 98.0703 88.3511 98.5299 88.4591 99.0963C88.5672 99.6627 89.1137 100.122 89.6801 100.122H96.4058C96.9722 100.122 97.3436 99.6627 97.2355 99.0963C97.1274 98.5287 96.5809 98.0703 96.0146 98.0703Z" fill="#735F99"/>
<path d="M72.3909 106.252C72.9572 106.252 73.3286 105.792 73.2206 105.226C73.1125 104.659 72.566 104.2 71.9996 104.2H69.949C69.3826 104.2 69.0112 104.659 69.1193 105.226C69.2273 105.792 69.7738 106.252 70.3402 106.252H72.3909Z" fill="#7859B5"/>
<path d="M25.223 106.252H27.2737C27.84 106.252 28.2114 105.792 28.1034 105.226C27.9953 104.659 27.4488 104.2 26.8824 104.2H24.8318C24.2654 104.2 23.894 104.659 24.0021 105.226C24.1102 105.793 24.6567 106.252 25.223 106.252Z" fill="#FFEE4D"/>
<path d="M75.2707 105.227C75.3787 105.793 75.9252 106.253 76.4916 106.253H86.7448C87.3111 106.253 87.6825 105.793 87.5745 105.227C87.4664 104.661 86.9199 104.201 86.3535 104.201H76.0991C75.534 104.201 75.1626 104.661 75.2707 105.227Z" fill="#85C1E9"/>
<path d="M31.3754 106.252H41.6285C42.1949 106.252 42.5663 105.792 42.4582 105.226C42.3502 104.659 41.8037 104.2 41.2373 104.2H30.9841C30.4178 104.2 30.0464 104.659 30.1544 105.226C30.2625 105.793 30.809 106.252 31.3754 106.252Z" fill="#85C1E9"/>
<path d="M97.1815 104.201H90.4558C89.8894 104.201 89.5181 104.661 89.6261 105.227C89.7342 105.793 90.2807 106.253 90.8471 106.253H97.5728C98.1392 106.253 98.5105 105.793 98.4025 105.227C98.2944 104.661 97.7479 104.201 97.1815 104.201Z" fill="#85C1E9"/>
<path d="M45.7308 106.252H66.2384C66.8048 106.252 67.1762 105.792 67.0681 105.226C66.96 104.659 66.4136 104.2 65.8472 104.2H45.3396C44.7732 104.2 44.4018 104.659 44.5099 105.226C44.618 105.793 45.1645 106.252 45.7308 106.252Z" fill="#7859B5"/>
<path d="M98.3505 110.333H91.6248C91.0584 110.333 90.687 110.793 90.7951 111.359C90.9031 111.925 91.4496 112.385 92.016 112.385H98.7417C99.3081 112.385 99.6795 111.925 99.5714 111.359C99.4621 110.791 98.9156 110.333 98.3505 110.333Z" fill="#735F99"/>
<path d="M87.5226 110.333H84.446C83.8797 110.333 83.5083 110.793 83.6164 111.359C83.7244 111.925 84.2709 112.385 84.8373 112.385H87.9139C88.4802 112.385 88.8516 111.925 88.7436 111.359C88.6355 110.791 88.089 110.333 87.5226 110.333Z" fill="#362656"/>
<path d="M81.5662 111.358C81.4581 110.791 80.9116 110.332 80.3452 110.332H59.8376C59.2713 110.332 58.8999 110.791 59.008 111.358C59.116 111.924 59.6625 112.384 60.2289 112.384H80.7365C81.3028 112.384 81.6742 111.924 81.5662 111.358Z" fill="#735F99"/>
<path d="M32.3468 111.358C32.4549 111.924 33.0014 112.384 33.5678 112.384H56.126C56.6923 112.384 57.0637 111.924 56.9557 111.358C56.8476 110.791 56.3011 110.332 55.7347 110.332H33.1765C32.6101 110.333 32.2388 110.791 32.3468 111.358Z" fill="#735F99"/>
<path d="M29.0763 110.333H25.9998C25.4334 110.333 25.062 110.793 25.1701 111.359C25.2781 111.925 25.8246 112.385 26.391 112.385H29.4676C30.034 112.385 30.4053 111.925 30.2973 111.359C30.1892 110.791 29.6427 110.333 29.0763 110.333Z" fill="#85C1E9"/>
<path d="M99.5188 116.464H96.8943C96.3279 116.464 95.9565 116.923 96.0646 117.49C96.1727 118.056 96.7192 118.516 97.2855 118.516H99.91C100.476 118.516 100.848 118.056 100.74 117.49C100.632 116.923 100.085 116.464 99.5188 116.464Z" fill="#85C1E9"/>
<path d="M77.6073 117.49C77.4992 116.923 76.9527 116.464 76.3863 116.464H74.3357C73.7693 116.464 73.3979 116.923 73.506 117.49C73.6141 118.056 74.1606 118.516 74.7269 118.516H76.7776C77.3427 118.515 77.7153 118.056 77.6073 117.49Z" fill="#85C1E9"/>
<path d="M70.2339 116.464H49.7263C49.1599 116.464 48.7886 116.923 48.8966 117.49C49.0047 118.056 49.5512 118.516 50.1176 118.516H70.6251C71.1915 118.516 71.5629 118.056 71.4548 117.49C71.3468 116.923 70.8003 116.464 70.2339 116.464Z" fill="#735F99"/>
<path d="M94.0128 117.49C93.9047 116.923 93.3582 116.464 92.7918 116.464H80.488C79.9217 116.464 79.5503 116.923 79.6583 117.49C79.7664 118.056 80.3129 118.516 80.8793 118.516H93.1831C93.7495 118.515 94.1208 118.056 94.0128 117.49Z" fill="#735F99"/>
<path d="M33.7111 118.515H46.0161C46.5825 118.515 46.9538 118.055 46.8458 117.489C46.7377 116.922 46.1912 116.463 45.6248 116.463H33.321C32.7547 116.463 32.3833 116.922 32.4914 117.489C32.5982 118.056 33.1447 118.515 33.7111 118.515Z" fill="#7859B5"/>
<path d="M27.558 118.515H29.6086C30.175 118.515 30.5464 118.055 30.4383 117.489C30.3303 116.922 29.7838 116.463 29.2174 116.463H27.1667C26.6004 116.463 26.229 116.922 26.3371 117.489C26.4464 118.056 26.9929 118.515 27.558 118.515Z" fill="#85C1E9"/>
<path d="M28.7269 124.647H30.7776C31.344 124.647 31.7153 124.187 31.6073 123.621C31.4992 123.054 30.9527 122.595 30.3863 122.595H28.3357C27.7693 122.595 27.3979 123.054 27.506 123.621C27.6141 124.187 28.1606 124.647 28.7269 124.647Z" fill="#FFEE4D"/>
<path d="M34.879 124.647H45.1334C45.6998 124.647 46.0712 124.187 45.9631 123.621C45.8551 123.054 45.3086 122.595 44.7422 122.595H34.489C33.9226 122.595 33.5513 123.054 33.6593 123.621C33.7661 124.187 34.3126 124.647 34.879 124.647Z" fill="#362656"/>
<path d="M89.8594 122.596H79.6062C79.0398 122.596 78.6684 123.056 78.7765 123.622C78.8846 124.188 79.4311 124.648 79.9975 124.648H90.2506C90.817 124.648 91.1884 124.188 91.0803 123.622C90.9722 123.054 90.4257 122.596 89.8594 122.596Z" fill="#735F99"/>
<path d="M100.685 122.596H93.9597C93.3933 122.596 93.022 123.056 93.13 123.622C93.2381 124.188 93.7846 124.648 94.351 124.648H101.077C101.643 124.648 102.014 124.188 101.906 123.622C101.798 123.054 101.252 122.596 100.685 122.596Z" fill="#735F99"/>
<path d="M73.8441 124.647H75.8948C76.4611 124.647 76.8325 124.187 76.7245 123.621C76.6164 123.054 76.0699 122.595 75.5035 122.595H73.4529C72.8865 122.595 72.5151 123.054 72.6232 123.621C72.7312 124.187 73.2778 124.647 73.8441 124.647Z" fill="#85C1E9"/>
<path d="M49.2348 124.647H69.7423C70.3087 124.647 70.6801 124.187 70.572 123.621C70.464 123.054 69.9175 122.595 69.3511 122.595H48.8435C48.2771 122.595 47.9058 123.054 48.0138 123.621C48.1219 124.187 48.6684 124.647 49.2348 124.647Z" fill="#735F99"/>
<path d="M35.8517 129.751C35.9597 130.318 36.5062 130.777 37.0726 130.777H59.6308C60.1972 130.777 60.5686 130.318 60.4605 129.751C60.3524 129.185 59.8059 128.726 59.2396 128.726H36.6814C36.1162 128.727 35.7436 129.186 35.8517 129.751Z" fill="#735F99"/>
<path d="M32.5793 128.727H29.5027C28.9363 128.727 28.5649 129.186 28.673 129.753C28.7811 130.319 29.3276 130.779 29.8939 130.779H32.9705C33.5369 130.779 33.9083 130.319 33.8002 129.753C33.6921 129.186 33.1456 128.727 32.5793 128.727Z" fill="#85C1E9"/>
<path d="M85.0691 129.751C84.961 129.185 84.4145 128.726 83.8482 128.726H63.3406C62.7742 128.726 62.4028 129.185 62.5109 129.751C62.6189 130.318 63.1654 130.777 63.7318 130.777H84.2394C84.8058 130.777 85.1772 130.318 85.0691 129.751Z" fill="#735F99"/>
<path d="M91.4178 130.777C91.9841 130.777 92.3555 130.318 92.2475 129.751C92.1394 129.185 91.5929 128.726 91.0265 128.726H87.9499C87.3836 128.726 87.0122 129.185 87.1203 129.751C87.2283 130.318 87.7748 130.777 88.3412 130.777H91.4178Z" fill="#362656"/>
<path d="M101.853 128.727H95.1277C94.5613 128.727 94.1899 129.186 94.298 129.753C94.4061 130.319 94.9526 130.779 95.5189 130.779H102.245C102.811 130.779 103.182 130.319 103.074 129.753C102.966 129.186 102.419 128.727 101.853 128.727Z" fill="#735F99"/>
<path d="M79.0604 135.883C78.9523 135.317 78.4058 134.858 77.8395 134.858H75.7888C75.2224 134.858 74.8511 135.317 74.9591 135.883C75.0672 136.45 75.6137 136.909 76.1801 136.909H78.2307C78.7958 136.909 79.1685 136.45 79.0604 135.883Z" fill="#7859B5"/>
<path d="M103.022 134.859H96.2966C95.7303 134.859 95.3589 135.318 95.4669 135.885C95.575 136.451 96.1215 136.911 96.6879 136.911H103.414C103.98 136.911 104.351 136.451 104.243 135.885C104.135 135.317 103.589 134.859 103.022 134.859Z" fill="#362656"/>
<path d="M51.5695 136.909H72.077C72.6434 136.909 73.0148 136.45 72.9067 135.883C72.7987 135.317 72.2522 134.858 71.6858 134.858H51.1794C50.6131 134.858 50.2417 135.317 50.3498 135.883C50.4578 136.45 51.0043 136.909 51.5695 136.909Z" fill="#85C1E9"/>
<path d="M37.2159 136.909H47.4703C48.0367 136.909 48.4081 136.45 48.3 135.883C48.192 135.317 47.6455 134.858 47.0791 134.858H36.8259C36.2595 134.858 35.8882 135.317 35.9962 135.883C36.1031 136.45 36.6496 136.909 37.2159 136.909Z" fill="#735F99"/>
<path d="M31.0639 136.909H33.1145C33.6809 136.909 34.0522 136.45 33.9442 135.883C33.8361 135.317 33.2896 134.858 32.7232 134.858H30.6726C30.1062 134.858 29.7349 135.317 29.8429 135.883C29.951 136.45 30.4975 136.909 31.0639 136.909Z" fill="#FFEE4D"/>
<path d="M82.3324 136.909H92.5856C93.152 136.909 93.5233 136.45 93.4153 135.883C93.3072 135.317 92.7607 134.858 92.1943 134.858H81.9412C81.3748 134.858 81.0034 135.317 81.1115 135.883C81.2195 136.45 81.766 136.909 82.3324 136.909Z" fill="#7859B5"/>
<path d="M50.6873 143.04C51.2536 143.04 51.625 142.581 51.5169 142.014C51.4089 141.448 50.8624 140.988 50.296 140.988H37.991C37.4246 140.988 37.0532 141.448 37.1613 142.014C37.2693 142.581 37.8158 143.04 38.3822 143.04H50.6873Z" fill="#7859B5"/>
<path d="M104.19 140.99H101.565C100.999 140.99 100.627 141.449 100.735 142.015C100.844 142.582 101.39 143.041 101.956 143.041H104.581C105.147 143.041 105.519 142.582 105.411 142.015C105.303 141.449 104.756 140.99 104.19 140.99Z" fill="#7859B5"/>
<path d="M79.3978 143.04H81.4485C82.0149 143.04 82.3862 142.581 82.2782 142.014C82.1701 141.448 81.6236 140.988 81.0572 140.988H79.0066C78.4402 140.988 78.0688 141.448 78.1769 142.014C78.285 142.581 78.8315 143.04 79.3978 143.04Z" fill="#85C1E9"/>
<path d="M54.7885 143.04H75.296C75.8624 143.04 76.2338 142.581 76.1257 142.014C76.0177 141.448 75.4712 140.988 74.9048 140.988H54.3972C53.8308 140.988 53.4595 141.448 53.5675 142.014C53.6756 142.581 54.2221 143.04 54.7885 143.04Z" fill="#735F99"/>
<path d="M32.2318 143.04H34.2825C34.8488 143.04 35.2202 142.581 35.1122 142.014C35.0041 141.448 34.4576 140.988 33.8912 140.988H31.8406C31.2742 140.988 30.9028 141.448 31.0109 142.014C31.1189 142.581 31.6654 143.04 32.2318 143.04Z" fill="#85C1E9"/>
<path d="M85.5502 143.04H97.8552C98.4216 143.04 98.793 142.581 98.6849 142.014C98.5769 141.448 98.0304 140.988 97.464 140.988H85.1589C84.5926 140.988 84.2212 141.448 84.3292 142.014C84.4373 142.581 84.9838 143.04 85.5502 143.04Z" fill="#735F99"/>
<path d="M105.358 147.12H98.6326C98.0662 147.12 97.6948 147.58 97.8029 148.146C97.9109 148.713 98.4574 149.172 99.0238 149.172H105.75C106.316 149.172 106.687 148.713 106.579 148.146C106.471 147.58 105.925 147.12 105.358 147.12Z" fill="#7859B5"/>
<path d="M94.5295 147.12H91.4529C90.8865 147.12 90.5151 147.58 90.6232 148.146C90.7312 148.713 91.2778 149.172 91.8441 149.172H94.9207C95.4871 149.172 95.8585 148.713 95.7504 148.146C95.6423 147.58 95.0958 147.12 94.5295 147.12Z" fill="#85C1E9"/>
<path d="M62.7445 147.12H40.1863C39.6199 147.12 39.2485 147.58 39.3566 148.146C39.4646 148.713 40.0112 149.172 40.5775 149.172H63.1357C63.7021 149.172 64.0735 148.713 63.9654 148.146C63.8561 147.58 63.3096 147.12 62.7445 147.12Z" fill="#362656"/>
<path d="M87.353 147.12H66.8455C66.2791 147.12 65.9077 147.58 66.0158 148.146C66.1238 148.713 66.6703 149.172 67.2367 149.172H87.7443C88.3107 149.172 88.682 148.713 88.574 148.146C88.4659 147.58 87.9182 147.12 87.353 147.12Z" fill="#735F99"/>
<path d="M113.497 93.9902H134.005C134.571 93.9902 134.943 93.5306 134.835 92.9642C134.727 92.3979 134.18 91.9383 133.614 91.9383H113.106C112.54 91.9383 112.168 92.3979 112.277 92.9642C112.385 93.5306 112.931 93.9902 113.497 93.9902Z" fill="#362656"/>
<path d="M138.106 93.9902H140.156C140.723 93.9902 141.094 93.5306 140.986 92.9642C140.878 92.3979 140.332 91.9383 139.765 91.9383H137.715C137.148 91.9383 136.777 92.3979 136.885 92.9642C136.993 93.5306 137.539 93.9902 138.106 93.9902Z" fill="#7859B5"/>
<path d="M144.258 93.9902H150.27C150.836 93.9902 151.207 93.5306 151.099 92.9642C150.991 92.3979 150.445 91.9383 149.878 91.9383H143.867C143.301 91.9383 142.929 92.3979 143.037 92.9642C143.145 93.5306 143.692 93.9902 144.258 93.9902Z" fill="#735F99"/>
<path d="M99.142 93.9902H109.395C109.962 93.9902 110.333 93.5306 110.225 92.9642C110.117 92.3979 109.57 91.9383 109.004 91.9383H98.7507C98.1844 91.9383 97.813 92.3979 97.921 92.9642C98.0291 93.5306 98.5756 93.9902 99.142 93.9902Z" fill="#735F99"/>
<path d="M123.536 99.095C123.428 98.5286 122.881 98.0691 122.315 98.0691H99.7566C99.1902 98.0691 98.8188 98.5286 98.9269 99.095C99.035 99.6614 99.5814 100.121 100.148 100.121H122.706C123.271 100.121 123.643 99.6614 123.536 99.095Z" fill="#735F99"/>
<path d="M151.047 98.0703H126.416C125.849 98.0703 125.478 98.5299 125.586 99.0963C125.694 99.6627 126.241 100.122 126.807 100.122H151.438C152.005 100.122 152.376 99.6627 152.268 99.0963C152.16 98.5287 151.613 98.0703 151.047 98.0703Z" fill="#735F99"/>
<path d="M142.493 106.252C143.06 106.252 143.431 105.792 143.323 105.226C143.215 104.659 142.669 104.2 142.102 104.2H140.052C139.485 104.2 139.114 104.659 139.222 105.226C139.33 105.792 139.876 106.252 140.443 106.252H142.493Z" fill="#7859B5"/>
<path d="M145.373 105.227C145.481 105.793 146.028 106.253 146.594 106.253H152.093C152.659 106.253 153.03 105.793 152.922 105.227C152.814 104.661 152.268 104.201 151.701 104.201H146.203C145.638 104.201 145.265 104.661 145.373 105.227Z" fill="#85C1E9"/>
<path d="M101.479 106.252H111.732C112.298 106.252 112.67 105.792 112.562 105.226C112.454 104.659 111.907 104.2 111.341 104.2H101.088C100.521 104.2 100.15 104.659 100.258 105.226C100.366 105.793 100.913 106.252 101.479 106.252Z" fill="#85C1E9"/>
<path d="M115.833 106.252H136.341C136.907 106.252 137.279 105.792 137.171 105.226C137.063 104.659 136.516 104.2 135.95 104.2H115.442C114.876 104.2 114.504 104.659 114.612 105.226C114.721 105.793 115.267 106.252 115.833 106.252Z" fill="#7859B5"/>
<path d="M154.231 111.358C154.123 110.791 153.577 110.332 153.01 110.332H129.939C129.373 110.332 129.001 110.791 129.11 111.358C129.218 111.924 129.764 112.384 130.33 112.384H153.402C153.968 112.384 154.339 111.924 154.231 111.358Z" fill="#735F99"/>
<path d="M102.452 111.358C102.56 111.924 103.107 112.384 103.673 112.384H126.231C126.798 112.384 127.169 111.924 127.061 111.358C126.953 110.791 126.407 110.332 125.84 110.332H103.282C102.716 110.333 102.344 110.791 102.452 111.358Z" fill="#735F99"/>
<path d="M147.71 117.49C147.602 116.923 147.055 116.464 146.489 116.464H144.438C143.872 116.464 143.5 116.923 143.609 117.49C143.717 118.056 144.263 118.516 144.829 118.516H146.88C147.446 118.515 147.818 118.056 147.71 117.49Z" fill="#85C1E9"/>
<path d="M140.337 116.464H119.83C119.263 116.464 118.892 116.923 119 117.49C119.108 118.056 119.655 118.516 120.221 118.516H140.729C141.295 118.516 141.666 118.056 141.558 117.49C141.45 116.923 140.904 116.464 140.337 116.464Z" fill="#735F99"/>
<path d="M155.912 117.49C155.804 116.923 155.257 116.464 154.691 116.464H150.59C150.023 116.464 149.652 116.923 149.76 117.49C149.868 118.056 150.414 118.516 150.981 118.516H155.082C155.648 118.515 156.02 118.056 155.912 117.49Z" fill="#735F99"/>
<path d="M103.815 118.515H116.119C116.685 118.515 117.057 118.055 116.949 117.489C116.841 116.922 116.294 116.463 115.728 116.463H103.423C102.856 116.463 102.485 116.922 102.593 117.489C102.702 118.056 103.249 118.515 103.815 118.515Z" fill="#7859B5"/>
<path d="M104.982 124.647H115.236C115.802 124.647 116.174 124.187 116.066 123.621C115.958 123.054 115.411 122.595 114.845 122.595H104.592C104.025 122.595 103.654 123.054 103.762 123.621C103.869 124.187 104.415 124.647 104.982 124.647Z" fill="#362656"/>
<path d="M155.043 122.596H149.707C149.14 122.596 148.769 123.056 148.877 123.622C148.985 124.188 149.532 124.648 150.098 124.648H155.434C156 124.648 156.372 124.188 156.264 123.622C156.156 123.054 155.609 122.596 155.043 122.596Z" fill="#735F99"/>
<path d="M143.947 124.647H145.997C146.564 124.647 146.935 124.187 146.827 123.621C146.719 123.054 146.172 122.595 145.606 122.595H143.555C142.989 122.595 142.618 123.054 142.726 123.621C142.834 124.187 143.38 124.647 143.947 124.647Z" fill="#85C1E9"/>
<path d="M119.338 124.647H139.846C140.412 124.647 140.784 124.187 140.676 123.621C140.567 123.054 140.021 122.595 139.455 122.595H118.947C118.381 122.595 118.009 123.054 118.117 123.621C118.225 124.187 118.772 124.647 119.338 124.647Z" fill="#735F99"/>
<path d="M105.955 129.751C106.063 130.318 106.609 130.777 107.176 130.777H129.734C130.3 130.777 130.672 130.318 130.564 129.751C130.456 129.185 129.909 128.726 129.343 128.726H106.785C106.219 128.727 105.848 129.186 105.955 129.751Z" fill="#735F99"/>
<path d="M158.249 129.751C158.141 129.185 157.594 128.726 157.028 128.726H133.445C132.879 128.726 132.507 129.185 132.615 129.751C132.723 130.318 133.27 130.777 133.836 130.777H157.419C157.986 130.777 158.357 130.318 158.249 129.751Z" fill="#735F99"/>
<path d="M149.163 135.883C149.055 135.317 148.508 134.858 147.942 134.858H145.891C145.325 134.858 144.954 135.317 145.062 135.883C145.17 136.45 145.716 136.909 146.283 136.909H148.333C148.9 136.909 149.271 136.45 149.163 135.883Z" fill="#7859B5"/>
<path d="M121.674 136.909H142.182C142.748 136.909 143.12 136.45 143.011 135.883C142.903 135.317 142.357 134.858 141.791 134.858H121.283C120.717 134.858 120.345 135.317 120.453 135.883C120.561 136.45 121.108 136.909 121.674 136.909Z" fill="#85C1E9"/>
<path d="M107.318 136.909H117.571C118.137 136.909 118.509 136.45 118.401 135.883C118.293 135.317 117.746 134.858 117.18 134.858H106.927C106.36 134.858 105.989 135.317 106.097 135.883C106.205 136.45 106.751 136.909 107.318 136.909Z" fill="#735F99"/>
<path d="M152.434 136.909H158.586C159.152 136.909 159.524 136.45 159.416 135.883C159.307 135.317 158.761 134.858 158.195 134.858H152.043C151.476 134.858 151.105 135.317 151.213 135.883C151.321 136.45 151.868 136.909 152.434 136.909Z" fill="#7859B5"/>
<path d="M120.791 143.04C121.357 143.04 121.729 142.581 121.62 142.014C121.512 141.448 120.966 140.988 120.4 140.988H108.094C107.528 140.988 107.157 141.448 107.265 142.014C107.373 142.581 107.919 143.04 108.486 143.04H120.791Z" fill="#7859B5"/>
<path d="M149.501 143.04H151.552C152.118 143.04 152.49 142.581 152.382 142.014C152.274 141.448 151.727 140.988 151.161 140.988H149.11C148.544 140.988 148.172 141.448 148.28 142.014C148.388 142.581 148.935 143.04 149.501 143.04Z" fill="#85C1E9"/>
<path d="M124.892 143.04H145.4C145.966 143.04 146.337 142.581 146.229 142.014C146.121 141.448 145.575 140.988 145.008 140.988H124.501C123.934 140.988 123.563 141.448 123.671 142.014C123.779 142.581 124.326 143.04 124.892 143.04Z" fill="#735F99"/>
<path d="M155.652 143.04H160.126C160.693 143.04 161.064 142.581 160.956 142.014C160.848 141.448 160.301 140.988 159.735 140.988H155.262C154.696 140.988 154.325 141.448 154.433 142.014C154.541 142.581 155.087 143.04 155.652 143.04Z" fill="#735F99"/>
<path d="M161.045 147.12H160.369C159.803 147.12 159.431 147.58 159.539 148.146C159.647 148.713 160.194 149.172 160.76 149.172H161.436C162.002 149.172 162.374 148.713 162.266 148.146C162.157 147.58 161.611 147.12 161.045 147.12Z" fill="#85C1E9"/>
<path d="M132.847 147.12H110.289C109.722 147.12 109.351 147.58 109.459 148.146C109.567 148.713 110.114 149.172 110.68 149.172H133.238C133.805 149.172 134.176 148.713 134.068 148.146C133.96 147.58 133.413 147.12 132.847 147.12Z" fill="#362656"/>
<path d="M157.457 147.12H136.949C136.383 147.12 136.011 147.58 136.119 148.146C136.227 148.713 136.774 149.172 137.34 149.172H157.848C158.414 149.172 158.786 148.713 158.677 148.146C158.569 147.58 158.023 147.12 157.457 147.12Z" fill="#735F99"/>
<path d="M36.0841 147.12H33.0076C32.4412 147.12 32.0698 147.58 32.1779 148.146C32.2859 148.713 32.8324 149.172 33.3988 149.172H36.4754C37.0418 149.172 37.4131 148.713 37.3051 148.146C37.197 147.58 36.6505 147.12 36.0841 147.12Z" fill="#85C1E9"/>
<path d="M34.3451 154.14H36.3957C36.9621 154.14 37.3335 153.681 37.2254 153.114C37.1174 152.548 36.5709 152.089 36.0045 152.089H33.9539C33.3875 152.089 33.0161 152.548 33.1242 153.114C33.2322 153.681 33.78 154.14 34.3451 154.14Z" fill="#85C1E9"/>
<path d="M54.8519 154.14H75.3595C75.9259 154.14 76.2973 153.681 76.1892 153.114C76.0811 152.548 75.5346 152.089 74.9683 152.089H54.4607C53.8943 152.089 53.5229 152.548 53.631 153.114C53.7391 153.681 54.2856 154.14 54.8519 154.14Z" fill="#362656"/>
<path d="M79.4613 154.14H81.512C82.0783 154.14 82.4497 153.681 82.3416 153.114C82.2336 152.548 81.6871 152.089 81.1207 152.089H79.0701C78.5037 152.089 78.1323 152.548 78.2404 153.114C78.3484 153.681 78.8949 154.14 79.4613 154.14Z" fill="#7859B5"/>
<path d="M99.9691 154.14H106.695C107.261 154.14 107.633 153.681 107.525 153.114C107.417 152.548 106.87 152.089 106.304 152.089H99.5779C99.0115 152.089 98.6401 152.548 98.7482 153.114C98.8562 153.681 99.4028 154.14 99.9691 154.14Z" fill="#7859B5"/>
<path d="M85.6146 154.14H95.8678C96.4342 154.14 96.8055 153.681 96.6975 153.114C96.5894 152.548 96.0429 152.089 95.4766 152.089H85.2234C84.657 152.089 84.2856 152.548 84.3937 153.114C84.5018 153.681 85.0483 154.14 85.6146 154.14Z" fill="#735F99"/>
<path d="M40.4982 154.14H50.7526C51.319 154.14 51.6903 153.681 51.5823 153.114C51.4742 152.548 50.9277 152.089 50.3613 152.089H40.1082C39.5418 152.089 39.1704 152.548 39.2785 153.114C39.3853 153.681 39.9318 154.14 40.4982 154.14Z" fill="#735F99"/>
<path d="M66.0797 159.247C65.9716 158.68 65.4251 158.221 64.8587 158.221H42.3005C41.7342 158.221 41.3628 158.68 41.4708 159.247C41.5789 159.813 42.1254 160.272 42.6918 160.272H65.25C65.8151 160.271 66.1877 159.813 66.0797 159.247Z" fill="#735F99"/>
<path d="M38.1994 158.221H35.1228C34.5564 158.221 34.1851 158.68 34.2931 159.247C34.4012 159.813 34.9477 160.272 35.5141 160.272H38.5906C39.157 160.272 39.5284 159.813 39.4203 159.247C39.3123 158.68 38.7658 158.221 38.1994 158.221Z" fill="#85C1E9"/>
<path d="M89.4673 158.221H68.9597C68.3933 158.221 68.022 158.68 68.13 159.247C68.2381 159.813 68.7846 160.272 69.351 160.272H89.8585C90.4249 160.272 90.7963 159.813 90.6882 159.247C90.5802 158.68 90.0337 158.221 89.4673 158.221Z" fill="#735F99"/>
<path d="M97.0359 160.271C97.6023 160.271 97.9737 159.812 97.8656 159.245C97.7576 158.679 97.211 158.219 96.6447 158.219H93.5681C93.0017 158.219 92.6304 158.679 92.7384 159.245C92.8465 159.812 93.393 160.271 93.9594 160.271H97.0359Z" fill="#7859B5"/>
<path d="M107.473 158.221H100.747C100.18 158.221 99.8091 158.68 99.9171 159.247C100.025 159.813 100.572 160.272 101.138 160.272H107.864C108.43 160.272 108.802 159.813 108.693 159.247C108.585 158.68 108.039 158.221 107.473 158.221Z" fill="#735F99"/>
<path d="M83.8489 166.403C84.4152 166.403 84.7866 165.944 84.6786 165.377C84.5705 164.811 84.024 164.351 83.4576 164.351H81.407C80.8406 164.351 80.4692 164.811 80.5773 165.377C80.6853 165.944 81.2319 166.403 81.7982 166.403H83.8489Z" fill="#7859B5"/>
<path d="M36.681 166.403H38.7317C39.2981 166.403 39.6694 165.944 39.5614 165.377C39.4533 164.811 38.9068 164.351 38.3404 164.351H36.2898C35.7234 164.351 35.352 164.811 35.4601 165.377C35.5682 165.944 36.1147 166.403 36.681 166.403Z" fill="#FFEE4D"/>
<path d="M86.7283 165.377C86.8363 165.944 87.3828 166.403 87.9492 166.403H98.2024C98.7688 166.403 99.1401 165.944 99.0321 165.377C98.924 164.811 98.3775 164.351 97.8111 164.351H87.558C86.9928 164.351 86.6215 164.811 86.7283 165.377Z" fill="#85C1E9"/>
<path d="M42.8331 166.403H53.0875C53.6539 166.403 54.0253 165.944 53.9172 165.377C53.8092 164.811 53.2627 164.351 52.6963 164.351H42.4431C41.8767 164.351 41.5054 164.811 41.6134 165.377C41.7202 165.944 42.2667 166.403 42.8331 166.403Z" fill="#85C1E9"/>
<path d="M108.641 164.351H101.915C101.348 164.351 100.977 164.811 101.085 165.377C101.193 165.944 101.74 166.403 102.306 166.403H109.032C109.598 166.403 109.97 165.944 109.861 165.377C109.752 164.811 109.206 164.351 108.641 164.351Z" fill="#85C1E9"/>
<path d="M57.1889 166.403H77.6964C78.2628 166.403 78.6342 165.944 78.5261 165.377C78.4181 164.811 77.8716 164.351 77.3052 164.351H56.7976C56.2312 164.351 55.8599 164.811 55.9679 165.377C56.076 165.944 56.6225 166.403 57.1889 166.403Z" fill="#7859B5"/>
<path d="M124.956 154.14H145.464C146.03 154.14 146.402 153.681 146.294 153.114C146.186 152.548 145.639 152.089 145.073 152.089H124.565C123.999 152.089 123.627 152.548 123.735 153.114C123.844 153.681 124.39 154.14 124.956 154.14Z" fill="#362656"/>
<path d="M149.565 154.14H151.615C152.182 154.14 152.553 153.681 152.445 153.114C152.337 152.548 151.791 152.089 151.224 152.089H149.174C148.607 152.089 148.236 152.548 148.344 153.114C148.452 153.681 148.998 154.14 149.565 154.14Z" fill="#7859B5"/>
<path d="M155.717 154.14H162.382C162.948 154.14 163.32 153.681 163.212 153.114C163.104 152.548 162.557 152.089 161.991 152.089H155.326C154.76 152.089 154.388 152.548 154.496 153.114C154.604 153.681 155.151 154.14 155.717 154.14Z" fill="#735F99"/>
<path d="M110.601 154.14H120.854C121.42 154.14 121.792 153.681 121.684 153.114C121.576 152.548 121.029 152.089 120.463 152.089H110.21C109.643 152.089 109.272 152.548 109.38 153.114C109.488 153.681 110.035 154.14 110.601 154.14Z" fill="#735F99"/>
<path d="M134.994 159.247C134.886 158.68 134.339 158.221 133.773 158.221H111.215C110.648 158.221 110.277 158.68 110.385 159.247C110.493 159.813 111.039 160.272 111.606 160.272H134.164C134.73 160.271 135.102 159.813 134.994 159.247Z" fill="#735F99"/>
<path d="M163.018 158.221H137.874C137.307 158.221 136.936 158.68 137.044 159.247C137.152 159.813 137.699 160.272 138.265 160.272H163.409C163.976 160.272 164.347 159.813 164.239 159.247C164.131 158.68 163.584 158.221 163.018 158.221Z" fill="#735F99"/>
<path d="M153.952 166.403C154.519 166.403 154.89 165.944 154.782 165.377C154.674 164.811 154.128 164.351 153.561 164.351H151.51C150.944 164.351 150.573 164.811 150.681 165.377C150.789 165.944 151.335 166.403 151.902 166.403H153.952Z" fill="#7859B5"/>
<path d="M156.832 165.377C156.94 165.944 157.487 166.403 158.053 166.403H164.718C165.284 166.403 165.656 165.944 165.548 165.377C165.44 164.811 164.893 164.351 164.327 164.351H157.662C157.096 164.351 156.724 164.811 156.832 165.377Z" fill="#85C1E9"/>
<path d="M112.938 166.403H123.191C123.757 166.403 124.129 165.944 124.021 165.377C123.913 164.811 123.366 164.351 122.8 164.351H112.547C111.98 164.351 111.609 164.811 111.717 165.377C111.825 165.944 112.372 166.403 112.938 166.403Z" fill="#85C1E9"/>
<path d="M127.291 166.403H147.799C148.365 166.403 148.737 165.944 148.629 165.377C148.521 164.811 147.974 164.351 147.408 164.351H126.9C126.334 164.351 125.962 164.811 126.07 165.377C126.179 165.944 126.725 166.403 127.291 166.403Z" fill="#7859B5"/>
<path d="M447.006 246.393H30.9924C29.6286 246.393 28.5244 245.287 28.5244 243.925C28.5244 242.561 29.6298 241.457 30.9924 241.457H447.006C448.37 241.457 449.474 242.562 449.474 243.925C449.476 245.287 448.37 246.393 447.006 246.393Z" fill="#6161C9"/>
<path d="M475.532 242.583H2.46796C1.10419 242.583 0 241.478 0 240.115V232.417C0 231.053 1.10543 229.949 2.46796 229.949H475.532C476.896 229.949 478 231.055 478 232.417V240.115C478 241.478 476.896 242.583 475.532 242.583Z" fill="#040962"/>
<path d="M279.182 207.7C279.182 207.7 269.168 204.396 263.19 202.452C257.212 200.51 247.647 204.097 240.772 209.178C240.772 209.178 235.991 213.214 237.634 214.559C239.278 215.904 247.199 209.477 254.074 208.73C254.074 208.73 238.082 218.892 239.727 222.479C240.274 223.674 242.265 223.406 244.675 222.522C244.312 223.179 244.201 223.749 244.538 224.123C245.388 225.065 250.001 223.397 254.188 221.604C253.374 222.197 252.842 222.807 252.879 223.376C253.028 225.618 265.881 219.789 265.881 219.789C265.881 219.789 274.101 225.17 279.779 221.732C279.779 221.732 282.022 212.349 279.182 207.7Z" fill="#FCE8D4"/>
<path d="M273.754 223.525H91.6778C90.1786 223.525 88.9639 224.74 88.9639 226.239V227.234C88.9639 228.733 90.1786 229.948 91.6778 229.948H273.754C275.254 229.948 276.468 228.733 276.468 227.234V226.239C276.468 224.74 275.254 223.525 273.754 223.525Z" fill="#B4B0FA"/>
<path d="M220.297 130.458L238.919 218.619C239.49 221.327 237.756 223.525 235.061 223.525H91.7032C88.9955 223.525 86.3325 221.327 85.7612 218.619L67.139 130.458C66.5677 127.75 68.3041 125.564 71.0118 125.564H214.37C217.065 125.564 219.726 127.75 220.297 130.458Z" fill="black"/>
<path d="M215.788 130.458L234.41 218.619C234.983 221.327 233.26 223.525 230.553 223.525H91.7032C88.9955 223.525 86.3325 221.327 85.7612 218.619L67.139 130.458C66.5677 127.75 68.3041 125.564 71.0118 125.564H209.861C212.569 125.564 215.217 127.75 215.788 130.458Z" fill="black"/>
<path d="M146.292 183.727C141.249 183.727 137.146 179.625 137.146 174.583C137.146 169.541 141.249 165.438 146.292 165.438C151.334 165.438 155.436 169.541 155.436 174.583C155.436 179.625 151.333 183.727 146.292 183.727ZM146.292 169.163C143.303 169.163 140.873 171.594 140.873 174.582C140.873 177.569 143.303 180 146.292 180C149.279 180 151.71 177.569 151.71 174.582C151.71 171.594 149.279 169.163 146.292 169.163Z" fill="white"/>
</svg>
