<svg width="585" height="738" viewBox="0 0 585 738" fill="none" xmlns="http://www.w3.org/2000/svg">
<path opacity="0.1" d="M360.241 172.856L362.684 162.638C363.208 160.445 361.842 158.649 359.649 158.649H322.739C316.687 125.452 295.219 101.06 301.401 60.7408C313.545 41.6817 269.917 -29.1922 238.146 13.4025C197.08 16.1006 235.065 93.157 156.912 112.859C99.431 127.344 67.9077 160.714 55.2324 188.712C59.9202 191.313 65.2969 192.808 71.011 192.808H72.4766C81.2042 174.04 91.788 163.48 92.4431 162.842C92.1349 163.534 86.4427 176.039 81.3667 192.808H363.815L364.513 176.988C364.632 174.387 362.572 172.606 360.241 172.856Z" fill="#85C1E9"/>
<path d="M275.006 187.203C270.25 224.083 264.663 296.83 163.714 304.027C97.035 308.756 67.7925 245.387 25.8165 224.714C29.5288 194.433 43.4319 163.934 43.9171 162.842C42.9951 163.74 22.274 184.315 14.9464 219.983C10.1422 218.212 5.16815 216.756 0 215.737C0 187.203 30.2082 132.561 108.386 112.859C186.539 93.1569 148.552 16.1006 189.62 13.4024C221.391 -29.1947 265.017 41.6792 252.875 60.7407C245.065 111.694 281.436 137.195 275.006 187.203Z" fill="#263238"/>
<path d="M313.131 188.6C312.183 182.986 305.488 180.528 301.133 184.199L288.916 194.492C287.497 196.336 287.055 198.752 287.735 200.977L289.894 208.05C295.63 208.657 301.805 207.237 306.643 205.614C311.734 203.906 314.849 198.786 313.956 193.492L313.131 188.6Z" fill="#FFB573"/>
<path d="M244.485 146.166C244.968 148.852 245.618 152.125 246.256 155.138C246.916 158.208 247.576 161.294 248.321 164.356C249.76 170.492 251.434 176.551 253.201 182.532C255.04 188.486 257.097 194.298 259.339 199.956C261.698 205.532 264.26 210.889 267.162 215.861L260.904 210.894C261.918 211.44 263.005 212.056 265.284 211.758C267.463 211.513 270.386 210.532 273.315 208.943C276.287 207.388 279.342 205.35 282.348 203.064C285.33 200.839 288.424 198.126 291.146 195.773L291.714 195.283C294.757 192.652 299.357 192.99 301.985 196.032C303.924 198.277 304.246 201.375 303.062 203.896C300.951 208.38 298.649 212.102 295.873 215.953C293.114 219.735 289.933 223.339 286.131 226.711C282.271 229.989 277.789 233.202 271.888 235.23C268.972 236.247 265.679 236.96 262.161 237.048C258.657 237.171 255.003 236.589 251.589 235.475C249.18 234.689 247.212 233.173 245.856 231.249L245.334 230.508C240.957 224.319 237.206 217.923 234.018 211.389C230.88 204.862 228.143 198.235 225.804 191.541C223.461 184.857 221.495 178.094 219.782 171.291C218.952 167.882 218.144 164.47 217.477 161.015C216.764 157.511 216.206 154.231 215.665 150.339C214.558 142.376 220.117 135.026 228.08 133.92C235.837 132.843 243.015 138.091 244.403 145.724L244.485 146.166Z" fill="#FFB573"/>
<path d="M75.4598 654.793C71.699 637.775 72.655 633.791 69.5905 624.464C66.9821 616.462 66.7808 616.94 62.7481 609.445C60.0767 604.481 65.1575 600.523 70.2237 599.887C74.169 599.392 78.3545 599.213 83.1999 598.441L93.6915 617.993C88.1545 625.022 83.7313 642.179 85.6918 655.322C87.07 664.727 76.9763 661.604 75.4598 654.793Z" fill="#85C1E9"/>
<path d="M244.421 250.13C244.421 250.13 247.194 393.955 250.13 473.625C257.841 520.786 95.7119 618.959 95.7119 618.959C92.2422 620.604 83.0633 602.629 83.1968 598.439C83.1968 598.439 152.923 495.729 194.472 470.927C148.493 343.676 160.986 250.128 160.986 250.128H244.421V250.13Z" fill="#263238"/>
<path opacity="0.2" d="M160.997 250.143H213.618C213.618 250.143 203.1 390.726 191.375 462.109C149.084 339.384 160.997 250.143 160.997 250.143Z" fill="black"/>
<path opacity="0.2" d="M128.46 537.446C148.429 512.527 171.528 486.589 190.089 473.778C187.445 498.43 184.727 528.177 182.64 558.628C165.195 572.434 147.094 585.269 131.954 595.533C129.552 576.076 128.12 556.155 128.46 537.446Z" fill="black"/>
<path d="M105.886 615.402C103.77 616.918 100.009 619.643 97.2992 621.764C96.4015 622.465 95.1373 622.305 94.4142 621.424C89.0132 614.82 82.8332 602.647 80.8509 598.619C80.4578 597.821 80.6252 596.869 81.2537 596.243L88.045 589.496C88.9719 588.576 90.5078 588.731 91.2309 589.818L106.388 612.578C107.007 613.509 106.794 614.752 105.886 615.402Z" fill="#85C1E9"/>
<path opacity="0.3" d="M105.886 615.402C103.77 616.918 100.009 619.643 97.2992 621.764C96.4015 622.465 95.1373 622.305 94.4142 621.424C89.0132 614.82 82.8332 602.647 80.8509 598.619C80.4578 597.821 80.6252 596.869 81.2537 596.243L88.045 589.496C88.9719 588.576 90.5078 588.731 91.2309 589.818L106.388 612.578C107.007 613.509 106.794 614.752 105.886 615.402Z" fill="white"/>
<path d="M184.052 737.035C166.317 737.035 167.572 736.761 157.577 736.426C149.017 736.12 147.074 737.188 140.202 737.035C134.462 736.914 134.175 731.428 135.369 725.119C135.963 721.95 136.983 718.08 137.737 712.961H164.675C168.967 719.939 176.726 725.18 186.842 726.522C196.499 727.803 191.122 737.035 184.052 737.035Z" fill="#85C1E9"/>
<path d="M219.403 250.13C219.403 250.13 191.539 403.484 181.336 472.992C170.619 545.989 157.412 664.47 164.677 712.963C160.741 715.378 146.154 715.523 137.739 712.963C137.739 712.963 95.1712 546.493 130.732 476.221C110.496 305.398 140.423 296.503 148.694 250.133L219.403 250.13Z" fill="#263238"/>
<path d="M165.792 702.865C166.093 705.311 166.702 709.572 167.634 712.825C167.969 714 167.277 715.087 166.115 715.276C156.4 716.856 141.922 714.568 137.319 713.752C136.438 713.597 135.717 712.908 135.499 712.039L133.182 702.722C132.866 701.448 133.759 700.303 135.053 700.327L163.579 700.876C164.686 700.895 165.656 701.761 165.792 702.865Z" fill="#85C1E9"/>
<path opacity="0.3" d="M165.792 702.865C166.093 705.311 166.702 709.572 167.634 712.825C167.969 714 167.277 715.087 166.115 715.276C156.4 716.856 141.922 714.568 137.319 713.752C136.438 713.597 135.717 712.908 135.499 712.039L133.182 702.722C132.866 701.448 133.759 700.303 135.053 700.327L163.579 700.876C164.686 700.895 165.656 701.761 165.792 702.865Z" fill="white"/>
<path d="M221.841 115.814C239.507 119.143 243.244 126.364 256.252 153.19C252.328 170.839 231.209 186.356 231.209 186.356C231.209 186.356 192.71 138.632 221.841 115.814Z" fill="white"/>
<path d="M148.695 250.13C132.11 272.754 114.073 308.877 113.925 386.521C200.048 425.343 241.025 425.343 261.515 415.637C246.737 355.767 244.422 250.13 244.422 250.13C230.781 235.009 148.695 250.13 148.695 250.13Z" fill="#85C1E9"/>
<path opacity="0.2" d="M206.787 318.316C199.239 346.219 206.964 374.122 213.615 380.322C209.061 364.213 206.787 318.316 206.787 318.316Z" fill="black"/>
<path d="M249.844 149.242C250.136 158.654 249.211 170.033 247.098 192.438C245.671 211.415 250.398 247.49 244.421 250.132C229.339 254.374 189.719 252.43 148.694 250.132C146.763 222.957 147.476 204.243 130.288 143.567C126.301 129.499 135.192 115.989 149.381 114.547C153.173 114.162 157.196 113.841 161.326 113.642C177.376 112.866 190.537 112.352 204.794 113.645C209.518 114.072 214.415 114.666 219.098 115.317C235.99 117.66 249.323 132.374 249.844 149.242Z" fill="white"/>
<path d="M176.767 71.4994C179.148 85.7907 172.805 104.309 163.716 113.64C163.716 113.64 176.964 111.651 205.09 129.045C213.235 117.365 207.184 113.64 207.184 113.64C199.643 112.175 199.636 106.66 202.608 96.0347L176.767 71.4994Z" fill="#FFB573"/>
<path d="M199.176 125.544C189.912 126.862 187.01 140.854 187.01 140.854C187.01 140.854 164.76 125.117 157.709 114.016C161.011 112.286 165.835 108.858 165.835 108.858C165.835 108.858 193.767 120.196 199.176 125.544Z" fill="#85C1E9"/>
<path d="M207.981 124.054C207.981 124.054 215.335 125.646 219.026 135.875C221.146 115.475 211.475 113.599 211.475 113.599C211.475 113.599 208.456 111 202.987 111.864C210.332 115.742 207.981 124.054 207.981 124.054Z" fill="#85C1E9"/>
<path opacity="0.2" d="M202.603 96.0445L187.438 81.632C187.705 84.1796 188.118 87.0913 188.676 90.0272C190.107 97.5732 195.373 104.537 201.05 108.686C200.322 105.774 201.05 101.625 202.603 96.0445Z" fill="black"/>
<path d="M182.629 38.7117C176.69 60.9105 173.717 70.155 180.654 85.4944C191.088 108.567 218.828 112.311 231.079 92.6522C242.107 74.9567 249.966 41.6282 232.207 24.8426C214.708 8.30458 188.567 16.513 182.629 38.7117Z" fill="#FFB573"/>
<path d="M191.583 17.0856C195.021 43.6324 229.973 28.145 251.204 58.887C249.182 32.6119 223.482 -4.50655 191.583 17.0856Z" fill="#263238"/>
<path d="M193.779 16.1006C223.621 36.0478 190.947 52.2122 168.909 51.0038C161.63 28.9725 193.779 16.1006 193.779 16.1006Z" fill="#263238"/>
<path opacity="0.2" d="M208.844 55.4004C208.844 55.4004 205.626 51.1494 201.184 51.0062C204.862 54.2212 208.844 55.4004 208.844 55.4004Z" fill="black"/>
<path opacity="0.2" d="M207.674 57.1546C207.674 57.1546 203.996 53.9712 199.956 55.0315C203.862 57.1036 207.674 57.1546 207.674 57.1546Z" fill="black"/>
<path d="M213.258 57.5718C212.678 59.4134 213.134 61.2696 214.277 61.716C215.419 62.1649 216.815 61.0342 217.392 59.1926C217.972 57.351 217.516 55.4949 216.373 55.0484C215.233 54.602 213.837 55.7302 213.258 57.5718Z" fill="#263238"/>
<path d="M234.646 66.3214C234.066 68.163 234.522 70.0192 235.665 70.4657C236.808 70.9121 238.203 69.7838 238.783 67.9422C239.363 66.1006 238.907 64.2445 237.764 63.798C236.619 63.3492 235.224 64.4798 234.646 66.3214Z" fill="#263238"/>
<path d="M237.224 63.7008L241.822 64.072C241.822 64.072 238.582 66.6828 237.224 63.7008Z" fill="#263238"/>
<path d="M227.704 66.9932C227.704 66.9932 228.177 76.0823 230.237 81.1874C227.216 82.5534 223.62 79.9766 223.62 79.9766L227.704 66.9932Z" fill="#ED893E"/>
<path d="M211.434 82.8446C212.285 83.3687 213.232 83.8467 214.28 84.2592C214.564 84.3708 214.87 84.218 214.964 83.9195C215.059 83.6235 214.911 83.2935 214.62 83.1771C206.955 80.1781 205.145 73.1222 205.128 73.0518C205.052 72.7388 204.756 72.5447 204.468 72.6151C204.179 72.6855 204.004 72.9936 204.082 73.3042C204.15 73.5784 205.603 79.2609 211.434 82.8446Z" fill="#263238"/>
<path d="M171.777 53.4861C171.813 58.6616 173.963 62.898 176.69 65.2685C180.793 68.8353 185.495 64.4314 186.575 58.2588C187.548 52.7024 186.582 44.1495 181.397 43.0625C176.29 41.99 171.733 47.5682 171.777 53.4861Z" fill="#FFB573"/>
<path d="M212.608 45.5422C212.89 45.6222 213.196 45.5859 213.453 45.4184C217.466 42.7761 221.193 44.5571 221.237 44.5789C221.787 44.8458 222.43 44.6129 222.661 44.0427C222.891 43.4725 222.624 42.7907 222.066 42.5141C221.872 42.4194 217.194 40.1775 212.215 43.4579C211.72 43.7855 211.594 44.4891 211.934 45.0302C212.099 45.2923 212.344 45.467 212.608 45.5422Z" fill="#263238"/>
<path d="M244.918 58.7972C245.173 58.9064 245.464 58.9209 245.729 58.8093C246.277 58.5812 246.522 57.9188 246.275 57.3316C243.788 51.4259 238.818 50.2612 238.607 50.2151C238.01 50.0841 237.455 50.4772 237.363 51.0935C237.27 51.7098 237.678 52.3164 238.273 52.4522C238.467 52.4959 242.312 53.4568 244.287 58.1542C244.414 58.4575 244.647 58.6807 244.918 58.7972Z" fill="#263238"/>
<path d="M215.837 54.9539L220.435 55.3251C220.435 55.3251 217.196 57.9334 215.837 54.9539Z" fill="#263238"/>
<path d="M144.596 150.81L137.278 165.853C134.839 170.919 132.496 176.025 130.237 181.098C128.019 186.181 125.835 191.274 123.967 196.297C122.14 201.312 120.42 206.327 119.396 210.896L118.942 204.889C118.85 205.121 119.35 206.378 120.199 207.766C121.043 209.176 122.288 210.76 123.671 212.33C126.459 215.48 129.807 218.741 133.376 221.839C136.924 224.993 140.706 228.063 144.55 231.122C148.369 234.172 152.416 237.217 156.223 240.18L156.444 240.352C159.622 242.825 160.195 247.406 157.722 250.584C155.774 253.088 152.508 253.967 149.662 253.025C144.47 251.295 139.699 249.301 134.842 247.088C130.023 244.863 125.284 242.403 120.589 239.632C115.933 236.798 111.27 233.779 106.745 229.885C104.478 227.932 102.217 225.826 99.992 223.188C97.784 220.541 95.5615 217.428 93.88 212.825C93.2758 211.17 93.1012 209.465 93.2977 207.829L93.4263 206.82C94.2901 199.878 95.8066 193.664 97.5802 187.603C99.3102 181.537 101.382 175.772 103.588 170.078C105.755 164.371 108.188 158.841 110.702 153.36C113.274 147.852 115.848 142.592 118.918 137.089C122.834 130.067 131.702 127.548 138.724 131.464C145.496 135.242 148.078 143.621 144.744 150.511L144.596 150.81Z" fill="#FFB573"/>
<path d="M148.491 114.662C132.722 114.623 125.814 118.335 108.376 147.299C112.273 159.736 137.272 174.971 137.272 174.971C137.272 174.971 164.207 140.216 148.491 114.662Z" fill="white"/>
<path d="M174.825 259.581L174.013 252.486C173.707 249.817 172.13 247.461 169.779 246.161L158.794 240.085C154.403 237.656 149.108 237.503 144.583 239.677L141.783 241.024C142.327 252.884 151.654 265.302 151.654 265.302L153.92 269.136C155.939 272.55 160.059 273.712 163.385 271.805L171.043 267.413C173.687 265.892 175.192 262.776 174.825 259.581Z" fill="#FFB573"/>
<path d="M297.468 215.735H214.302C212.108 215.735 210.742 213.939 211.266 211.746L223.012 162.638C223.536 160.445 225.761 158.65 227.955 158.65H311.121C313.314 158.65 314.68 160.445 314.156 162.638L302.41 211.746C301.886 213.939 299.661 215.735 297.468 215.735Z" fill="#85C1E9"/>
<path d="M214.621 211.791C214.575 211.791 214.526 211.787 214.48 211.774C214.155 211.697 213.954 211.369 214.031 211.044L224.989 165.237C225.576 162.781 228.058 160.782 230.521 160.782H309.708C310.042 160.782 310.314 161.054 310.314 161.389C310.314 161.723 310.042 161.995 309.708 161.995H230.521C228.619 161.995 226.627 163.609 226.168 165.518L215.211 211.326C215.145 211.602 214.895 211.791 214.621 211.791Z" fill="white"/>
<path d="M310.364 173.207L309.255 173.714C305.812 175.284 303.386 178.686 303.155 182.263L302.488 192.616C302.197 197.114 305.434 200.545 309.917 200.501L310.599 200.494C312.98 200.47 315.044 198.405 315.154 195.937L315.991 176.988C316.126 173.889 313.188 171.917 310.364 173.207Z" fill="#FFB573"/>
<path d="M410.844 629.761C402.898 594.198 418.783 508.85 425.482 489.546C432.182 470.242 478.093 447.134 506.001 434.638C533.909 422.142 585.001 456.162 585.001 456.162C585.001 456.162 531.951 450.591 516.709 458.191C501.464 465.79 469.014 489.071 458.364 508.996C447.715 528.921 412.56 588.04 410.844 629.761Z" fill="#263238"/>
<path d="M313.969 492.611C350.481 496.442 380.427 521.414 389.945 529.069C399.464 536.725 403.227 567.219 404.647 585.443C406.064 603.668 376.629 625.578 376.629 625.578C376.629 625.578 390.443 596.84 389.232 586.729C388.024 576.619 381.451 553.668 372.379 543.664C363.306 533.662 343.226 507.419 313.969 492.611Z" fill="#263238"/>
<path d="M400.737 606.691C404.158 556.853 380.321 524.027 383.718 484.582C387.115 445.136 431.607 357.084 435.448 332.197C442.856 354.23 410.675 460.175 412.082 488.927C413.49 517.677 428.633 575.609 400.737 606.691Z" fill="#85C1E9"/>
<path opacity="0.6" d="M400.737 606.691C404.158 556.853 380.321 524.027 383.718 484.582C387.115 445.136 431.607 357.084 435.448 332.197C442.856 354.23 410.675 460.175 412.082 488.927C413.49 517.677 428.633 575.609 400.737 606.691Z" fill="white"/>
<path d="M364.331 413.455C385.539 417.381 390.021 436.059 390.021 436.059C390.021 436.059 378.246 451.731 357.037 447.806C340.834 444.807 335.154 435.763 337.168 426.276C339.181 416.794 348.13 410.459 364.331 413.455Z" fill="#85C1E9"/>
<path d="M414.926 438.197C408.552 451.013 395.813 450.465 395.813 450.465C395.813 450.465 387.962 440.092 394.336 427.274C399.205 417.483 406.014 415.508 411.699 418.524C417.386 421.54 419.795 428.407 414.926 438.197Z" fill="#85C1E9"/>
<path d="M403.963 522.365C414.064 532.507 409.466 544.399 409.466 544.399C409.466 544.399 397.125 548.516 387.024 538.374C379.308 530.627 379.616 523.544 384.294 519.123C388.97 514.7 396.244 514.615 403.963 522.365Z" fill="#85C1E9"/>
<path d="M423.448 567.891C416.492 573.355 409.525 569.669 409.525 569.669C409.525 569.669 407.895 561.796 414.851 556.332C420.167 552.158 424.491 552.86 426.864 556.053C429.24 559.246 428.764 563.718 423.448 567.891Z" fill="#85C1E9"/>
<path d="M438.589 498.684C425.307 513.599 408.361 508.188 408.361 508.188C408.361 508.188 401.599 491.342 414.881 476.427C425.028 465.033 434.917 464.87 441.464 471.016C448.01 477.162 448.738 487.29 438.589 498.684Z" fill="#85C1E9"/>
<path d="M402.784 608.351C402.709 608.351 402.632 608.344 402.554 608.329C401.896 608.203 401.464 607.567 401.591 606.91C418.813 516.93 402.818 438.806 354.044 374.707C353.639 374.173 353.74 373.414 354.274 373.008C354.806 372.598 355.567 372.705 355.975 373.239C405.182 437.909 421.332 516.681 403.973 607.366C403.864 607.946 403.355 608.351 402.784 608.351Z" fill="#263238"/>
<path d="M359.681 346.699C374.935 366.644 364.225 386.278 364.225 386.278C364.225 386.278 341.82 390.621 326.566 370.676C314.912 355.439 317.064 343.193 326.207 336.571C335.352 329.95 348.027 331.462 359.681 346.699Z" fill="#85C1E9"/>
<path d="M348.167 610.719L345.485 648.768L347.906 648.939L350.587 610.889L348.167 610.719Z" fill="#85C1E9"/>
<path d="M344.51 662.069L343.367 678.28L345.787 678.451L346.93 662.24L344.51 662.069Z" fill="#85C1E9"/>
<path d="M464.894 581.712H358.784L347.808 735.654H475.871L464.894 581.712Z" fill="#85C1E9"/>
<path d="M491.421 717.316C458.558 717.316 431.822 690.58 431.822 657.717C431.822 624.857 458.558 598.121 491.421 598.121C524.284 598.121 551.02 624.857 551.02 657.717C551.017 690.58 524.281 717.316 491.421 717.316ZM491.421 602.976C461.235 602.976 436.675 627.533 436.675 657.719C436.675 687.906 461.235 712.465 491.421 712.465C521.607 712.465 546.167 687.908 546.167 657.719C546.164 627.533 521.607 602.976 491.421 602.976Z" fill="#85C1E9"/>
</svg>
