<svg width="25" height="24" viewBox="0 0 25 24" fill="none" xmlns="http://www.w3.org/2000/svg">
<path d="M0.811058 23.5544C0.797972 23.4924 0.789062 23.427 0.789062 23.3582V0.640975C0.789062 0.571704 0.797972 0.505853 0.811337 0.443423C0.813284 0.434871 0.814398 0.426319 0.816626 0.417767C0.834442 0.344647 0.860613 0.278796 0.893465 0.22107C0.895693 0.217222 0.895971 0.212518 0.898197 0.20867C0.89959 0.206532 0.90126 0.205676 0.902653 0.203538C0.937731 0.14624 0.979214 0.100059 1.02571 0.065423C1.02933 0.0628574 1.03211 0.0594364 1.03573 0.0568708C1.07972 0.0265111 1.1276 0.00940733 1.178 0.00427611C1.18301 0.00384851 1.18774 0.00213765 1.19275 0.00213765C1.19748 0.00171005 1.20166 0 1.20639 0H24.3712C24.3759 0 24.3804 0.00171005 24.3851 0.00213765C24.3895 0.00256525 24.394 0.00384851 24.3985 0.00427611C24.4494 0.00940733 24.4981 0.026939 24.5427 0.0577263C24.5455 0.0594367 24.5477 0.0624297 24.5505 0.0641401C24.5978 0.0987758 24.6398 0.145812 24.6752 0.203966C24.6766 0.206104 24.6783 0.206532 24.6796 0.20867C24.6819 0.212091 24.6822 0.216794 24.6844 0.220643C24.7172 0.278369 24.7437 0.344647 24.7615 0.417767C24.7637 0.426319 24.7648 0.434871 24.7668 0.443851C24.7802 0.50628 24.7891 0.572131 24.7891 0.641403V23.359C24.7891 23.4292 24.7799 23.4959 24.7662 23.5591C24.7643 23.5677 24.7632 23.5758 24.7612 23.5844C24.7431 23.6579 24.7164 23.7242 24.6833 23.7819C24.6813 23.7853 24.6808 23.7896 24.6788 23.793C24.6771 23.796 24.6749 23.7977 24.673 23.8007C24.6593 23.8225 24.6443 23.8418 24.6287 23.8606C24.6217 23.8687 24.6156 23.8786 24.6084 23.8863C24.59 23.9059 24.5702 23.9217 24.5499 23.9363C24.5449 23.9397 24.5404 23.9453 24.5354 23.9483C24.485 23.9812 24.4296 24 24.3715 24H1.20695C1.14876 24 1.09336 23.9816 1.04297 23.9483C1.03517 23.9431 1.02794 23.9354 1.02042 23.9294C1.00316 23.9162 0.985897 23.9025 0.970028 23.8858C0.961676 23.8769 0.954157 23.8653 0.946083 23.8555C0.931885 23.8379 0.917965 23.8204 0.905714 23.8003C0.903488 23.7969 0.900982 23.7943 0.898754 23.7909C0.896526 23.7871 0.895971 23.7819 0.893744 23.7781C0.86117 23.7208 0.834999 23.6549 0.817181 23.5822C0.814398 23.5728 0.813007 23.5638 0.811058 23.5544ZM23.9536 2.09568L16.9246 11.9566L23.9536 21.8962V2.09568ZM9.54716 11.4734C9.57612 11.5025 9.60674 11.5269 9.63096 11.5679C9.64015 11.5833 9.64321 11.6034 9.65129 11.6196L12.7889 16.0214L23.2949 1.28238H2.28299L9.54716 11.4734ZM16.3055 12.8251L13.0707 17.3632C12.9908 17.4752 12.89 17.5312 12.7889 17.5312C12.6879 17.5312 12.5871 17.4752 12.5075 17.3632L9.31275 12.8815L2.28494 22.7172H23.301L16.3055 12.8251ZM8.69329 12.0126L1.62428 2.09568V21.9065L8.69329 12.0126Z" fill="#0C335E"/>
</svg>
