<svg width="549" height="549" viewBox="0 0 549 549" fill="none" xmlns="http://www.w3.org/2000/svg">
<path d="M36.9083 351.746L44.9122 368.434L46.8196 370.041L310.562 236.245L338.484 280.733L470.633 219.263L478.878 237.668L480.786 239.275L513.785 175.509L511.876 173.903L447.069 181.257L457.223 197.661L342.037 243.619L317.917 205.875L36.9083 351.746Z" fill="#85C1E9"/>
<path d="M34.9996 350.141L44.912 368.434L311.048 234.142L338.97 278.629L468.725 217.657L478.878 237.668L511.876 173.903L445.162 179.65L455.315 196.054L341.377 241.45L317.257 203.707L34.9996 350.141Z" fill="#85C1E9"/>
<mask id="mask0_3_996" style="mask-type:luminance" maskUnits="userSpaceOnUse" x="0" y="0" width="549" height="549">
<path d="M1.58591 -5.03576e-06L0 546.864L546.864 548.45L548.45 1.5859L1.58591 -5.03576e-06Z" fill="white"/>
</mask>
<g mask="url(#mask0_3_996)">
<path d="M133.403 192.101C133.454 188.663 101.453 198.254 99.1528 199.791C74.0178 216.583 94.2912 247.739 80.3811 273.171C69.0512 293.888 84.58 306.143 99.2414 316.038C115.175 326.792 133.867 296.881 133.867 296.881C133.867 296.881 133.4 192.352 133.403 192.101Z" fill="#373789"/>
<path d="M231.525 334.452L230.854 340.316L217.977 339.294L217.61 334.021L219.694 334.144H223.863H228.032L231.525 334.452Z" fill="#D68B59"/>
<path d="M173.633 467.491C173.633 478.395 173.265 545.579 157.939 603.449C143.677 657.302 144.208 703.983 144.208 703.983L131.456 701.041C131.456 701.041 125.293 611.302 134.26 574.52C134.889 510.275 148.254 458.29 148.254 458.29L171.672 449.954L173.633 467.491Z" fill="#080F3A"/>
<path d="M106.465 464.429C106.465 464.429 100.318 475.096 101.42 491.648C102.524 508.199 150.582 666.71 168.238 703.982C176.576 703.982 180.99 703.982 180.99 703.982C180.99 703.982 167.55 634.075 158.239 573.528C151.684 530.893 148.659 492.898 147.358 487.225C149.111 467.608 151.564 452.648 151.564 452.648L106.465 464.429Z" fill="#04094E"/>
<path d="M175.617 704.209C175.417 703.592 155.475 642.079 146.152 612.988C138.638 589.544 125.655 540.809 120.111 519.997C118.839 515.223 117.921 511.773 117.827 511.491C109.77 487.851 109.984 479.896 119.167 461.406L120.485 462.061C111.431 480.288 111.242 487.609 119.219 511.017C119.319 511.311 120.001 513.866 121.533 519.619C127.074 540.419 140.05 589.131 147.553 612.54C156.876 641.627 176.816 703.138 177.017 703.756L175.617 704.209Z" fill="#192272"/>
<path d="M148.396 483.769L147.009 483.277L148.365 479.447L151.316 454.115H158.749L158.646 454.941C158.394 456.97 156.058 474.474 150.29 475.641L149.78 479.861L148.396 483.769ZM152.627 455.586L150.477 474.042C153.673 472.549 156.132 462.5 157.079 455.586H152.627Z" fill="#192272"/>
<path d="M164.658 308.653C164.658 308.653 189.434 319.004 188.164 344.015C186.894 369.027 193.947 402.498 193.947 402.498C193.947 402.498 155.07 380.206 164.658 308.653Z" fill="#EA4E42"/>
<path d="M286.902 346.18V399.315C286.902 404.621 282.601 408.923 277.295 408.923H200.173C194.866 408.923 190.566 404.621 190.566 399.315V346.18C190.566 340.873 194.867 336.572 200.173 336.572H277.295C282.601 336.572 286.902 340.874 286.902 346.18Z" fill="#898989"/>
<path d="M285.674 346.793V399.93C285.674 405.236 281.372 409.537 276.067 409.537H198.945C193.639 409.537 189.337 405.236 189.337 399.93V346.793C189.337 341.488 193.639 337.186 198.945 337.186H276.067C281.372 337.186 285.674 341.488 285.674 346.793Z" fill="#CCCCCC"/>
<path d="M285.101 347.11V399.614C285.101 404.857 280.851 409.107 275.608 409.107H199.404C194.161 409.107 189.911 404.857 189.911 399.614V347.11C189.911 341.867 194.161 337.617 199.404 337.617H275.608C280.85 337.617 285.101 341.867 285.101 347.11Z" fill="#C6C3C1"/>
<path d="M189.912 361.026V399.613C189.912 404.856 194.162 409.106 199.405 409.106H245.397C226.534 393.502 207.902 377.629 189.912 361.026Z" fill="#B5B2B0"/>
<path d="M189.942 346.499C196.328 351.474 202.738 356.419 209.184 361.319C230.915 377.838 253.036 393.87 275.687 409.103C280.893 409.059 285.1 404.83 285.1 399.614V347.11C285.1 341.867 280.85 337.617 275.607 337.617H199.404C194.367 337.617 190.258 341.542 189.942 346.499Z" fill="#B5B2B0"/>
<path d="M196.132 342.374V404.35H276.423V342.374H196.132Z" fill="#FBFBFB"/>
<path d="M279.534 371.759C280.42 370.873 281.855 370.873 282.74 371.759C283.625 372.644 283.625 374.08 282.74 374.965C281.855 375.849 280.419 375.849 279.534 374.965C278.649 374.08 278.649 372.644 279.534 371.759Z" fill="#FBFBFB" stroke="#44413E" stroke-width="0.433663" stroke-miterlimit="10"/>
<path d="M273.248 387.68H202.905V388.252H273.248V387.68Z" fill="#DEDEDE"/>
<path d="M273.248 369.362H202.905V369.933H273.248V369.362Z" fill="#DEDEDE"/>
<path d="M273.248 351.045H202.905V351.616H273.248V351.045Z" fill="#DEDEDE"/>
<path d="M273.248 399.891H202.905V400.463H273.248V399.891Z" fill="#A1A1A1"/>
<path opacity="0.53" d="M202.905 385.587L220.516 378.592L230.638 351.616L250.851 369.269L263.687 365.07L273.248 346.867V400.176H202.905V385.587Z" fill="#AFB5FF"/>
<path d="M213.425 400.176H212.821V402.172H213.425V400.176Z" fill="#A1A1A1"/>
<path d="M238.556 400.176H237.952V402.172H238.556V400.176Z" fill="#A1A1A1"/>
<path d="M263.687 400.176H263.083V402.172H263.687V400.176Z" fill="#A1A1A1"/>
<path d="M124.775 290.257C124.775 290.257 135.955 282.105 150.136 290.257C153.036 299.636 154.877 303.177 154.877 303.177L124.775 302.578C124.775 302.578 128.761 294.612 124.775 290.257Z" fill="#EA4E42"/>
<path d="M126.916 302.212L131.267 300.373H149.173C149.173 300.373 163.209 332.061 151.402 331.814C139.595 331.57 126.916 321.461 126.916 321.461V302.212Z" fill="#EBEBEB"/>
<path d="M130.549 304.003C130.549 304.003 135.872 321.461 143.473 319.99C151.074 318.519 149.175 300.372 149.175 300.372L160.638 310.226L167.626 367.682V452.28C167.626 452.28 161.242 460.153 151.115 461.075C140.987 461.998 133.173 454.12 132.561 452.649C131.948 451.178 144.362 403.034 138.339 380.761C132.316 358.487 130.549 304.003 130.549 304.003Z" fill="#FFF1FF"/>
<path d="M149.174 300.372C149.174 300.372 159.243 344.819 161.502 352.937C163.761 361.054 159.719 424.319 159.902 433.514C160.084 442.709 158.215 462.928 171.839 469.738C169.28 419.905 164.599 327.509 164.599 327.509L153.057 303.142L149.174 300.372Z" fill="#C4C4C4"/>
<path d="M112.208 311.223C106.937 314.35 103.333 325.016 101.088 346.718C98.8441 368.419 102.384 402.756 104.733 413.299C107.579 426.067 122.02 424.884 124.411 402.999C126.013 388.332 120.453 351.039 119.028 341.154C117.603 331.269 112.208 311.223 112.208 311.223Z" fill="#EA4E42"/>
<path d="M175.349 471.286C175.349 471.286 163.824 468.835 163.824 452.651C163.824 436.467 163.384 373.824 161.825 357.328C160.268 340.833 149.883 293.384 149.883 293.384L150.135 290.259C150.135 290.259 153.28 300.006 157.142 302.948C161.004 305.891 164.658 308.653 164.658 308.653C164.658 308.653 177.17 346.349 176.269 355.178C175.367 364.005 170.569 375.407 169.833 391.224C169.097 407.039 175.717 451.3 175.349 471.286Z" fill="#FA6353"/>
<path d="M143.905 428.364C136.894 427.993 124.96 422.281 124.456 422.039L125.095 420.714C125.215 420.772 137.267 426.539 143.982 426.895L143.905 428.364Z" fill="#C63C32"/>
<path d="M171.389 423.907L167.177 427.032L168.053 428.214L172.266 425.088L171.389 423.907Z" fill="#C63C32"/>
<path d="M215.526 334.144C215.526 334.144 215.526 337.147 217.611 337.147C219.695 337.147 219.695 334.144 219.695 334.144C219.695 334.144 219.083 333.592 217.611 333.592C216.138 333.592 215.526 334.144 215.526 334.144Z" fill="#FDBA82"/>
<path d="M219.695 334.144C219.695 334.144 219.327 338.374 221.411 338.374C223.496 338.374 223.865 334.144 223.865 334.144C223.865 334.144 223.252 333.592 221.841 333.592C220.43 333.592 219.695 334.144 219.695 334.144Z" fill="#FDBA82"/>
<path d="M223.863 334.144C223.863 334.144 223.863 337.147 225.948 337.147C228.033 337.147 228.032 334.144 228.032 334.144C228.032 334.144 227.724 333.592 226.131 333.592C224.537 333.592 223.863 334.144 223.863 334.144Z" fill="#FDBA82"/>
<path d="M228.032 334.144C228.032 334.144 228.916 336.572 231.001 336.572C233.085 336.572 232.2 334.144 232.2 334.144C232.2 334.144 231.526 333.592 230.116 333.592C228.706 333.592 228.032 334.144 228.032 334.144Z" fill="#FDBA82"/>
<path d="M152.399 302.793C154.606 310.975 151.741 318.864 146.002 320.412C140.261 321.96 133.819 316.581 131.611 308.399C129.404 300.217 132.269 292.328 138.009 290.78C143.75 289.233 150.192 294.61 152.399 302.793Z" fill="#D8453D"/>
<path d="M109.799 205.768C109.799 205.768 103.107 216.147 131.872 236.935C140.121 242.896 162.439 267.51 143.071 291.255C133.261 303.281 153.41 317.931 167.794 319.85C186.325 322.322 192.4 319.485 192.4 319.485C191.025 321.064 186.197 316.393 185.859 316.014C182.706 312.473 181.676 307.797 181.167 303.682C179.528 290.421 198.468 297.376 198.415 270.121C198.391 257.937 183.373 254.747 183.366 233.287C183.364 227.611 182.758 219.865 178.703 214.963C165.372 198.849 135.563 198.865 109.799 205.768Z" fill="#5753BA"/>
<path d="M133.61 308.259C141.22 319.398 152.368 316.79 150.241 305.237L149.907 281.89L132.709 280.076L131.872 302.275C131.792 304.404 132.408 306.499 133.61 308.259Z" fill="#FFBE7B"/>
<path fill-rule="evenodd" clip-rule="evenodd" d="M149.935 301.805L132.564 282.54L132.755 279.308L151.202 280.4L150.217 297.034C150.128 298.554 149.935 301.805 149.935 301.805Z" fill="#FF9D4C"/>
<path d="M145.759 283.962C160.711 283.623 171.428 274.944 170.924 261.275L169.438 220.988C168.934 207.32 156.406 196.514 141.454 196.853C126.504 197.192 105.015 206.87 105.519 220.539L114.199 260.274C118.48 275.722 130.808 284.302 145.759 283.962Z" fill="#FF9D4C"/>
<path d="M151.432 284.653C174.374 284.133 182.395 262.611 176.077 248.267C172.457 240.051 174.755 227.961 174.755 227.961C174.249 214.252 161.664 197.649 147.185 197.978C132.706 198.308 121.38 209.688 121.885 223.397C121.885 223.397 116.923 284.569 151.432 284.653Z" fill="#FFBC8D"/>
<path d="M150.174 284.655C173.116 284.135 181.138 262.613 174.819 248.269C171.2 240.052 173.497 227.962 173.497 227.962C172.992 214.253 160.405 197.65 145.927 197.978C131.448 198.308 120.122 209.687 120.627 223.396C120.627 223.396 115.665 284.571 150.174 284.655Z" fill="#FFBE7B"/>
<path d="M120.436 235.125C126.508 233.511 132.442 231.282 138.585 229.938C146.387 228.232 154.684 228.1 162.649 228.078C166.243 228.068 169.839 228.16 173.43 228.347C173.471 228.101 173.497 227.962 173.497 227.962C172.992 214.253 160.405 197.65 145.927 197.978C131.448 198.308 120.122 209.687 120.627 223.396C120.627 223.396 120.237 228.205 120.436 235.125Z" fill="#FF9251"/>
<path opacity="0.38" d="M167.171 205.959C167.171 205.959 175.628 227.769 175.757 233.003C175.757 233.003 175.461 210.078 167.171 205.959Z" fill="#EB8560"/>
<path d="M144.046 244.173C143.946 245.862 142.584 247.155 141.005 247.062C139.427 246.969 138.228 245.524 138.327 243.835C138.426 242.148 139.788 240.855 141.367 240.948C142.946 241.042 144.145 242.486 144.046 244.173Z" fill="black"/>
<path d="M170.484 241.484C170.385 243.172 169.023 244.465 167.444 244.372C165.864 244.279 164.666 242.834 164.765 241.146C164.865 239.458 166.226 238.165 167.806 238.258C169.385 238.351 170.584 239.795 170.484 241.484Z" fill="black"/>
<path opacity="0.6" d="M145.371 255.864C145.574 258.618 143.219 261.035 140.113 261.264C137.006 261.493 134.324 259.447 134.121 256.693C133.917 253.94 136.272 251.522 139.378 251.293C142.485 251.065 145.168 253.111 145.371 255.864Z" fill="#F98D0C"/>
<path opacity="0.6" d="M176.003 252.767C176.203 255.521 174.205 257.909 171.538 258.103C168.873 258.298 166.549 256.222 166.349 253.469C166.149 250.715 168.147 248.326 170.813 248.131C173.479 247.938 175.803 250.013 176.003 252.767Z" fill="#F98D0C"/>
<path d="M130.876 237.458C132.419 235.864 134.34 234.838 136.299 234.729C137.297 234.679 138.241 234.963 139.233 234.952C140.255 234.885 141.28 234.996 142.552 234.755L142.644 234.53C141.868 233.466 140.76 232.947 139.598 232.547C138.41 232.203 137.115 232.457 135.94 232.816C133.495 233.456 131.642 235.303 130.676 237.319L130.876 237.458Z" fill="#373789"/>
<path d="M171.325 230.981C170.698 229.709 169.211 228.579 167.466 228.616C166.637 228.585 165.737 228.631 165.093 229.125C164.488 229.664 163.947 230.234 163.802 231.186L163.946 231.368C164.889 231.473 165.501 231.273 166.129 231.193C166.716 231.069 167.136 230.649 167.68 230.453C168.72 230.091 169.993 230.317 171.151 231.134L171.325 230.981Z" fill="#373789"/>
<path d="M114.697 251.055C114.697 251.055 114.356 244.703 118.814 237.77C124.553 228.846 120.973 220.595 121.971 220.078C122.701 219.7 123.446 231.106 124.22 230.723C136.074 224.86 155.484 224.86 172.746 225.881C175.983 226.072 177.954 215.21 177.937 213.399C177.726 191.781 153.453 187.569 136.854 188.85C121.868 190.006 92.0484 194.636 108.499 242.781" fill="#373789"/>
<path d="M177.936 213.4C177.772 196.551 162.99 190.276 148.617 188.934C150.769 190.2 152.879 191.53 154.931 192.938C158.346 195.283 162.253 197.909 164.693 201.288C167.331 204.94 168.864 209.196 169.341 213.674C169.759 217.603 169.695 221.693 169.058 225.683C170.295 225.743 171.525 225.809 172.744 225.882C175.982 226.073 177.953 215.211 177.936 213.4Z" fill="#5753BA"/>
<path d="M117.657 256.442C119.624 260.389 119.023 264.507 116.312 265.639C113.602 266.771 109.809 264.489 107.84 260.542C105.873 256.595 106.474 252.477 109.185 251.345C111.895 250.213 115.688 252.494 117.657 256.442Z" fill="#FF9D4C"/>
<path fill-rule="evenodd" clip-rule="evenodd" d="M114.458 254.856C114.032 253.951 113.491 253.202 112.35 252.892C111.208 252.584 109.506 253.054 109.318 256.303C109.131 259.551 111.268 262.494 113.017 262.21C113.572 262.119 113.92 261.349 114.136 260.337C113.108 259.969 112.527 258.715 112.823 257.417C113.045 256.444 113.7 255.704 114.473 255.441C114.468 255.075 114.458 254.856 114.458 254.856Z" fill="#FFBE7B"/>
<path d="M112.41 264.802C113.608 264.802 113.61 262.94 112.41 262.94C111.213 262.939 111.211 264.802 112.41 264.802Z" fill="#FFE95B"/>
<path d="M153.48 234.991L162.489 254.709L155.198 255.607L153.48 234.991Z" fill="#FF9D4C"/>
<path d="M153.48 234.991L162.489 254.709L158.491 255.202L153.48 234.991Z" fill="#FFAF5A"/>
<path d="M114.698 251.055C114.698 251.055 104.577 251.108 107.469 265.712C107.469 265.712 89.6359 220.73 100.748 208.35C111.863 195.971 114.698 251.055 114.698 251.055Z" fill="#373789"/>
<path d="M155.963 190.61C158.648 191.788 160.966 193.811 162.783 196.166C164.624 198.522 165.965 201.232 166.934 204.041C167.862 206.862 168.437 209.767 168.717 212.674C169.01 215.582 169.061 218.486 168.894 221.401C168.154 218.573 167.631 215.733 167.03 212.939C166.417 210.148 165.774 207.39 164.862 204.738C163.99 202.081 162.828 199.527 161.386 197.133C159.926 194.747 158.146 192.549 155.963 190.61Z" fill="#4C58FD"/>
<path d="M155.443 191.292C157.402 192.908 159.017 194.938 160.306 197.153C161.61 199.365 162.547 201.791 163.179 204.288C163.772 206.795 164.057 209.379 163.921 211.944C163.799 214.503 163.298 217.05 162.302 219.386C162.407 216.854 162.408 214.398 162.213 211.969C162.004 209.545 161.646 207.148 161.055 204.806C160.503 202.455 159.716 200.164 158.786 197.915C157.838 195.668 156.705 193.49 155.443 191.292Z" fill="#4C58FD"/>
<path d="M147.972 261.386C147.972 261.386 157.478 264.632 165.617 262.293C165.196 264.5 162.436 270.238 162.436 270.238C162.436 270.238 151.086 272.075 147.972 261.386Z" fill="#401E0B"/>
<path d="M165.616 262.293L163.406 266.183C163.406 266.183 154.063 267.398 148.428 261.531C154.723 263.291 161.47 263.459 165.616 262.293Z" fill="white"/>
<path d="M162.435 270.238C162.435 270.238 160.217 268.365 158.099 267.637C155.98 266.907 150.762 266.509 150.762 266.509C150.762 266.509 154.488 271.284 162.435 270.238Z" fill="#D36037"/>
<path d="M112.208 311.223L118.491 354.809C118.491 354.809 132.805 378.717 132.56 390.12C132.315 401.522 119.327 439.643 105.137 465.534C121.282 478.407 139.121 477.293 144.913 452.649C150.706 428.006 152.304 371.729 148.013 352.236C143.721 332.741 134.614 306.803 135.38 297.792C133.695 297.056 124.775 290.26 124.775 290.26C124.775 290.26 128.882 302.947 112.208 311.223Z" fill="#FA6353"/>
<path d="M116.883 402.498C116.883 402.498 134.028 396.558 147.212 407.34C160.396 418.122 191.11 411.289 191.11 411.289V415.124C191.11 415.124 138.533 432.963 109.841 420.855C111.066 408.75 116.883 402.498 116.883 402.498Z" fill="#EA4E42"/>
<path d="M191.109 411.289C191.109 411.289 192.712 409.211 197.957 409.211C203.204 409.211 224.558 409.211 228.317 409.211C232.077 409.211 232.077 411.289 232.077 411.289C232.077 411.289 215.184 412.422 214.068 412.762C212.951 413.101 191.109 415.124 191.109 415.124V411.289Z" fill="#FFC76E"/>
<path d="M192.605 410.233C192.605 410.233 208.047 404.328 210.622 405.071C213.196 405.813 214.068 407.51 214.068 407.51C214.068 407.51 202.373 408.405 203.879 411.076C200.201 413.531 192.605 410.233 192.605 410.233Z" fill="#FFC76E"/>
</g>
<path d="M406.974 172.243C414.032 165.672 414.426 154.624 407.855 147.566C401.284 140.507 390.235 140.112 383.178 146.683C376.12 153.254 375.725 164.302 382.296 171.36C388.868 178.419 399.916 178.814 406.974 172.243Z" fill="#6476F4"/>
<path d="M377.174 185.542C378.126 183.374 377.757 157.319 377.757 157.319L408.253 170.71L387.471 190.063L377.174 185.542Z" fill="#6476F4"/>
<path d="M380.834 184.512C386.345 176.762 389.61 167.434 390.134 157.938C390.218 156.412 389.915 154.444 388.425 154.1C386.635 153.687 385.567 156.096 385.599 157.934C385.666 161.725 387.417 165.643 390.697 167.545C393.977 169.447 398.775 168.717 400.768 165.491C401.521 164.271 401.75 162.485 400.671 161.541C399.737 160.725 398.222 160.958 397.247 161.725C396.273 162.491 395.709 163.655 395.183 164.777C391.633 172.345 388.236 179.983 384.994 187.687" stroke="#F8F8FF" stroke-width="0.887779" stroke-miterlimit="10"/>
<path d="M389.324 188.029L377.525 182.847L374.087 190.674L385.887 195.856L389.324 188.029Z" fill="#080E44"/>
<path d="M406.855 136.694C408.124 133.804 409.394 130.913 410.663 128.024C411.345 126.469 409.052 125.112 408.363 126.679C407.094 129.569 405.824 132.46 404.555 135.349C403.873 136.904 406.167 138.261 406.855 136.694Z" fill="#6476F4"/>
<path d="M417.571 144.946C420.235 143.907 422.9 142.869 425.564 141.831C427.143 141.215 426.456 138.639 424.856 139.263C422.192 140.302 419.528 141.34 416.863 142.378C415.284 142.993 415.971 145.569 417.571 144.946Z" fill="#6476F4"/>
<path d="M396.002 133.428C394.964 130.763 393.925 128.099 392.887 125.435C392.271 123.855 389.695 124.542 390.319 126.142C391.357 128.807 392.396 131.471 393.434 134.135C394.049 135.716 396.626 135.028 396.002 133.428Z" fill="#6476F4"/>
<path d="M368.719 361.216L340.898 325.703C339.579 324.02 339.875 321.586 341.559 320.268L388.34 283.62C390.023 282.3 392.456 282.597 393.774 284.28L421.595 319.793C422.914 321.477 422.618 323.909 420.935 325.228L374.154 361.877C372.471 363.194 370.037 362.898 368.719 361.216Z" fill="#5753BA"/>
<path d="M419.181 321.543L391.628 286.372L343.443 324.121L370.996 359.292L419.181 321.543Z" fill="#FBFBFB"/>
<path d="M408.793 324.537L388.807 299.025L387.987 299.667L407.973 325.179L408.793 324.537Z" fill="#85C1E9"/>
<path d="M405.352 327.636L385.366 302.125L384.547 302.767L404.533 328.278L405.352 327.636Z" fill="#85C1E9"/>
<path d="M401.656 330.33L381.67 304.818L380.85 305.46L400.836 330.972L401.656 330.33Z" fill="#85C1E9"/>
<path d="M398.213 333.429L378.227 307.917L377.408 308.559L397.394 334.071L398.213 333.429Z" fill="#85C1E9"/>
<path d="M394.225 336.351L374.239 310.839L373.419 311.481L393.405 336.993L394.225 336.351Z" fill="#85C1E9"/>
<path d="M390.785 339.45L370.798 313.938L369.979 314.58L389.965 340.092L390.785 339.45Z" fill="#85C1E9"/>
<path d="M387.089 342.144L367.103 316.632L366.283 317.274L386.269 342.786L387.089 342.144Z" fill="#85C1E9"/>
<path d="M383.647 345.243L363.66 319.731L362.841 320.374L382.827 345.885L383.647 345.243Z" fill="#85C1E9"/>
<path d="M379.8 348.055L359.814 322.543L358.995 323.185L378.981 348.697L379.8 348.055Z" fill="#85C1E9"/>
<path d="M376.358 351.154L356.372 325.643L355.552 326.285L375.538 351.797L376.358 351.154Z" fill="#85C1E9"/>
<path d="M384.63 295.383L387.507 299.055L388.327 298.413L385.45 294.741L384.63 295.383Z" fill="#85C1E9"/>
<path d="M380.966 298.197L383.843 301.869L384.662 301.227L381.786 297.555L380.966 298.197Z" fill="#85C1E9"/>
<path d="M377.381 301.034L380.258 304.706L381.078 304.064L378.201 300.391L377.381 301.034Z" fill="#85C1E9"/>
<path d="M373.716 303.847L376.592 307.519L377.412 306.877L374.535 303.205L373.716 303.847Z" fill="#85C1E9"/>
<path d="M369.834 306.912L372.711 310.584L373.531 309.942L370.654 306.27L369.834 306.912Z" fill="#85C1E9"/>
<path d="M366.167 309.725L369.044 313.398L369.864 312.755L366.987 309.083L366.167 309.725Z" fill="#85C1E9"/>
<path d="M362.584 312.562L365.461 316.234L366.28 315.592L363.404 311.92L362.584 312.562Z" fill="#85C1E9"/>
<path d="M358.918 315.375L361.795 319.047L362.615 318.405L359.738 314.733L358.918 315.375Z" fill="#85C1E9"/>
<path d="M355.184 318.33L358.061 322.003L358.881 321.36L356.004 317.688L355.184 318.33Z" fill="#85C1E9"/>
<path d="M351.525 321.144L354.402 324.816L355.221 324.174L352.345 320.502L351.525 321.144Z" fill="#85C1E9"/>
<path d="M420.302 310.199L403.09 288.571L395.193 294.856L412.405 316.484L420.302 310.199Z" fill="#5753BA"/>
<path d="M416.354 313.342L399.142 291.713L395.193 294.856L412.405 316.485L416.354 313.342Z" fill="#373789"/>
<path d="M372.62 427.543C374.036 428.052 375.316 428.545 375.3 428.652L377.284 423.925C375.342 429.578 375.583 435.486 377.583 440.704L375.957 436.726L372.897 438.116C370.973 438.99 370.122 441.258 370.996 443.181L372.273 445.991C373.154 447.93 375.451 448.782 377.379 447.875C378.74 447.234 379.994 446.676 380.058 446.763L377.976 441.671C379.764 445.807 382.67 449.455 386.478 452.112L386.231 452.008L385.051 455.154C384.308 457.133 385.31 459.338 387.288 460.081L390.178 461.164C392.173 461.913 394.4 460.89 395.121 458.885C395.63 457.47 396.122 456.189 396.23 456.206L395.977 456.099C398.874 456.65 401.787 456.662 404.596 456.19L405.694 458.608C406.568 460.532 408.835 461.383 410.759 460.509L413.568 459.233C415.508 458.351 416.36 456.055 415.452 454.126C415.095 453.369 414.769 452.654 414.562 452.15C417.018 450.456 419.18 448.308 420.907 445.77L422.731 446.455C424.709 447.198 426.914 446.196 427.657 444.217L428.741 441.328C429.489 439.333 428.466 437.106 426.461 436.385C425.881 436.176 425.328 435.972 424.872 435.793C425.371 432.667 425.244 429.534 424.57 426.545L426.182 425.812C428.106 424.938 428.957 422.671 428.083 420.747L426.807 417.937C425.925 415.998 423.629 415.146 421.7 416.054C421.073 416.349 420.474 416.624 419.997 416.829C418.172 414.469 415.901 412.426 413.256 410.833L414.028 408.775C414.77 406.796 413.769 404.591 411.79 403.849L408.9 402.765C406.905 402.017 404.679 403.039 403.958 405.044C403.597 406.046 403.248 406.971 403.035 407.426C400.178 407.138 397.334 407.362 394.62 408.041L393.385 405.323C392.511 403.399 390.244 402.548 388.32 403.422L385.51 404.699C383.571 405.58 382.719 407.877 383.627 409.805C384.266 411.166 384.825 412.42 384.738 412.484L386.357 411.822C383.143 414.086 380.444 417.135 378.587 420.821L379.496 418.658L376.349 417.478C374.37 416.735 372.165 417.737 371.423 419.715L370.339 422.605C369.593 424.596 370.616 426.823 372.62 427.543ZM405.837 417.862C413.586 420.77 417.526 429.441 414.617 437.191C411.709 444.94 403.038 448.88 395.289 445.972C387.54 443.063 383.6 434.392 386.509 426.643C389.416 418.893 398.088 414.953 405.837 417.862Z" fill="#6E6EC4"/>
<path d="M322.583 449.629C323.286 449.882 323.923 450.127 323.915 450.18L324.901 447.831C323.936 450.641 324.056 453.577 325.05 456.17L324.242 454.193L322.721 454.884C321.765 455.318 321.341 456.446 321.776 457.402L322.41 458.799C322.847 459.763 323.99 460.186 324.949 459.735C325.624 459.417 326.248 459.139 326.28 459.183L325.245 456.652C326.133 458.708 327.578 460.521 329.471 461.841L329.349 461.79L328.761 463.354C328.393 464.337 328.89 465.433 329.874 465.802L331.31 466.341C332.301 466.713 333.407 466.204 333.766 465.208C334.019 464.505 334.264 463.868 334.317 463.876L334.192 463.823C335.631 464.097 337.079 464.102 338.476 463.868L339.022 465.07C339.456 466.026 340.583 466.449 341.539 466.015L342.936 465.381C343.901 464.943 344.323 463.8 343.872 462.842C343.695 462.466 343.533 462.111 343.429 461.86C344.65 461.018 345.725 459.95 346.584 458.689L347.49 459.029C348.473 459.398 349.569 458.9 349.938 457.917L350.477 456.481C350.849 455.49 350.34 454.383 349.344 454.025C349.055 453.921 348.781 453.819 348.554 453.73C348.803 452.176 348.739 450.619 348.405 449.133L349.206 448.769C350.162 448.335 350.585 447.207 350.151 446.251L349.517 444.855C349.079 443.89 347.936 443.468 346.978 443.919C346.667 444.065 346.369 444.202 346.132 444.304C345.224 443.13 344.095 442.115 342.781 441.323L343.165 440.3C343.533 439.317 343.035 438.221 342.052 437.853L340.616 437.314C339.625 436.942 338.518 437.45 338.16 438.447C337.98 438.944 337.806 439.405 337.701 439.631C336.282 439.488 334.868 439.599 333.519 439.936L332.905 438.586C332.471 437.63 331.344 437.206 330.388 437.641L328.991 438.275C328.026 438.712 327.604 439.855 328.055 440.813C328.373 441.489 328.651 442.113 328.607 442.145L329.411 441.816C327.813 442.942 326.472 444.458 325.549 446.289L326.001 445.214L324.437 444.626C323.453 444.258 322.357 444.755 321.989 445.739L321.45 447.175C321.078 448.163 321.586 449.27 322.583 449.629ZM339.093 444.816C342.945 446.262 344.902 450.572 343.457 454.424C342.011 458.276 337.701 460.234 333.849 458.788C329.997 457.342 328.039 453.033 329.485 449.18C330.931 445.329 335.24 443.371 339.093 444.816Z" fill="#6E6EC4"/>
<path d="M430.277 375.18C430.98 375.433 431.617 375.678 431.609 375.731L432.596 373.382C431.63 376.192 431.75 379.128 432.745 381.722L431.936 379.744L430.415 380.435C429.459 380.87 429.036 381.997 429.47 382.953L430.104 384.35C430.543 385.314 431.685 385.737 432.643 385.286C433.319 384.968 433.942 384.69 433.974 384.734L432.939 382.202C433.827 384.258 435.272 386.071 437.165 387.391L437.043 387.34L436.456 388.904C436.087 389.887 436.585 390.983 437.568 391.353L439.004 391.892C439.995 392.264 441.102 391.755 441.46 390.759C441.713 390.056 441.958 389.419 442.012 389.427L441.886 389.374C443.325 389.648 444.773 389.654 446.17 389.419L446.716 390.621C447.15 391.577 448.278 392 449.234 391.566L450.63 390.932C451.595 390.494 452.017 389.351 451.566 388.393C451.389 388.017 451.227 387.662 451.124 387.411C452.344 386.569 453.419 385.501 454.278 384.24L455.185 384.581C456.168 384.949 457.264 384.451 457.633 383.468L458.173 382.032C458.544 381.04 458.036 379.934 457.04 379.576C456.751 379.472 456.476 379.37 456.25 379.281C456.498 377.727 456.435 376.17 456.1 374.684L456.902 374.32C457.858 373.886 458.281 372.758 457.847 371.803L457.212 370.406C456.775 369.441 455.632 369.019 454.674 369.47C454.362 369.616 454.065 369.753 453.827 369.855C452.919 368.681 451.791 367.666 450.476 366.874L450.86 365.852C451.229 364.868 450.731 363.772 449.748 363.404L448.312 362.865C447.321 362.493 446.214 363.001 445.855 363.998C445.676 364.495 445.502 364.956 445.397 365.182C443.977 365.039 442.563 365.15 441.214 365.487L440.601 364.137C440.167 363.181 439.039 362.757 438.083 363.192L436.686 363.826C435.722 364.263 435.299 365.406 435.75 366.364C436.068 367.04 436.346 367.664 436.302 367.696L437.106 367.367C435.509 368.493 434.167 370.009 433.244 371.84L433.696 370.765L432.132 370.178C431.149 369.81 430.053 370.307 429.684 371.291L429.145 372.727C428.772 373.714 429.281 374.821 430.277 375.18ZM446.787 370.368C450.639 371.813 452.597 376.123 451.151 379.975C449.705 383.827 445.396 385.785 441.544 384.339C437.691 382.893 435.734 378.584 437.18 374.732C438.626 370.881 442.935 368.922 446.787 370.368Z" fill="#6E6EC4"/>
<path d="M311.311 182.255C325.231 168.338 325.231 145.765 311.313 131.845C297.395 117.923 274.825 117.923 260.905 131.845C246.983 145.765 246.983 168.333 260.905 182.255C274.825 196.178 297.395 196.178 311.311 182.255Z" fill="#5753BA"/>
<path d="M307.44 178.382C319.22 166.602 319.22 147.5 307.44 135.719C295.661 123.937 276.558 123.937 264.78 135.719C252.997 147.5 252.997 166.601 264.78 178.382C276.558 190.166 295.66 190.166 307.44 178.382Z" fill="#ECF2F0"/>
<path d="M286.983 157.922C287.466 157.442 287.466 156.662 286.983 156.177C286.502 155.698 285.721 155.698 285.239 156.177C284.759 156.662 284.759 157.442 285.239 157.922C285.72 158.404 286.502 158.404 286.983 157.922Z" fill="#05062A"/>
<path d="M284.455 154.453C282.891 155.346 282.344 157.339 283.245 158.899C284.135 160.478 286.127 161.021 287.702 160.125C289.271 159.222 289.808 157.234 288.912 155.665C288.021 154.098 286.028 153.559 284.455 154.453Z" fill="#5753BA"/>
<path d="M287.542 156.951L302.907 134.533L301.722 133.703L285.841 155.805L270.718 145.62L269.899 146.793L286.355 158.671L286.487 158.482L286.491 158.486L287.146 157.529L287.547 156.953L287.542 156.951Z" fill="#5753BA"/>
<path d="M284.551 157.025C284.415 157.859 284.984 158.657 285.813 158.795C286.65 158.956 287.443 158.377 287.594 157.545C287.736 156.706 287.176 155.915 286.344 155.773C285.491 155.626 284.706 156.191 284.551 157.025Z" fill="#ECF2F0"/>
<path d="M286.786 128.726H285.432V133.702H286.786V128.726Z" fill="#6476F4"/>
<path d="M286.786 179.372H285.432V184.346H286.786V179.372Z" fill="#6476F4"/>
<path d="M263.277 155.859H258.3V157.218H263.277V155.859Z" fill="#6476F4"/>
<path d="M313.917 155.859H308.94V157.218H313.917V155.859Z" fill="#6476F4"/>
<path d="M305.29 136.395L301.771 139.914L302.729 140.871L306.248 137.352L305.29 136.395Z" fill="#6476F4"/>
<path d="M269.479 172.206L265.962 175.723L266.919 176.681L270.436 173.163L269.479 172.206Z" fill="#6476F4"/>
<path d="M266.919 136.394L265.958 137.355L269.477 140.874L270.438 139.913L266.919 136.394Z" fill="#6476F4"/>
<path d="M302.732 172.223L301.771 173.183L305.29 176.702L306.251 175.742L302.732 172.223Z" fill="#6476F4"/>
</svg>
