<svg width="53" height="43" viewBox="0 0 53 43" fill="none" xmlns="http://www.w3.org/2000/svg">
<path d="M52.2238 8.40388C52.3327 8.80288 52.2601 9.18374 52.0062 9.54647C51.7525 9.9092 51.4077 10.1268 50.9724 10.1994C44.7698 11.0699 41.6322 13.9717 41.5596 18.9048H47.1638C47.5627 18.9048 47.9074 19.0499 48.1976 19.3401C48.4877 19.6303 48.6328 19.9749 48.6328 20.3739V41.3756C48.6328 41.8109 48.4877 42.1739 48.1976 42.4638C47.9074 42.7542 47.5627 42.8991 47.1638 42.8991H29.5896C29.1906 42.8991 28.8367 42.7539 28.5284 42.4638C28.2201 42.1737 28.0659 41.8109 28.0659 41.3756V23.2033C28.0659 16.0212 29.8251 10.5438 33.3436 6.77169C36.8621 2.99933 42.1581 0.93178 49.2311 0.569052C49.5938 0.532779 49.9202 0.623461 50.2104 0.841098C50.5009 1.05873 50.6822 1.34892 50.7545 1.71164L52.2238 8.40388ZM25.0737 8.40388C25.1825 8.80288 25.1099 9.18374 24.856 9.54647C24.5659 9.94547 24.2213 10.1631 23.8223 10.1994C17.6196 11.0699 14.482 13.9717 14.4095 18.9048H20.0136C20.4126 18.9048 20.7572 19.0499 21.0474 19.3401C21.3376 19.6303 21.4827 19.9749 21.4827 20.3739V41.3756C21.4827 41.8109 21.3376 42.1739 21.0474 42.4638C20.7572 42.7542 20.4126 42.8991 20.0136 42.8991H2.43947C2.04047 42.8991 1.68681 42.7539 1.37849 42.4638C1.07017 42.1736 0.916016 41.8109 0.916016 41.3756V23.2033C0.916016 16.0212 2.67524 10.5438 6.1937 6.77169C9.71216 2.99933 15.008 0.93178 22.0812 0.569052C22.4439 0.532779 22.7704 0.623461 23.0605 0.841098C23.3507 1.05873 23.5321 1.34892 23.6046 1.71164L25.0737 8.40388Z" fill="#F66030"/>
<path d="M51.8678 8.48205L51.8698 8.49098L51.8722 8.49979C51.9503 8.78617 51.9044 9.05628 51.7076 9.33743L51.7075 9.33753C51.5106 9.61901 51.2532 9.78201 50.9169 9.83909C47.7769 10.2804 45.3622 11.242 43.7197 12.761C42.0662 14.2903 41.2327 16.35 41.1952 18.8995L41.1897 19.2694H41.5596H47.1638C47.463 19.2694 47.7158 19.3739 47.9398 19.5979C48.1638 19.8219 48.2683 20.0746 48.2683 20.3739V41.3756C48.2683 41.7208 48.1571 41.989 47.9399 42.206L47.9397 42.2061C47.7158 42.4302 47.4631 42.5346 47.1638 42.5346H29.5896C29.2895 42.5346 29.0234 42.4291 28.7782 42.1983C28.5454 41.9793 28.4304 41.7136 28.4304 41.3756V23.2033C28.4304 16.0771 30.1757 10.7023 33.6102 7.02033L33.3436 6.77169L33.6102 7.02032C37.0432 3.33956 42.2354 1.29281 49.2497 0.93309L49.2586 0.932638L49.2673 0.931759C49.5397 0.904526 49.775 0.970188 49.9917 1.13271L49.9919 1.13281C50.2089 1.29545 50.3419 1.50639 50.397 1.78288L50.397 1.78289L50.3985 1.78981L51.8678 8.48205ZM24.7176 8.48204L24.7196 8.49097L24.722 8.49979C24.7999 8.78526 24.7545 9.05457 24.5593 9.33476C24.316 9.66822 24.0593 9.81182 23.7893 9.83636L23.7804 9.83717L23.7716 9.8384C20.6293 10.2794 18.2129 11.2412 16.5696 12.761C14.9161 14.2903 14.0825 16.35 14.045 18.8995L14.0396 19.2694H14.4095H20.0136C20.3129 19.2694 20.5656 19.3739 20.7896 19.5979C21.0137 19.8219 21.1182 20.0746 21.1182 20.3739V41.3756C21.1182 41.7208 21.0069 41.989 20.7898 42.206L20.7896 42.2062C20.5657 42.4302 20.313 42.5346 20.0136 42.5346H2.43947C2.13943 42.5346 1.87358 42.4291 1.62828 42.1983C1.39547 41.9792 1.28053 41.7136 1.28053 41.3756V23.2033C1.28053 16.0771 3.02585 10.7023 6.46026 7.02033L6.46027 7.02032C9.89329 3.33956 15.0853 1.29281 22.0998 0.93309L22.1087 0.932638L22.1174 0.931759C22.3898 0.904526 22.6251 0.970189 22.8418 1.13271C23.0587 1.29537 23.1918 1.50642 23.2472 1.78313L23.2471 1.78314L23.2486 1.7898L24.7176 8.48204ZM21.0474 42.4638C20.7572 42.7542 20.4126 42.8991 20.0136 42.8991H2.43947C2.04047 42.8991 1.68681 42.7539 1.37849 42.4638H21.0474Z" stroke="#09223E" stroke-opacity="0.5" stroke-width="0.729032"/>
</svg>
