<svg width="610" height="542" viewBox="0 0 610 542" fill="none" xmlns="http://www.w3.org/2000/svg">
<path d="M313.428 226.17H16.7405C7.53304 226.17 0 218.637 0 209.429V95.9C0 86.6925 7.53304 79.1595 16.7405 79.1595H313.428C322.635 79.1595 330.168 86.6925 330.168 95.9V209.429C330.168 218.637 322.635 226.17 313.428 226.17Z" fill="#407BFF"/>
<path opacity="0.6" d="M313.428 226.17H16.7405C7.53304 226.17 0 218.637 0 209.429V95.9C0 86.6925 7.53304 79.1595 16.7405 79.1595H313.428C322.635 79.1595 330.168 86.6925 330.168 95.9V209.429C330.168 218.637 322.635 226.17 313.428 226.17Z" fill="white"/>
<path opacity="0.9" d="M16.7395 222.446C9.56266 222.446 3.72266 216.606 3.72266 209.429V95.8999C3.72266 88.723 9.56266 82.883 16.7395 82.883H313.425C320.602 82.883 326.442 88.723 326.442 95.8999V209.429C326.442 216.606 320.602 222.446 313.425 222.446H16.7395Z" fill="white"/>
<path d="M135.603 141.852V132.967H138.954C139.545 132.967 139.994 132.996 140.306 133.051C140.742 133.125 141.107 133.262 141.403 133.466C141.697 133.671 141.935 133.956 142.114 134.324C142.294 134.691 142.385 135.096 142.385 135.536C142.385 136.292 142.145 136.932 141.663 137.454C141.182 137.977 140.314 138.239 139.057 138.239H136.778V141.851L135.603 141.852ZM136.778 137.191H139.076C139.835 137.191 140.375 137.049 140.694 136.766C141.013 136.483 141.173 136.086 141.173 135.572C141.173 135.201 141.08 134.882 140.89 134.618C140.704 134.353 140.456 134.178 140.148 134.094C139.951 134.041 139.584 134.016 139.051 134.016H136.778V137.191Z" fill="#263238"/>
<path d="M143.729 141.852V135.415H144.71V136.39C144.961 135.934 145.192 135.633 145.405 135.487C145.616 135.342 145.85 135.268 146.104 135.268C146.472 135.268 146.846 135.385 147.225 135.62L146.849 136.631C146.582 136.474 146.315 136.395 146.048 136.395C145.81 136.395 145.597 136.467 145.405 136.61C145.216 136.754 145.08 136.953 145 137.207C144.878 137.596 144.818 138.019 144.818 138.479V141.849H143.729V141.852Z" fill="#263238"/>
<path d="M147.469 138.633C147.469 137.442 147.8 136.559 148.463 135.984C149.017 135.508 149.691 135.269 150.487 135.269C151.372 135.269 152.096 135.559 152.657 136.14C153.218 136.719 153.5 137.52 153.5 138.543C153.5 139.372 153.375 140.022 153.128 140.498C152.878 140.972 152.517 141.342 152.041 141.603C151.567 141.865 151.048 141.997 150.487 141.997C149.586 141.997 148.858 141.708 148.303 141.131C147.747 140.553 147.469 139.721 147.469 138.633ZM148.59 138.633C148.59 139.457 148.77 140.074 149.13 140.485C149.489 140.896 149.941 141.101 150.487 141.101C151.029 141.101 151.479 140.895 151.839 140.483C152.199 140.071 152.379 139.442 152.379 138.597C152.379 137.802 152.198 137.198 151.835 136.789C151.474 136.378 151.025 136.173 150.487 136.173C149.943 136.173 149.489 136.378 149.13 136.785C148.77 137.193 148.59 137.81 148.59 138.633Z" fill="#263238"/>
<path d="M154.579 142.385L155.64 142.543C155.685 142.871 155.808 143.109 156.01 143.258C156.281 143.46 156.65 143.561 157.12 143.561C157.625 143.561 158.015 143.459 158.289 143.258C158.564 143.056 158.749 142.773 158.846 142.409C158.903 142.187 158.928 141.72 158.924 141.009C158.448 141.571 157.854 141.852 157.142 141.852C156.257 141.852 155.572 141.533 155.088 140.895C154.602 140.257 154.36 139.491 154.36 138.597C154.36 137.983 154.472 137.417 154.693 136.897C154.915 136.377 155.238 135.977 155.659 135.694C156.082 135.411 156.577 135.269 157.147 135.269C157.907 135.269 158.532 135.577 159.026 136.19V135.415H160.033V140.978C160.033 141.98 159.931 142.69 159.727 143.108C159.523 143.526 159.199 143.856 158.758 144.098C158.315 144.34 157.77 144.462 157.125 144.462C156.358 144.462 155.737 144.29 155.264 143.944C154.791 143.601 154.563 143.081 154.579 142.385ZM155.481 138.519C155.481 139.363 155.649 139.98 155.984 140.367C156.32 140.756 156.739 140.949 157.245 140.949C157.745 140.949 158.166 140.757 158.506 140.371C158.845 139.985 159.015 139.38 159.015 138.556C159.015 137.768 158.84 137.175 158.491 136.774C158.141 136.374 157.72 136.174 157.228 136.174C156.742 136.174 156.33 136.372 155.991 136.765C155.651 137.159 155.481 137.743 155.481 138.519Z" fill="#263238"/>
<path d="M161.669 141.852V135.415H162.651V136.39C162.901 135.934 163.132 135.633 163.345 135.487C163.556 135.342 163.789 135.268 164.045 135.268C164.412 135.268 164.787 135.385 165.166 135.62L164.789 136.631C164.523 136.474 164.256 136.395 163.989 136.395C163.75 136.395 163.537 136.467 163.346 136.61C163.155 136.753 163.021 136.953 162.94 137.207C162.818 137.596 162.759 138.019 162.759 138.479V141.849H161.669V141.852Z" fill="#263238"/>
<path d="M170.22 139.779L171.347 139.918C171.17 140.577 170.841 141.087 170.359 141.451C169.878 141.815 169.264 141.996 168.517 141.996C167.575 141.996 166.829 141.707 166.278 141.126C165.726 140.546 165.45 139.733 165.45 138.687C165.45 137.603 165.729 136.764 166.287 136.166C166.844 135.567 167.568 135.268 168.456 135.268C169.317 135.268 170.02 135.561 170.565 136.147C171.11 136.733 171.383 137.557 171.383 138.62C171.383 138.684 171.381 138.781 171.377 138.91H166.577C166.617 139.618 166.817 140.159 167.177 140.535C167.537 140.911 167.985 141.098 168.522 141.098C168.922 141.098 169.264 140.994 169.546 140.783C169.83 140.575 170.054 140.241 170.22 139.779ZM166.638 138.016H170.233C170.184 137.475 170.048 137.069 169.821 136.798C169.473 136.378 169.022 136.167 168.469 136.167C167.969 136.167 167.547 136.335 167.204 136.67C166.864 137.006 166.675 137.454 166.638 138.016Z" fill="#263238"/>
<path d="M172.28 139.93L173.359 139.76C173.42 140.192 173.589 140.524 173.864 140.755C174.142 140.985 174.528 141.1 175.026 141.1C175.526 141.1 175.898 140.998 176.141 140.793C176.383 140.588 176.504 140.35 176.504 140.074C176.504 139.827 176.397 139.634 176.183 139.492C176.034 139.395 175.661 139.273 175.068 139.122C174.267 138.92 173.714 138.745 173.404 138.599C173.096 138.451 172.86 138.247 172.701 137.987C172.542 137.726 172.463 137.438 172.463 137.123C172.463 136.836 172.529 136.57 172.66 136.326C172.79 136.081 172.969 135.879 173.196 135.716C173.366 135.591 173.597 135.484 173.89 135.399C174.183 135.312 174.497 135.268 174.833 135.268C175.339 135.268 175.782 135.342 176.164 135.487C176.545 135.632 176.827 135.829 177.009 136.078C177.191 136.326 177.316 136.658 177.385 137.074L176.319 137.22C176.271 136.888 176.131 136.63 175.898 136.444C175.665 136.258 175.337 136.164 174.913 136.164C174.413 136.164 174.055 136.248 173.84 136.413C173.626 136.578 173.519 136.773 173.519 136.995C173.519 137.136 173.564 137.263 173.652 137.377C173.74 137.494 173.88 137.591 174.07 137.668C174.179 137.709 174.501 137.8 175.033 137.947C175.805 138.153 176.344 138.322 176.649 138.453C176.954 138.585 177.194 138.776 177.367 139.026C177.541 139.276 177.628 139.588 177.628 139.959C177.628 140.323 177.522 140.665 177.309 140.987C177.097 141.308 176.791 141.556 176.391 141.733C175.992 141.909 175.539 141.996 175.033 141.996C174.197 141.996 173.559 141.822 173.122 141.474C172.682 141.129 172.402 140.614 172.28 139.93Z" fill="#263238"/>
<path d="M178.487 139.93L179.566 139.76C179.627 140.192 179.796 140.524 180.071 140.755C180.349 140.985 180.735 141.1 181.233 141.1C181.733 141.1 182.106 140.998 182.348 140.793C182.59 140.588 182.711 140.35 182.711 140.074C182.711 139.827 182.604 139.634 182.39 139.492C182.241 139.395 181.868 139.273 181.275 139.122C180.475 138.92 179.921 138.745 179.611 138.599C179.303 138.451 179.067 138.247 178.908 137.987C178.749 137.726 178.67 137.438 178.67 137.123C178.67 136.836 178.736 136.57 178.867 136.326C178.997 136.081 179.176 135.879 179.403 135.716C179.573 135.591 179.804 135.484 180.097 135.399C180.39 135.312 180.704 135.268 181.041 135.268C181.546 135.268 181.989 135.342 182.371 135.487C182.752 135.632 183.034 135.829 183.216 136.078C183.398 136.326 183.523 136.658 183.593 137.074L182.526 137.22C182.478 136.888 182.338 136.63 182.106 136.444C181.872 136.258 181.544 136.164 181.12 136.164C180.62 136.164 180.262 136.248 180.048 136.413C179.833 136.578 179.726 136.773 179.726 136.995C179.726 137.136 179.771 137.263 179.859 137.377C179.947 137.494 180.087 137.591 180.277 137.668C180.386 137.709 180.708 137.8 181.24 137.947C182.012 138.153 182.551 138.322 182.856 138.453C183.161 138.585 183.401 138.776 183.574 139.026C183.748 139.276 183.835 139.588 183.835 139.959C183.835 140.323 183.729 140.665 183.516 140.987C183.305 141.308 182.998 141.556 182.598 141.733C182.199 141.909 181.746 141.996 181.24 141.996C180.404 141.996 179.766 141.822 179.329 141.474C178.889 141.129 178.609 140.614 178.487 139.93Z" fill="#263238"/>
<path d="M185.438 141.852V140.609H186.681V141.852H185.438Z" fill="#263238"/>
<path d="M188.886 141.852V140.609H190.128V141.852H188.886Z" fill="#263238"/>
<path d="M192.337 141.852V140.609H193.579V141.852H192.337Z" fill="#263238"/>
<path opacity="0.7" d="M313.427 82.8842H16.7404C9.56363 82.8842 3.72363 88.7242 3.72363 95.901V109.856H326.444V95.8998C326.444 88.723 320.604 82.8842 313.427 82.8842Z" fill="#407BFF"/>
<path d="M29.5809 96.3701C29.5809 93.7636 27.4683 91.651 24.8617 91.651C22.2552 91.651 20.1426 93.7636 20.1426 96.3701C20.1426 98.9767 22.2552 101.089 24.8617 101.089C27.4683 101.088 29.5809 98.9755 29.5809 96.3701Z" fill="white"/>
<path d="M48.201 96.3701C48.201 93.7636 46.0885 91.651 43.4819 91.651C40.8753 91.651 38.7627 93.7636 38.7627 96.3701C38.7627 98.9767 40.8753 101.089 43.4819 101.089C46.0885 101.088 48.201 98.9755 48.201 96.3701Z" fill="white"/>
<path d="M66.8192 96.3701C66.8192 93.7636 64.7066 91.651 62.1 91.651C59.4934 91.651 57.3809 93.7636 57.3809 96.3701C57.3809 98.9767 59.4934 101.089 62.1 101.089C64.7066 101.088 66.8192 98.9755 66.8192 96.3701Z" fill="white"/>
<path opacity="0.1" d="M304.527 170.814H25.6418C23.3715 170.814 21.5146 168.957 21.5146 166.687C21.5146 164.417 23.3715 162.56 25.6418 162.56H304.526C306.796 162.56 308.653 164.417 308.653 166.687C308.653 168.956 306.796 170.814 304.527 170.814Z" fill="#407BFF"/>
<path d="M232.743 170.814H25.6437C23.3735 170.814 21.5166 168.957 21.5166 166.687C21.5166 164.417 23.3735 162.56 25.6437 162.56H232.743C235.014 162.56 236.871 164.417 236.871 166.687C236.869 168.956 235.012 170.814 232.743 170.814Z" fill="#407BFF"/>
<path d="M253.172 189.29H242.604L236.867 183.553L231.13 189.29H220.562C218.071 189.29 216.033 191.328 216.033 193.82V206.953C216.033 209.444 218.071 211.482 220.562 211.482H253.171C255.662 211.482 257.7 209.444 257.7 206.953V193.82C257.701 191.328 255.663 189.29 253.172 189.29Z" fill="#263238"/>
<path d="M225.573 196.656H231.424V198.009C230.915 198.468 230.491 198.965 230.15 199.5C229.736 200.149 229.41 200.873 229.17 201.669C228.98 202.29 228.853 203.022 228.787 203.869H226.788C226.946 202.691 227.193 201.704 227.532 200.906C227.87 200.109 228.404 199.256 229.137 198.347H225.573V196.656Z" fill="white"/>
<path d="M233.073 196.656H237.832V198.255H234.608L234.436 199.337C234.659 199.233 234.879 199.153 235.097 199.101C235.316 199.049 235.531 199.023 235.744 199.023C236.466 199.023 237.051 199.242 237.5 199.677C237.95 200.114 238.174 200.663 238.174 201.326C238.174 201.791 238.059 202.239 237.828 202.669C237.597 203.098 237.268 203.427 236.844 203.653C236.419 203.879 235.876 203.992 235.213 203.992C234.737 203.992 234.329 203.947 233.99 203.856C233.651 203.766 233.362 203.632 233.124 203.453C232.886 203.274 232.693 203.072 232.545 202.845C232.398 202.619 232.275 202.336 232.177 201.998L234.204 201.777C234.253 202.103 234.368 202.35 234.548 202.518C234.727 202.687 234.943 202.772 235.192 202.772C235.471 202.772 235.701 202.666 235.883 202.454C236.066 202.242 236.156 201.926 236.156 201.507C236.156 201.077 236.064 200.762 235.881 200.562C235.697 200.362 235.452 200.262 235.147 200.262C234.953 200.262 234.766 200.309 234.586 200.405C234.452 200.473 234.304 200.598 234.143 200.778L232.435 200.532L233.073 196.656Z" fill="white"/>
<path d="M239.06 198.427C239.06 198.092 239.133 197.774 239.278 197.473C239.424 197.171 239.647 196.939 239.947 196.776C240.247 196.614 240.602 196.533 241.012 196.533C241.615 196.533 242.092 196.705 242.439 197.049C242.787 197.393 242.961 197.852 242.961 198.427C242.961 199.004 242.787 199.466 242.439 199.81C242.092 200.155 241.617 200.326 241.012 200.326C240.602 200.326 240.246 200.245 239.947 200.083C239.647 199.92 239.423 199.688 239.278 199.387C239.132 199.085 239.06 198.766 239.06 198.427ZM240.442 198.437C240.442 198.844 240.508 199.14 240.64 199.323C240.725 199.445 240.849 199.506 241.013 199.506C241.177 199.506 241.3 199.445 241.382 199.323C241.513 199.14 241.579 198.844 241.579 198.437C241.579 198.034 241.513 197.738 241.382 197.551C241.3 197.433 241.177 197.373 241.013 197.373C240.849 197.373 240.724 197.433 240.64 197.551C240.507 197.736 240.442 198.031 240.442 198.437ZM245.184 196.533H246.224L242.056 204.24H241.027L245.184 196.533ZM244.26 202.33C244.26 201.992 244.332 201.673 244.476 201.373C244.62 201.072 244.844 200.84 245.145 200.676C245.447 200.512 245.802 200.43 246.208 200.43C246.815 200.43 247.293 200.603 247.64 200.949C247.988 201.296 248.162 201.756 248.162 202.33C248.162 202.903 247.988 203.363 247.64 203.71C247.293 204.056 246.815 204.229 246.208 204.229C245.801 204.229 245.447 204.147 245.145 203.983C244.844 203.819 244.62 203.587 244.476 203.287C244.332 202.987 244.26 202.668 244.26 202.33ZM245.643 202.339C245.643 202.747 245.709 203.042 245.84 203.226C245.922 203.344 246.045 203.403 246.209 203.403C246.373 203.403 246.498 203.344 246.583 203.226C246.714 203.042 246.78 202.747 246.78 202.339C246.78 201.932 246.714 201.636 246.583 201.448C246.497 201.33 246.373 201.271 246.209 201.271C246.045 201.271 245.922 201.332 245.84 201.453C245.709 201.638 245.643 201.934 245.643 202.339Z" fill="white"/>
<path d="M525.37 17.7032C524.428 10.6441 518.146 4.66691 511.048 4.07702C509.186 3.92186 507.257 4.091 505.502 3.45219C504.064 2.928 502.87 1.90478 501.523 1.1779C497.201 -1.15371 491.279 0.0819893 488.252 3.94983C485.403 7.58842 484.244 2.52542 477.525 6.52046C471.958 9.83055 474.862 14.4337 474.862 14.4337C469.117 14.1904 463.536 18.6398 462.495 24.2955C461.834 27.8865 462.565 32.2576 459.766 34.6018C458.409 35.7382 456.519 36.0513 455.119 37.1333C452.514 39.1434 452.423 43.0238 453.012 46.2598C453.599 49.4958 454.61 52.9135 453.408 55.9748C451.438 60.9945 444.291 62.9864 443.409 68.3066C442.992 70.8185 444.049 73.8295 442.299 75.6802C441.596 76.4239 440.587 76.7706 439.668 77.2207C435.947 79.0462 433.395 83.0455 433.308 87.1901C433.221 91.3347 435.602 95.4374 439.243 97.4181C440.259 97.9717 441.467 98.4805 441.856 99.5694C442.289 100.784 441.483 102.045 440.907 103.2C438.796 107.421 439.832 112.987 443.319 116.167C446.807 119.348 452.446 119.865 456.453 117.374C458.595 121.201 462.285 124.132 466.498 125.353C468.439 125.915 470.542 126.119 472.467 125.509C474.01 125.021 475.35 124.043 476.568 122.979C482.383 117.913 490.539 110.162 491.075 102.469" fill="#263238"/>
<path d="M471.889 45.8177C471.892 45.8959 470.856 46.026 469.197 45.7827C467.545 45.5465 465.286 44.8392 463.123 43.4469C460.965 42.0463 459.392 40.2766 458.499 38.8662C457.596 37.453 457.29 36.4549 457.363 36.4256C457.472 36.3724 457.942 37.2796 458.92 38.5698C459.893 39.8615 461.452 41.4927 463.519 42.8347C465.591 44.1668 467.718 44.9203 469.295 45.2767C470.873 45.6402 471.892 45.6961 471.889 45.8177Z" fill="#455A64"/>
<path d="M475.786 28.1436C475.844 28.201 475.259 28.9544 474.04 29.8868C472.829 30.8191 470.935 31.8647 468.655 32.449C466.373 33.0263 464.209 33.0151 462.699 32.7747C461.182 32.5385 460.307 32.1583 460.333 32.0786C460.362 31.8451 464.062 32.9075 468.476 31.7417C472.908 30.6556 475.65 27.9521 475.786 28.1436Z" fill="#455A64"/>
<path d="M447.213 115.662C447.211 115.675 447.128 115.662 446.972 115.626C446.814 115.592 446.582 115.532 446.285 115.425C445.697 115.211 444.826 114.836 443.873 114.095C442.919 113.368 441.878 112.26 441.129 110.703C440.381 109.155 440.024 107.11 440.462 104.97C440.673 103.904 441.077 102.813 441.71 101.8C442.324 100.765 443.242 99.8945 444.166 99.0642C445.083 98.2269 446.076 97.391 446.706 96.3049C447.349 95.2327 447.41 93.8684 446.821 92.6817C446.252 91.4795 445.259 90.4339 444.328 89.2863C443.861 88.7104 443.396 88.1037 443.017 87.4146C442.648 86.7115 442.394 85.9468 442.269 85.1515C441.827 81.9951 443.441 78.4111 446.602 76.9461C448.193 76.243 449.848 76.2192 451.329 75.853C452.069 75.6797 452.77 75.4183 453.336 74.9961C453.891 74.5656 454.313 73.9841 454.499 73.3131C454.89 71.9614 454.542 70.4685 454.031 69.1573C453.494 67.8419 452.742 66.5839 452.243 65.2336C451.728 63.9014 451.499 62.3736 451.958 61.0121C452.391 59.652 453.339 58.5966 454.349 57.8166C456.417 56.2329 458.793 55.6877 460.798 55.095C462.822 54.5163 464.619 53.8272 465.889 52.776C467.141 51.722 467.795 50.3619 468.019 49.2408C468.251 48.103 468.038 47.1818 467.767 46.6394C467.503 46.0845 467.249 45.8594 467.286 45.8287C467.286 45.8287 467.577 46.016 467.897 46.5723C468.223 47.1147 468.498 48.0834 468.297 49.2925C468.101 50.4849 467.464 51.9261 466.153 53.0863C464.832 54.2325 462.975 54.9734 460.946 55.5884C458.923 56.2175 456.64 56.785 454.72 58.2947C453.778 59.0369 452.936 60.0098 452.569 61.205C452.179 62.3973 452.376 63.7337 452.87 64.9987C453.351 66.282 454.094 67.5023 454.676 68.9015C455.217 70.2896 455.635 71.8901 455.182 73.5172C454.962 74.3238 454.442 75.0534 453.771 75.5706C453.089 76.0808 452.286 76.3702 451.498 76.5575C449.925 76.9377 448.295 76.9811 446.903 77.6087C444.089 78.8891 442.571 82.2034 442.975 85.0494C443.086 85.7651 443.312 86.4473 443.635 87.0749C443.975 87.7025 444.413 88.2826 444.868 88.8474C445.771 89.9782 446.794 91.0476 447.429 92.3979C448.1 93.7356 448.014 95.4186 447.259 96.625C446.53 97.8453 445.488 98.684 444.569 99.5129C443.635 100.336 442.772 101.136 442.185 102.098C441.579 103.041 441.182 104.066 440.966 105.074C440.522 107.096 440.821 109.039 441.499 110.531C442.181 112.035 443.151 113.135 444.051 113.873C445.883 115.356 447.258 115.571 447.213 115.662Z" fill="#455A64"/>
<path d="M592.286 465.48H441.722V473.479H592.286V465.48Z" fill="#E0E0E0"/>
<path d="M592.286 473.477C592.286 473.477 592.272 473.304 592.265 472.974C592.259 472.62 592.251 472.134 592.24 471.488C592.226 470.149 592.205 468.165 592.177 465.478L592.286 465.588C572.764 465.736 512.684 465.842 441.728 465.842H441.721L442.085 465.478C442.085 468.218 442.085 470.941 442.085 473.477L441.721 473.114C483.636 473.174 521.218 473.227 548.354 473.264C561.926 473.311 572.882 473.348 580.476 473.375C584.25 473.397 587.188 473.414 589.211 473.427C590.195 473.438 590.951 473.446 591.492 473.452C592.008 473.459 592.286 473.477 592.286 473.477C592.286 473.477 592.043 473.494 591.542 473.502C591.013 473.508 590.272 473.516 589.309 473.527C587.304 473.54 584.395 473.557 580.657 473.579C573.084 473.606 562.155 473.642 548.621 473.688C521.418 473.727 483.741 473.78 441.72 473.839H441.356V473.474C441.356 470.94 441.356 468.215 441.356 465.476V465.112H441.721H441.728C512.684 465.112 572.764 465.22 592.286 465.367L592.396 465.368L592.395 465.477C592.367 468.192 592.346 470.196 592.332 471.549C592.321 472.184 592.313 472.662 592.307 473.01C592.299 473.33 592.292 473.483 592.286 473.477Z" fill="#263238"/>
<path d="M457.493 326.897L425.712 541.635H436.312L465.077 329.7V326.897H457.493Z" fill="#E0E0E0"/>
<path d="M457.495 326.895C457.495 326.895 458.076 326.872 459.322 326.856C460.596 326.845 462.493 326.828 465.078 326.806L465.167 326.805V326.895C465.172 327.738 465.177 328.679 465.181 329.698V329.705L465.18 329.712C461.743 356.15 450.335 441.017 436.672 541.684L436.629 541.999H436.31C435.776 541.999 435.195 541.999 434.615 541.999C431.565 541.999 428.528 541.999 425.71 541.999H425.291L425.353 541.582C434.257 481.799 442.258 428.087 448.035 389.298C450.944 369.96 453.294 354.346 454.918 343.544C455.736 338.18 456.371 334.015 456.805 331.167C457.024 329.774 457.191 328.707 457.307 327.966C457.423 327.249 457.495 326.895 457.495 326.895C457.495 326.895 457.455 327.285 457.356 328.022C457.251 328.776 457.1 329.859 456.902 331.275C456.49 334.143 455.887 338.34 455.111 343.744C453.534 354.571 451.257 370.223 448.435 389.606C442.74 428.343 434.852 481.985 426.074 541.687L425.715 541.27C428.533 541.27 431.569 541.27 434.619 541.27C435.199 541.27 435.78 541.27 436.314 541.27L435.954 541.585C449.618 440.919 461.242 356.081 464.976 329.683L464.974 329.697C464.98 328.678 464.984 327.737 464.988 326.894L465.078 326.984C462.514 326.961 460.633 326.944 459.369 326.933C458.117 326.918 457.495 326.895 457.495 326.895Z" fill="#263238"/>
<path d="M576.474 326.897L608.929 541.635H598.328L568.891 329.699V326.897H576.474Z" fill="#E0E0E0"/>
<path d="M576.474 326.896C576.474 326.896 575.852 326.92 574.6 326.936C573.336 326.947 571.455 326.964 568.891 326.986L568.981 326.896C568.985 327.739 568.99 328.68 568.995 329.699L568.993 329.685C572.809 356.078 584.705 440.916 598.689 541.586L598.328 541.271C598.864 541.271 599.445 541.271 600.028 541.271C603.077 541.271 606.112 541.271 608.928 541.271L608.569 541.689C599.603 481.986 591.546 428.344 585.728 389.607C582.846 370.223 580.518 354.572 578.909 343.743C578.117 338.339 577.5 334.143 577.08 331.275C576.877 329.859 576.723 328.774 576.616 328.022C576.515 327.286 576.474 326.896 576.474 326.896C576.474 326.896 576.547 327.25 576.665 327.967C576.783 328.708 576.954 329.775 577.176 331.168C577.619 334.016 578.268 338.18 579.102 343.545C580.762 354.347 583.159 369.961 586.129 389.299C592.028 428.088 600.197 481.8 609.29 541.582L609.355 542H608.931C606.114 542 603.08 542 600.031 542C599.449 542 598.868 542 598.331 542H598.014L597.97 541.685C583.989 441.015 572.31 356.146 568.79 329.713L568.789 329.705V329.698C568.795 328.679 568.799 327.738 568.803 326.895V326.804L568.892 326.806C571.477 326.828 573.374 326.845 574.649 326.856C575.893 326.873 576.474 326.896 576.474 326.896Z" fill="#263238"/>
<path d="M518.08 326.897H509.021V541.636H518.08V326.897Z" fill="#E0E0E0"/>
<path d="M518.084 541.634C518.084 541.634 518.067 541.244 518.058 540.51C518.053 539.757 518.044 538.673 518.033 537.259C518.022 534.39 518.004 530.195 517.982 524.794C517.955 513.968 517.917 498.32 517.871 478.942C517.833 440.212 517.78 386.582 517.72 326.895L518.084 327.259C515.219 327.259 512.134 327.259 509.034 327.259H509.024L509.388 326.895C509.388 429.714 509.274 516.316 509.121 541.635L509.023 541.537C512.106 541.563 514.357 541.582 515.858 541.593C516.592 541.603 517.14 541.61 517.526 541.616C517.895 541.623 518.084 541.634 518.084 541.634C518.084 541.634 517.919 541.646 517.561 541.652C517.181 541.658 516.641 541.665 515.917 541.674C514.403 541.687 512.134 541.705 509.026 541.732L508.928 541.733V541.634C508.774 516.315 508.662 429.713 508.662 326.894V326.531H509.026H509.035C512.134 326.531 515.219 326.531 518.085 326.531H518.448V326.894C518.39 386.687 518.337 440.412 518.297 479.21C518.251 498.554 518.214 514.17 518.187 524.977C518.165 530.342 518.146 534.509 518.135 537.358C518.124 538.751 518.116 539.819 518.11 540.56C518.102 541.28 518.084 541.634 518.084 541.634Z" fill="#263238"/>
<path d="M578.278 312.544H453.997V328.69H578.278V312.544Z" fill="#455A64"/>
<path d="M491.95 313.013C491.95 313.013 490.375 314.653 487.419 316.82C485.948 317.911 484.102 319.08 481.975 320.243C479.834 321.374 477.403 322.48 474.763 323.404C472.112 324.304 469.518 324.931 467.133 325.362C464.743 325.758 462.568 325.974 460.737 326.022C457.073 326.138 454.822 325.818 454.822 325.818C454.824 325.808 454.965 325.805 455.235 325.811C455.588 325.822 455.974 325.834 456.41 325.848C457.429 325.903 458.908 325.9 460.728 325.815C462.551 325.742 464.712 325.503 467.087 325.096C469.455 324.655 472.033 324.023 474.667 323.128C477.293 322.208 479.711 321.118 481.848 320.007C483.969 318.863 485.818 317.719 487.297 316.653C488.783 315.598 489.95 314.688 490.718 314.017C491.052 313.737 491.348 313.489 491.619 313.262C491.83 313.092 491.943 313.005 491.95 313.013Z" fill="#263238"/>
<path d="M509.727 323.624C509.727 323.624 509.62 323.586 509.42 323.5C509.217 323.417 508.926 323.27 508.531 323.117C507.738 322.816 506.544 322.411 504.956 322.187C503.375 321.977 501.385 321.912 499.175 322.405C496.972 322.869 494.535 323.891 492.37 325.706L492.324 325.508C496.293 326.476 500.968 327.13 506.059 326.994C508.603 326.941 511.243 326.676 513.929 326.207C515.257 325.94 516.669 325.766 517.843 325.057C518.419 324.706 518.904 324.183 519.112 323.542C519.33 322.904 519.28 322.184 519.041 321.537C518.5 319.955 516.972 319.001 515.425 318.602C513.863 318.164 512.232 318.101 510.66 317.939C507.499 317.717 504.432 317.809 501.539 318.125C495.743 318.746 490.666 320.3 486.626 322.04C482.57 323.772 479.524 325.673 477.504 327.08C476.477 327.762 475.73 328.366 475.212 328.756C474.694 329.148 474.412 329.344 474.412 329.344C474.412 329.344 474.668 329.119 475.175 328.711C475.683 328.306 476.419 327.686 477.44 326.987C479.446 325.549 482.485 323.616 486.547 321.853C490.592 320.082 495.686 318.498 501.511 317.859C504.418 317.535 507.502 317.436 510.682 317.657C512.266 317.819 513.893 317.878 515.505 318.325C516.304 318.547 517.098 318.878 517.786 319.39C518.478 319.902 519.019 320.622 519.316 321.441C519.572 322.135 519.634 322.922 519.391 323.637C519.157 324.357 518.616 324.931 517.998 325.306C516.739 326.061 515.313 326.223 513.981 326.493C511.28 326.961 508.624 327.224 506.068 327.271C500.95 327.397 496.253 326.723 492.271 325.732L492.053 325.678L492.225 325.535C494.433 323.702 496.908 322.683 499.139 322.23C501.377 321.748 503.385 321.834 504.976 322.064C506.575 322.31 507.769 322.737 508.557 323.059C509.334 323.403 509.727 323.624 509.727 323.624Z" fill="#263238"/>
<path d="M525.826 312.96C525.826 312.96 526.14 312.983 526.666 313.193C527.188 313.399 527.914 313.817 528.621 314.548C529.317 315.279 529.984 316.337 530.288 317.654C530.598 318.966 530.478 320.5 529.935 321.949C528.834 324.91 526.354 326.646 524.57 327.471C523.659 327.896 522.885 328.144 522.344 328.29C522.072 328.361 521.861 328.411 521.716 328.438C521.571 328.466 521.495 328.476 521.492 328.466C521.487 328.442 521.783 328.358 522.31 328.181C522.837 328.003 523.593 327.727 524.479 327.285C526.217 326.422 528.599 324.707 529.661 321.846C530.185 320.445 530.307 318.972 530.025 317.712C529.748 316.447 529.125 315.413 528.47 314.689C527.117 313.215 525.778 313.03 525.826 312.96Z" fill="#263238"/>
<path d="M545.285 312.888C545.309 312.947 544.161 313.26 542.562 314.263C540.96 315.245 538.992 317.014 537.351 319.377C535.708 321.742 534.611 324.13 533.824 325.846C533.497 326.573 533.192 327.25 532.901 327.892C532.681 328.374 532.551 328.637 532.532 328.63C532.514 328.623 532.609 328.344 532.797 327.848C532.985 327.352 533.266 326.639 533.634 325.764C534.376 324.022 535.448 321.605 537.112 319.211C538.774 316.816 540.801 315.038 542.454 314.088C543.278 313.604 543.988 313.292 544.49 313.118C544.737 313.021 544.94 312.972 545.074 312.932C545.21 312.894 545.282 312.879 545.285 312.888Z" fill="#263238"/>
<path d="M566.75 322.443C566.75 322.443 566.5 322.336 566.031 322.124C565.555 321.927 564.845 321.648 563.893 321.431C562.026 321.005 559.018 320.801 555.849 322.326C555.467 322.514 555.076 322.751 554.845 323.107C554.607 323.461 554.662 323.947 554.978 324.269C555.611 324.922 556.641 325.172 557.585 325.535C559.525 326.203 561.682 326.686 563.981 326.88C566.279 327.077 568.721 326.993 571.189 326.523C572.402 326.286 573.67 325.915 574.626 325.084C575.61 324.27 575.913 322.833 575.413 321.63C574.957 320.4 573.907 319.516 572.764 318.956C571.612 318.389 570.365 318.055 569.148 317.765C566.701 317.207 564.261 317.029 561.959 317.177C557.336 317.45 553.341 319.002 550.387 320.844C547.411 322.692 545.418 324.761 544.163 326.251C543.543 327.009 543.092 327.621 542.797 328.044C542.505 328.469 542.34 328.686 542.34 328.686C542.34 328.686 542.856 327.724 544.076 326.18C545.31 324.66 547.292 322.554 550.28 320.669C553.243 318.789 557.273 317.198 561.943 316.909C564.269 316.753 566.736 316.926 569.212 317.486C570.445 317.78 571.7 318.113 572.894 318.697C574.072 319.27 575.198 320.208 575.685 321.526C575.93 322.172 576.02 322.888 575.867 323.568C575.718 324.249 575.326 324.854 574.82 325.302C573.789 326.195 572.482 326.563 571.243 326.806C568.748 327.276 566.279 327.355 563.96 327.148C561.639 326.946 559.463 326.449 557.508 325.764C557.017 325.598 556.545 325.409 556.081 325.222C555.617 325.033 555.155 324.799 554.811 324.418C554.444 324.052 554.367 323.41 554.665 322.993C554.943 322.573 555.364 322.336 555.761 322.141C559.001 320.613 562.045 320.858 563.923 321.321C565.836 321.81 566.75 322.443 566.75 322.443Z" fill="#263238"/>
<path d="M486.18 107.252C486.18 107.252 479.452 109.396 475.351 116.662C471.286 123.863 472.37 127.419 473.434 131.673C474.498 135.926 476.371 144.372 476.476 143.828C476.581 143.284 486.18 107.252 486.18 107.252Z" fill="#A36957"/>
<path d="M486.632 107.252L495.183 102.177L534.951 87.2994L527.144 154.143L497.791 172.625L480.398 163.924L478.657 144.576L486.632 107.252Z" fill="#A36957"/>
<path d="M485.596 208.974L470.058 229.139L450.8 224.607L435.393 233.218L439.47 240.469L480.351 243.21L494.755 213.506L485.596 208.974Z" fill="#7C3B29"/>
<path d="M438.439 402.472L454.12 436.458L479.426 424.768L463.205 382.707L438.439 402.472Z" fill="#A36957"/>
<path d="M451.16 434.19L460.321 451.66C460.321 451.66 436.87 475.908 439.073 481.329L494.204 454.896L479.058 419.852L451.16 434.19Z" fill="#85C1E9"/>
<path d="M476.213 441.099C477.419 440.879 478.732 441.725 479.001 442.922C479.271 444.118 478.421 445.46 477.219 445.702C476.017 445.944 474.409 444.975 474.277 443.756C474.144 442.537 475.226 441.015 476.452 441.069" fill="#E0E0E0"/>
<g opacity="0.6">
<path d="M494.204 454.897L491.911 450.502L439.909 477.489C439.909 477.489 437.966 479.734 439.073 481.329L494.204 454.897Z" fill="white"/>
</g>
<path d="M459.297 451.809C459.435 452.075 460.84 451.551 462.579 451.781C464.325 451.966 465.566 452.804 465.763 452.579C465.987 452.408 464.813 450.992 462.702 450.75C460.594 450.49 459.119 451.591 459.297 451.809Z" fill="#263238"/>
<path d="M454.648 456.974C454.71 457.265 456.096 457.163 457.556 457.863C459.037 458.52 459.859 459.641 460.12 459.501C460.393 459.423 459.824 457.757 457.991 456.921C456.167 456.068 454.53 456.714 454.648 456.974Z" fill="#263238"/>
<path d="M454.686 465.465C454.958 465.405 454.687 463.88 453.289 462.738C451.898 461.584 450.351 461.611 450.344 461.89C450.298 462.185 451.494 462.584 452.628 463.54C453.784 464.468 454.406 465.567 454.686 465.465Z" fill="#263238"/>
<path d="M456.674 445.079C456.904 445.271 457.961 444.306 459.532 443.68C461.091 443.021 462.519 442.964 462.549 442.666C462.612 442.397 460.978 441.955 459.137 442.718C457.291 443.467 456.44 444.931 456.674 445.079Z" fill="#263238"/>
<path d="M455.042 441.588C455.002 441.604 454.771 441.233 454.537 440.479C454.311 439.73 454.097 438.577 454.275 437.155C454.326 436.804 454.368 436.431 454.537 436.028C454.693 435.634 455.083 435.198 455.638 435.141C455.907 435.102 456.244 435.2 456.455 435.422C456.675 435.644 456.759 435.928 456.795 436.177C456.858 436.692 456.782 437.119 456.768 437.576C456.694 438.508 456.694 439.401 456.546 440.485C456.473 441.037 456.021 441.686 455.404 441.867C454.81 442.071 454.224 442.024 453.676 441.937C452.604 441.753 451.588 441.442 450.649 441.043C450.179 440.841 449.729 440.618 449.301 440.377C448.889 440.133 448.432 439.903 448.079 439.453C447.736 439.021 447.606 438.296 448.047 437.807C448.506 437.331 449.096 437.387 449.515 437.456C450.401 437.668 451.043 438.019 451.682 438.347C452.923 439.024 453.795 439.773 454.349 440.324C454.899 440.88 455.144 441.241 455.111 441.272C455.02 441.374 453.889 440.019 451.445 438.806C450.85 438.526 450.116 438.191 449.413 438.051C449.061 437.994 448.676 438.033 448.527 438.23C448.355 438.408 448.393 438.777 448.609 439.044C448.827 439.323 449.226 439.541 449.637 439.769C450.046 439.991 450.475 440.2 450.923 440.386C451.817 440.756 452.786 441.045 453.795 441.22C454.28 441.301 454.774 441.322 455.158 441.186C455.544 441.052 455.761 440.767 455.846 440.338C455.976 439.452 456.011 438.419 456.096 437.531C456.124 437.077 456.198 436.613 456.158 436.265C456.114 435.898 455.953 435.727 455.693 435.746C455.092 435.785 454.883 436.59 454.781 437.236C454.356 439.917 455.189 441.565 455.042 441.588Z" fill="#263238"/>
<path d="M438.082 414.142L398.139 314.747C398.139 314.747 399.068 297.098 402.32 291.523C405.571 285.95 504.037 253.438 504.037 253.438C504.037 253.438 529.118 247.399 545.838 253.438C562.559 259.475 575.099 280.377 572.777 291.987C570.455 303.599 560.655 312.129 560.655 312.129L488.245 314.282L448.778 328.679L475.357 404.851C475.357 404.851 461.77 419.715 438.082 414.142Z" fill="#263238"/>
<path d="M402.71 347.504L401.777 384.921L429.643 385.603L433.658 340.701L402.71 347.504Z" fill="#A36957"/>
<path d="M400.125 381.577L400.634 401.298C400.634 401.298 368.886 412.703 368.47 418.539L429.607 419.158L431.487 381.028L400.125 381.577Z" fill="#85C1E9"/>
<path d="M419.564 398.842C420.744 399.177 421.548 400.516 421.261 401.709C420.975 402.901 419.62 403.731 418.435 403.415C417.249 403.101 416.234 401.524 416.652 400.371C417.07 399.218 418.714 398.331 419.789 398.921" fill="#E0E0E0"/>
<g opacity="0.6">
<path d="M429.605 419.161L429.486 414.206L370.914 415.465C370.914 415.465 368.18 416.621 368.468 418.542L429.605 419.161Z" fill="white"/>
</g>
<path d="M399.634 400.979C399.641 401.279 401.133 401.428 402.591 402.404C404.075 403.34 404.82 404.642 405.096 404.526C405.371 404.47 404.945 402.681 403.157 401.532C401.38 400.367 399.572 400.704 399.634 400.979Z" fill="#263238"/>
<path d="M393.189 403.564C393.118 403.852 394.405 404.373 395.408 405.647C396.446 406.891 396.688 408.258 396.986 408.248C397.265 408.298 397.491 406.551 396.216 404.993C394.953 403.421 393.199 403.279 393.189 403.564Z" fill="#263238"/>
<path d="M389.474 411.203C389.745 411.268 390.176 409.781 389.425 408.138C388.687 406.49 387.285 405.831 387.156 406.078C386.984 406.321 387.883 407.209 388.477 408.566C389.105 409.91 389.178 411.169 389.474 411.203Z" fill="#263238"/>
<path d="M400.251 393.778C400.374 394.051 401.747 393.654 403.434 393.785C405.123 393.883 406.43 394.462 406.589 394.207C406.764 393.993 405.493 392.875 403.505 392.748C401.518 392.607 400.107 393.542 400.251 393.778Z" fill="#263238"/>
<path d="M400.338 389.931C400.295 389.93 400.251 389.492 400.374 388.713C400.502 387.942 400.819 386.811 401.606 385.614C401.807 385.322 402.008 385.006 402.34 384.72C402.653 384.435 403.197 384.215 403.718 384.409C403.977 384.493 404.237 384.731 404.327 385.022C404.425 385.318 404.376 385.61 404.3 385.848C404.129 386.338 403.873 386.688 403.658 387.092C403.18 387.897 402.786 388.697 402.175 389.604C401.866 390.066 401.173 390.45 400.539 390.34C399.916 390.261 399.413 389.96 398.958 389.64C398.078 389.001 397.303 388.274 396.637 387.5C396.304 387.113 395.999 386.713 395.722 386.308C395.46 385.906 395.151 385.498 395.035 384.939C394.917 384.4 395.121 383.692 395.732 383.448C396.353 383.224 396.857 383.534 397.204 383.78C397.906 384.362 398.327 384.96 398.754 385.537C399.569 386.692 400.021 387.75 400.275 388.488C400.524 389.232 400.584 389.663 400.541 389.675C400.415 389.728 399.997 388.012 398.342 385.845C397.931 385.332 397.421 384.707 396.852 384.271C396.561 384.063 396.198 383.93 395.978 384.04C395.746 384.124 395.616 384.472 395.693 384.808C395.764 385.154 396.027 385.526 396.295 385.914C396.564 386.294 396.859 386.67 397.177 387.035C397.816 387.763 398.559 388.449 399.386 389.052C399.784 389.338 400.219 389.574 400.625 389.623C401.03 389.674 401.35 389.513 401.617 389.166C402.126 388.428 402.612 387.517 403.081 386.758C403.306 386.362 403.577 385.978 403.694 385.648C403.817 385.3 403.749 385.075 403.507 384.978C402.949 384.749 402.408 385.378 402.031 385.912C400.46 388.129 400.481 389.976 400.338 389.931Z" fill="#263238"/>
<path d="M418.985 243.624C418.985 243.624 402.289 242.289 400.431 260.404C398.573 278.519 396.749 363.052 396.749 363.052L435.764 366.303L441.803 279.914L504.041 253.44C504.041 253.44 430.131 241.303 418.985 243.624Z" fill="#263238"/>
<path d="M487.79 219.18C487.79 219.18 477.657 247.589 479.587 250.755C481.518 253.921 507.574 266.949 507.574 266.949L572.772 291.988C572.772 291.988 579.468 281.337 579.468 264.975C579.468 248.613 556.789 219.18 556.789 219.18H487.79Z" fill="#263238"/>
<path d="M507.123 251.989C507.127 251.999 507.024 252.055 506.817 252.154C506.578 252.264 506.273 252.405 505.891 252.582C505.032 252.965 503.825 253.501 502.281 254.188C499.08 255.583 494.484 257.584 488.729 260.092C477.1 265.098 460.8 272.115 441.939 280.234L442.15 279.937C441.558 288.47 440.918 297.687 440.257 307.222C438.672 329.512 437.21 350.063 436.052 366.323L436.031 366.618L435.739 366.593C423.873 365.551 414.135 364.697 407.317 364.097C403.965 363.784 401.331 363.538 399.49 363.366C398.624 363.276 397.946 363.206 397.445 363.154C396.984 363.101 396.748 363.067 396.749 363.052C396.75 363.036 396.989 363.042 397.452 363.066C397.954 363.098 398.635 363.14 399.504 363.194C401.348 363.33 403.984 363.523 407.343 363.769C414.168 364.307 423.912 365.076 435.787 366.014L435.474 366.282C436.59 350.02 438.001 329.464 439.53 307.172C440.201 297.637 440.851 288.421 441.452 279.888L441.467 279.675L441.663 279.591C460.565 271.567 476.9 264.634 488.554 259.687C494.342 257.259 498.966 255.32 502.187 253.97C503.751 253.328 504.973 252.826 505.842 252.47C506.235 252.316 506.547 252.193 506.792 252.097C507.007 252.017 507.119 251.979 507.123 251.989Z" fill="#455A64"/>
<path d="M558.97 254.831C558.953 254.878 558.302 254.696 557.14 254.33C555.846 253.912 554.199 253.381 552.231 252.748C548.089 251.434 542.342 249.603 535.802 248.596C529.261 247.587 523.21 247.899 518.983 248.813C514.736 249.691 512.297 250.903 512.243 250.766C512.224 250.728 512.816 250.395 513.938 249.907C515.059 249.417 516.738 248.821 518.871 248.31C523.129 247.253 529.288 246.853 535.91 247.876C542.528 248.895 548.286 250.819 552.394 252.26C554.451 252.99 556.1 253.616 557.234 254.063C558.369 254.512 558.987 254.784 558.97 254.831Z" fill="#455A64"/>
<path d="M549.757 239.857C549.738 239.973 547.573 239.55 544.056 239.824C542.3 239.946 540.211 240.216 537.885 240.486C535.561 240.762 533.012 241.074 530.373 241.575C525.076 242.518 520.518 244.363 517.598 246.313C514.65 248.231 513.269 249.981 513.168 249.882C513.139 249.858 513.438 249.39 514.114 248.655C514.791 247.922 515.838 246.909 517.31 245.885C520.215 243.782 524.874 241.811 530.237 240.857C532.91 240.351 535.479 240.056 537.812 239.816C540.142 239.584 542.246 239.366 544.03 239.307C545.812 239.243 547.261 239.345 548.248 239.496C549.237 239.647 549.765 239.813 549.757 239.857Z" fill="#455A64"/>
<path d="M486.182 107.252C486.182 107.252 475.101 142.803 475.353 152.982C475.604 163.161 479.829 192.069 479.345 197.769C478.861 203.47 480.845 219.179 487.792 219.179C494.74 219.179 556.791 219.179 556.791 219.179C556.791 219.179 572.374 214.869 573.051 205.505C573.728 196.141 552.149 105.346 552.149 105.346C552.149 105.346 548.077 88.6533 542.378 87.4316C536.678 86.2099 530.312 87.4176 526.494 99.2238C522.678 111.031 521.396 127.639 513.253 135.783C505.11 143.926 493.519 153.073 493.519 153.073C493.519 153.073 484.155 145.248 483.748 134.662C483.342 124.076 487.29 106.912 487.29 106.912L486.182 107.252Z" fill="#85C1E9"/>
<path d="M558.822 113.448C557.122 110.679 554.28 108.753 551.236 107.619C548.191 106.485 544.93 106.076 541.694 105.788C538.799 105.531 535.838 105.37 533.024 106.1C530.211 106.829 529.042 110.316 527.868 112.974C525.983 124.873 526.625 137.164 529.735 148.802C530.201 150.543 530.739 152.307 531.804 153.758C532.84 155.17 534.308 156.194 535.781 157.141C538.226 158.71 540.873 160.168 543.77 160.391C548.94 160.786 553.713 157.039 556.125 152.449C558.539 147.86 559.082 142.55 559.581 137.389C559.892 134.163 560.206 130.937 560.517 127.712C560.99 122.857 561.374 117.605 558.822 113.448Z" fill="#A36957"/>
<path d="M496.411 219.947C496.386 220.02 495.22 219.676 493.681 218.505C492.139 217.356 490.351 215.295 489.068 212.659C487.784 210.024 487.134 207.456 486.72 205.614C486.316 203.763 486.15 202.606 486.243 202.583C486.344 202.558 486.689 203.679 487.217 205.485C487.757 207.286 488.477 209.786 489.721 212.337C490.964 214.886 492.606 216.9 494.008 218.106C495.402 219.332 496.467 219.837 496.411 219.947Z" fill="#263238"/>
<path d="M532.918 175.888C532.945 175.923 532.546 176.288 531.762 176.867C530.976 177.443 529.778 178.206 528.191 178.947C526.607 179.692 524.605 180.366 522.301 180.714C520.001 181.038 517.392 181.02 514.773 180.388C509.478 179.158 505.495 176.036 503.059 173.592C501.827 172.352 500.948 171.245 500.366 170.465C499.8 169.672 499.519 169.214 499.557 169.186C499.662 169.103 500.913 170.862 503.417 173.223C505.906 175.537 509.831 178.497 514.938 179.679C520.036 180.914 524.871 179.823 527.982 178.476C531.144 177.131 532.838 175.767 532.918 175.888Z" fill="#263238"/>
<path d="M495.55 218.67C495.402 218.79 494.453 217.704 494.125 216.009C493.787 214.314 494.255 212.95 494.439 213.006C494.647 213.045 494.529 214.339 494.84 215.869C495.13 217.401 495.727 218.555 495.55 218.67Z" fill="#263238"/>
<path d="M524.141 113.284C524.17 113.362 523.381 113.288 522.452 114.138C522.012 114.562 521.565 115.216 521.369 116.078C521.173 116.92 521.247 118.035 522.002 118.839L522.247 119.099L521.9 119.203C520.4 119.648 518.864 120.866 517.999 122.708C517.131 124.502 516.903 126.983 518.136 129.003L518.557 129.692L517.777 129.488C516.151 129.064 514.149 129.657 512.999 131.107C511.848 132.535 511.695 134.832 512.776 136.474L512.133 136.793C511.763 135.65 510.227 135.201 508.938 135.557C507.556 135.861 506.648 137.057 506.216 138.382C505.768 139.708 505.689 141.135 505.625 142.521L505.531 144.53L504.936 142.612C504.62 141.596 503.363 141.068 502.329 141.24C501.281 141.393 500.436 142.253 500.002 143.199C499.082 145.167 499.64 147.34 500.059 149.189L499.496 149.251C499.518 148.285 498.987 147.412 498.309 146.838C497.614 146.27 496.768 145.959 495.98 145.977C494.333 145.989 493.369 147.412 493.165 148.503C492.906 149.643 493.197 150.573 493.496 151.103C493.806 151.641 494.084 151.848 494.052 151.883C494.052 151.883 493.729 151.73 493.353 151.191C492.99 150.66 492.621 149.681 492.85 148.438C492.966 147.832 493.212 147.147 493.738 146.572C494.245 145.992 495.05 145.548 495.967 145.518C496.877 145.475 497.839 145.808 498.639 146.437C499.419 147.07 500.074 148.074 500.069 149.262L500.056 151.56L499.505 149.323C499.273 148.381 499.018 147.38 498.92 146.294C498.819 145.219 498.901 144.021 499.413 142.923C499.902 141.845 500.857 140.788 502.228 140.563C503.509 140.352 505.111 140.935 505.613 142.4L504.923 142.491C504.985 141.091 505.049 139.61 505.537 138.148C505.78 137.421 506.149 136.709 506.675 136.102C507.213 135.471 507.972 135.051 508.763 134.849C509.538 134.663 510.362 134.646 511.126 134.92C511.894 135.16 512.556 135.798 512.82 136.551L513.822 139.411L512.177 136.87C510.922 134.931 511.11 132.342 512.458 130.669C513.815 128.996 516.067 128.354 517.946 128.856L517.586 129.342C516.226 127.053 516.539 124.366 517.498 122.459C518.457 120.498 520.149 119.21 521.784 118.773L521.682 119.135C520.815 118.156 520.793 116.892 521.038 115.992C521.287 115.062 521.8 114.383 522.297 113.958C522.805 113.527 523.305 113.371 523.632 113.298C523.966 113.262 524.141 113.266 524.141 113.284Z" fill="#85C1E9"/>
<path d="M486.53 107.466C486.544 107.458 486.612 107.544 486.724 107.733C486.818 107.927 486.945 108.238 486.972 108.667C486.997 109.092 486.93 109.638 486.649 110.204C486.369 110.758 485.855 111.365 485.041 111.625L485.107 111.293C486.171 112.122 487.047 113.663 487.067 115.512C487.111 117.304 486.336 119.548 484.293 120.709L484.324 120.185C486.066 121.387 486.712 123.832 486.248 126.043C485.768 128.306 484.3 130.245 482.837 132.095L482.264 131.656C483.325 130.305 485.536 130.589 486.463 131.977C487.299 133.232 487.17 134.804 486.601 136.013C486.021 137.239 485.086 138.158 484.197 138.983L483.836 138.391C486.122 137.624 488.613 139.137 489.054 141.262C489.467 143.388 488.077 145.406 486.296 145.919L485.487 146.153L485.974 145.466C486.66 144.499 487.883 144.231 488.835 144.379C489.815 144.516 490.669 144.965 491.297 145.56C492.574 146.822 492.738 148.419 492.792 149.569C492.815 150.757 492.664 151.667 492.564 152.279C492.457 152.893 492.378 153.213 492.349 153.209C492.246 153.202 492.543 151.885 492.457 149.584C492.369 148.48 492.118 146.962 490.975 145.908C490.406 145.394 489.622 145.008 488.768 144.909C487.924 144.802 486.969 145.051 486.452 145.807L486.13 145.355C487.598 144.925 488.782 143.132 488.409 141.4C488.068 139.689 485.892 138.407 484.077 139.056L482.462 139.632L483.716 138.463C484.587 137.651 485.447 136.779 485.947 135.708C486.439 134.672 486.508 133.335 485.865 132.391C485.219 131.357 483.471 131.204 482.845 132.088L482.272 131.649C483.743 129.808 485.132 127.954 485.579 125.904C486.02 123.896 485.433 121.717 483.973 120.692L483.566 120.407L484.005 120.168C485.792 119.193 486.565 117.178 486.558 115.519C486.576 113.812 485.816 112.392 484.872 111.592L484.594 111.358L484.938 111.261C485.63 111.068 486.113 110.558 486.392 110.067C486.672 109.567 486.766 109.069 486.773 108.674C486.768 107.867 486.477 107.487 486.53 107.466Z" fill="#85C1E9"/>
<g opacity="0.3">
<path d="M500.711 170.774C501.235 175.983 503.726 181.042 507.799 184.331C511.871 187.62 517.531 188.989 522.565 187.549C527.598 186.109 531.776 181.755 532.649 176.593C529.099 178.21 525.494 179.844 521.639 180.427C513.42 181.67 504.643 177.527 500.378 170.391C500.565 170.589 500.753 170.786 500.94 170.985" fill="black"/>
</g>
<g opacity="0.3">
<path d="M486.218 203.666C485.176 208.877 487.123 214.582 491.134 218.068C491.998 218.819 493.152 219.505 494.23 219.118C490.361 214.609 487.613 209.144 486.297 203.35" fill="black"/>
</g>
<path d="M540.296 101.731C540.296 101.731 524.684 104.17 528.461 126.369C532.239 148.57 559.287 186.151 559.287 186.151L500.235 222.115L507.117 238.099L583.708 206.575C583.708 206.575 591.256 198.804 588.592 190.148C585.927 181.489 566.186 126.997 566.186 126.997C566.186 126.997 558.943 97.9569 540.296 101.731Z" fill="#A36957"/>
<path d="M448.774 235.768L469.892 222.427L497.89 223.742L500.234 222.115L507.116 238.099C507.116 238.099 499.581 241.701 495.635 242.023L471.216 240.172L445.273 238.219L448.774 235.768Z" fill="#A36957"/>
<path d="M559.141 186.592C559.099 186.62 558.614 185.976 557.771 184.786C556.926 183.6 555.739 181.855 554.306 179.679C551.438 175.327 547.624 169.213 543.699 162.294C539.778 155.369 536.492 148.957 534.232 144.259C533.101 141.91 532.213 139.998 531.63 138.662C531.043 137.328 530.74 136.58 530.786 136.559C530.831 136.538 531.221 137.244 531.886 138.54C532.607 139.949 533.552 141.798 534.693 144.029C537.068 148.662 540.418 155.023 544.332 161.934C548.249 168.84 551.984 174.983 554.739 179.4C556.067 181.525 557.169 183.286 558.007 184.63C558.776 185.867 559.183 186.564 559.141 186.592Z" fill="#7C3B29"/>
<path d="M573.654 191.646C573.514 191.829 570.726 189.485 566.587 187.975C562.463 186.419 558.82 186.376 558.834 186.147C558.799 185.975 562.566 185.684 566.84 187.292C571.127 188.86 573.793 191.538 573.654 191.646Z" fill="#7C3B29"/>
<path d="M363.758 169.184C364.297 170.801 385.485 242.022 385.485 242.022L507.117 250.754L511.584 243.21L443.684 238.098L424.606 165.02C423.812 161.98 420.839 160.038 417.736 160.536L363.758 169.184Z" fill="#455A64"/>
<path d="M402.14 199.073C403.167 201.191 402.738 203.521 401.182 204.275C399.627 205.029 397.533 203.924 396.505 201.805C395.478 199.685 395.907 197.357 397.463 196.602C399.019 195.85 401.113 196.955 402.14 199.073Z" fill="#FAFAFA"/>
<path d="M509.239 247.179C509.238 247.19 509.119 247.193 508.885 247.187C508.613 247.176 508.273 247.162 507.851 247.144C506.889 247.088 505.56 247.011 503.869 246.913C500.352 246.679 495.343 246.344 489.142 245.931C476.613 245.029 459.277 243.784 439.796 242.382L439.544 242.363L439.474 242.12C438.817 239.829 438.12 237.397 437.414 234.937C431.594 214.481 426.329 195.966 422.499 182.503C420.635 175.825 419.123 170.401 418.059 166.592C417.561 164.749 417.169 163.298 416.888 162.256C416.77 161.792 416.675 161.418 416.601 161.123C416.541 160.868 416.516 160.735 416.527 160.731C416.538 160.726 416.589 160.854 416.672 161.102C416.765 161.392 416.882 161.758 417.029 162.215C417.342 163.25 417.778 164.686 418.332 166.513C419.448 170.309 421.036 175.71 422.993 182.362C426.875 195.809 432.214 214.303 438.113 234.737C438.817 237.198 439.513 239.631 440.17 241.922L439.849 241.66C459.325 243.153 476.654 244.482 489.179 245.443C495.372 245.95 500.375 246.36 503.89 246.648C505.577 246.8 506.903 246.92 507.862 247.008C508.282 247.053 508.62 247.089 508.891 247.119C509.122 247.147 509.24 247.168 509.239 247.179Z" fill="#263238"/>
<path d="M526.363 29.5522L526.25 24.0797L493.154 19.1648C482.985 18.5051 472.447 29.0979 472.219 39.2854C471.966 50.6052 472.103 64.4354 473.782 72.8057C477.159 89.6358 490.23 91.2657 490.23 91.2657L490.984 108.079L528.465 107.029L526.363 29.5522Z" fill="#A36957"/>
<path d="M479.232 51.1266C479.238 52.2757 480.217 53.2178 481.416 53.2332C482.614 53.2486 483.581 52.333 483.576 51.1839C483.57 50.0349 482.591 49.0914 481.395 49.076C480.196 49.0592 479.227 49.9776 479.232 51.1266Z" fill="#263238"/>
<path d="M476.097 46.3384C476.378 46.611 477.974 45.3264 480.312 45.2369C482.647 45.1153 484.411 46.2475 484.653 45.9512C484.773 45.8198 484.477 45.3194 483.708 44.8049C482.95 44.2933 481.675 43.8181 480.219 43.8824C478.764 43.9495 477.56 44.5352 476.878 45.1125C476.182 45.694 475.958 46.2168 476.097 46.3384Z" fill="#263238"/>
<path d="M501.086 50.6601C501.092 51.8092 502.07 52.7513 503.269 52.7667C504.467 52.7821 505.435 51.8665 505.429 50.7174C505.423 49.5684 504.445 48.6249 503.247 48.6095C502.048 48.5927 501.079 49.5111 501.086 50.6601Z" fill="#263238"/>
<path d="M499.085 45.8439C499.366 46.1165 500.965 44.8319 503.301 44.7424C505.635 44.6208 507.4 45.7531 507.643 45.4567C507.762 45.3253 507.469 44.8249 506.698 44.3119C505.94 43.7989 504.665 43.3236 503.209 43.3893C501.752 43.4564 500.55 44.0421 499.868 44.6194C499.172 45.1995 498.948 45.7223 499.085 45.8439Z" fill="#263238"/>
<path d="M491.314 63.5229C491.319 63.3901 489.856 63.1972 487.489 62.9917C486.89 62.954 486.319 62.8589 486.203 62.4549C486.045 62.0286 486.269 61.3758 486.53 60.6699C487.032 59.2022 487.559 57.6645 488.111 56.0528C490.3 49.4815 491.859 44.0872 491.593 44.002C491.328 43.9153 489.339 49.1726 487.148 55.7439C486.623 57.364 486.121 58.9072 485.643 60.3847C485.444 61.0725 485.086 61.8567 485.428 62.7401C485.606 63.179 486.058 63.4851 486.445 63.5732C486.832 63.6739 487.168 63.6669 487.464 63.6725C489.839 63.7046 491.31 63.6557 491.314 63.5229Z" fill="#263238"/>
<path d="M490.244 91.3095C490.244 91.3095 502.247 91.5248 513.262 84.2798C513.262 84.2798 508.022 96.3725 490.426 95.5338L490.244 91.3095Z" fill="#7C3B29"/>
<path d="M492.524 69.1183C493.319 67.972 494.767 67.3025 496.237 67.4003C497.256 67.4688 498.301 67.9161 498.95 68.7171C499.6 69.5181 499.776 70.6853 499.248 71.496C498.653 72.4088 497.342 72.6674 496.214 72.3948C495.085 72.1222 494.095 71.4275 493.154 70.7328C492.894 70.5399 492.627 70.34 492.458 70.0688C492.291 69.7976 492.242 69.437 492.427 69.1994" fill="#7C3B29"/>
<path d="M498.251 64.8619C497.869 64.8549 497.968 67.3934 495.869 69.2819C493.773 71.1774 491.057 71.0012 491.052 71.3577C491.022 71.5184 491.674 71.826 492.817 71.8106C493.938 71.8036 495.56 71.3773 496.844 70.2226C498.125 69.0638 498.635 67.5667 498.68 66.5225C498.731 65.4574 498.423 64.841 498.251 64.8619Z" fill="#263238"/>
<path d="M498.107 36.7028C498.364 37.3291 500.685 36.9335 503.441 37.1515C506.202 37.3165 508.447 38.0294 508.787 37.4437C508.938 37.1641 508.528 36.5826 507.61 36.0025C506.698 35.4238 505.26 34.8982 503.606 34.7808C501.953 34.6676 500.456 34.9905 499.473 35.4378C498.483 35.8851 497.997 36.4051 498.107 36.7028Z" fill="#263238"/>
<path d="M476.674 39.5374C477.108 40.0518 478.696 39.4354 480.63 39.3305C482.562 39.1586 484.221 39.5416 484.576 38.9713C484.73 38.6945 484.451 38.1731 483.714 37.6992C482.987 37.2268 481.79 36.8661 480.461 36.9598C479.132 37.0562 477.998 37.5832 477.347 38.1549C476.686 38.7295 476.483 39.2844 476.674 39.5374Z" fill="#263238"/>
<path d="M467.86 18.7589C470.585 24.6857 476.7 33.5075 483.192 34.1449C489.685 34.7824 496.416 31.7518 500.241 26.468C501.333 31.2738 506.748 33.7144 511.628 34.4007C515.078 34.8858 518.706 34.8383 521.909 33.4698C525.115 32.1013 527.82 29.2203 528.264 25.7649C528.707 22.308 523.615 13.9601 520.176 13.3981" fill="#263238"/>
<path d="M520.726 105.34C521.037 110.81 525.191 115.845 530.501 117.189C530.331 121.636 533.729 125.951 538.09 126.828C542.452 127.704 547.253 125.037 548.815 120.87C549.224 119.778 549.446 118.579 550.169 117.663C551.828 115.562 555.063 115.979 557.61 115.154C562.197 113.668 564.184 108.046 563.667 103.252C563.565 102.307 563.391 101.352 563.531 100.411C563.816 98.4863 565.32 97.0186 566.443 95.4278C571.057 88.8887 569.134 79.3903 564.017 73.2356C562.312 71.1836 560.159 69.0393 560.316 66.375C560.403 64.8863 561.222 63.5569 561.764 62.1689C563.524 57.6706 562.156 52.131 558.502 48.9704C557.941 48.4854 557.299 48.0017 557.104 47.286C556.979 46.8317 557.058 46.3509 557.114 45.884C557.944 38.7983 552.243 31.5966 545.156 30.7789C544.73 30.73 544.288 30.6964 543.907 30.4979C542.818 29.9304 542.784 28.4305 542.642 27.2102C542.264 23.9881 539.773 17.9704 537.306 15.8639C530.469 10.0237 523.841 14.7763 521.477 16.9989C521.477 16.9989 516.795 40.2059 517.701 44.5267C518.606 48.8474 521.783 59.6262 520.525 64.5201C519.267 69.4139 517.205 79.4379 519.183 83.8509C521.164 88.2681 520.726 105.34 520.726 105.34Z" fill="#263238"/>
<path d="M546.302 30.6896C546.33 30.7315 546.008 30.9888 545.399 31.4221C544.795 31.8638 543.87 32.4271 542.688 33.052C540.329 34.3072 536.837 35.6659 532.79 36.3369C528.741 36.9939 524.996 36.8234 522.36 36.3872C521.04 36.1734 519.982 35.9343 519.27 35.7093C518.555 35.494 518.167 35.3528 518.18 35.3039C518.211 35.1823 519.807 35.5835 522.428 35.877C525.043 36.1762 528.706 36.2614 532.673 35.6184C536.636 34.9614 540.079 33.7104 542.461 32.5907C544.848 31.4752 546.233 30.5848 546.302 30.6896Z" fill="#455A64"/>
<path d="M548.534 32.3326C548.58 32.3522 548.403 32.84 548.039 33.7123C547.864 34.1526 547.631 34.681 547.3 35.2653C546.975 35.8524 546.644 36.5457 546.161 37.2418C545.274 38.6844 544.032 40.2849 542.502 41.9232C540.94 43.5279 539.069 45.1522 536.915 46.592C534.743 48.0052 532.513 49.0844 530.422 49.8881C528.314 50.6486 526.353 51.1602 524.678 51.4062C523.85 51.5767 523.081 51.6089 522.414 51.6746C521.747 51.7487 521.168 51.7556 520.696 51.7431C519.751 51.7347 519.232 51.7053 519.232 51.655C519.228 51.5082 521.318 51.5418 524.588 50.9002C526.223 50.594 528.131 50.0405 530.185 49.2619C532.22 48.4399 534.391 47.3664 536.517 45.9839C538.623 44.5749 540.466 43.0023 542.023 41.4563C543.547 39.8768 544.807 38.3419 545.733 36.9581C547.607 34.2057 548.4 32.2725 548.534 32.3326Z" fill="#455A64"/>
<path d="M536.396 118.542C536.399 118.504 536.688 118.551 537.211 118.451C537.725 118.347 538.483 118.037 539.161 117.286C539.84 116.55 540.412 115.399 540.43 113.959C540.483 112.524 540.061 110.915 539.552 109.141C539.091 107.388 538.46 105.262 539.187 103.042C539.904 100.843 541.674 99.1465 543.251 97.3376C544.039 96.4276 544.818 95.4589 545.272 94.3407C545.759 93.2364 545.7 91.942 545.166 90.8377C544.628 89.7236 543.625 88.8331 542.538 88.049C541.445 87.2564 540.238 86.5561 539.084 85.6992C537.945 84.8507 536.821 83.8051 536.308 82.3863C535.77 80.9773 536.088 79.3963 536.742 78.1942C538.054 75.7815 540.101 74.0328 540.587 71.7207C541.133 69.4255 540.071 67.1973 538.863 65.4975C537.62 63.7572 536.153 62.3789 534.786 61.1376C533.424 59.8796 532.255 58.6551 531.365 57.4655C530.482 56.2717 529.89 55.1088 529.595 54.0995C529.293 53.0875 529.292 52.2571 529.32 51.712C529.39 51.1654 529.453 50.8859 529.475 50.8901C529.577 50.8859 529.225 52.067 529.866 54.0142C530.487 55.9684 532.363 58.3476 535.132 60.7588C536.516 61.9708 538.045 63.3602 539.354 65.1467C540.002 66.0399 540.596 67.0422 540.988 68.18C541.389 69.3081 541.526 70.6067 541.242 71.8675C540.687 74.4647 538.557 76.2763 537.377 78.5255C536.783 79.6409 536.537 80.9521 536.991 82.1487C537.422 83.3424 538.417 84.3013 539.519 85.1177C540.627 85.9424 541.835 86.6441 542.963 87.4647C544.083 88.2782 545.184 89.2343 545.809 90.5315C546.431 91.8106 546.476 93.3566 545.918 94.6007C545.398 95.8573 544.563 96.8596 543.755 97.7836C542.13 99.6063 540.427 101.243 539.76 103.234C539.073 105.215 539.614 107.255 540.05 109.01C540.524 110.785 540.933 112.464 540.837 113.979C540.781 115.497 540.118 116.744 539.366 117.483C538.614 118.249 537.782 118.537 537.235 118.596C536.677 118.652 536.396 118.542 536.396 118.542Z" fill="#455A64"/>
</svg>
