<svg width="472" height="587" viewBox="0 0 472 587" fill="none" xmlns="http://www.w3.org/2000/svg">
<path d="M371.685 18.7643L0 61.605L6.68655 119.617L378.372 76.7767L371.685 18.7643Z" fill="#85C1E9"/>
<path d="M64.8495 29.2321L47.3083 31.2539L52.6761 77.8247L70.2173 75.8028L64.8495 29.2321Z" fill="#E5DFEF"/>
<path d="M192.5 14.5193L174.621 16.58L179.989 63.1507L197.868 61.09L192.5 14.5193Z" fill="#E5DFEF"/>
<path d="M318.478 0L301.383 1.97041L306.751 48.5411L323.846 46.5707L318.478 0Z" fill="#E5DFEF"/>
<path d="M368.29 77.8397L16.4997 118.387L42.3934 343.041L394.184 302.493L368.29 77.8397Z" fill="white"/>
<path d="M65.7937 128.162L28.8258 132.423L33.3395 171.583L70.3074 167.322L65.7937 128.162Z" fill="#E5DFEF"/>
<path d="M114.733 122.522L77.7649 126.783L82.2786 165.943L119.246 161.682L114.733 122.522Z" fill="#E5DFEF"/>
<path d="M163.676 116.881L126.708 121.141L131.221 160.302L168.189 156.041L163.676 116.881Z" fill="#E5DFEF"/>
<path d="M212.615 111.24L175.647 115.501L180.16 154.662L217.128 150.401L212.615 111.24Z" fill="#E5DFEF"/>
<path d="M261.557 105.599L224.59 109.86L229.103 149.02L266.071 144.759L261.557 105.599Z" fill="#E5DFEF"/>
<path d="M310.496 99.9587L273.528 104.22L278.041 143.38L315.009 139.119L310.496 99.9587Z" fill="#E5DFEF"/>
<path d="M359.438 94.3175L322.47 98.5784L326.984 137.739L363.952 133.478L359.438 94.3175Z" fill="#E5DFEF"/>
<path d="M71.6787 179.252L34.7108 183.513L39.2245 222.674L76.1924 218.413L71.6787 179.252Z" fill="#E5DFEF"/>
<path d="M120.621 173.613L83.6527 177.874L88.1664 217.034L125.134 212.773L120.621 173.613Z" fill="#E5DFEF"/>
<path d="M169.562 167.971L132.594 172.232L137.107 211.393L174.075 207.132L169.562 167.971Z" fill="#85C1E9"/>
<path d="M218.501 162.33L181.533 166.59L186.046 205.751L223.014 201.49L218.501 162.33Z" fill="#E5DFEF"/>
<path d="M267.443 156.69L230.475 160.951L234.989 200.111L271.957 195.85L267.443 156.69Z" fill="#E5DFEF"/>
<path d="M316.382 151.048L279.414 155.309L283.927 194.47L320.895 190.209L316.382 151.048Z" fill="#E5DFEF"/>
<path d="M365.324 145.408L328.356 149.669L332.87 188.83L369.838 184.569L365.324 145.408Z" fill="#E5DFEF"/>
<path d="M77.57 230.343L40.6021 234.604L45.1158 273.764L82.0837 269.504L77.57 230.343Z" fill="#E5DFEF"/>
<path d="M126.51 224.701L89.5422 228.962L94.0558 268.123L131.024 263.862L126.51 224.701Z" fill="#E5DFEF"/>
<path d="M175.453 219.061L138.485 223.322L142.999 262.483L179.966 258.222L175.453 219.061Z" fill="#E5DFEF"/>
<path d="M224.392 213.42L187.424 217.681L191.938 256.842L228.906 252.581L224.392 213.42Z" fill="#E5DFEF"/>
<path d="M273.335 207.78L236.367 212.041L240.88 251.201L277.848 246.941L273.335 207.78Z" fill="#E5DFEF"/>
<path d="M322.274 202.139L285.306 206.4L289.82 245.56L326.787 241.299L322.274 202.139Z" fill="#E5DFEF"/>
<path d="M371.216 196.497L334.248 200.758L338.761 239.919L375.729 235.658L371.216 196.497Z" fill="#E5DFEF"/>
<path d="M83.4595 281.432L46.4916 285.693L51.0053 324.854L87.9732 320.593L83.4595 281.432Z" fill="#E5DFEF"/>
<path d="M132.401 275.792L95.4334 280.053L99.9471 319.214L136.915 314.953L132.401 275.792Z" fill="#E5DFEF"/>
<path d="M181.34 270.151L144.373 274.412L148.886 313.572L185.854 309.311L181.34 270.151Z" fill="#E5DFEF"/>
<path d="M230.282 264.51L193.314 268.771L197.828 307.932L234.796 303.671L230.282 264.51Z" fill="#E5DFEF"/>
<path d="M279.224 258.869L242.256 263.13L246.77 302.291L283.738 298.03L279.224 258.869Z" fill="#E5DFEF"/>
<path d="M328.162 253.229L291.194 257.49L295.708 296.651L332.676 292.39L328.162 253.229Z" fill="#E5DFEF"/>
<path d="M377.105 247.588L340.137 251.849L344.651 291.009L381.619 286.748L377.105 247.588Z" fill="#E5DFEF"/>
<path d="M52.2823 138.378L54.3578 156.385L52.1773 156.636L50.3653 140.916L50.2598 140.928L46.2001 144.353L45.9447 142.138L50.1018 138.63L52.2823 138.378Z" fill="#85C1E9"/>
<path d="M97.1909 151.448L97.0085 149.866L102.202 142.674C102.812 141.832 103.31 141.103 103.696 140.488C104.082 139.868 104.355 139.296 104.514 138.773C104.679 138.243 104.73 137.703 104.666 137.152C104.593 136.519 104.377 135.988 104.019 135.56C103.667 135.132 103.215 134.821 102.665 134.629C102.114 134.437 101.513 134.379 100.863 134.454C100.171 134.534 99.5839 134.747 99.1011 135.094C98.6236 135.434 98.2736 135.875 98.051 136.417C97.8343 136.959 97.7654 137.573 97.8445 138.259L95.7695 138.498C95.6479 137.443 95.7844 136.488 96.179 135.635C96.5737 134.782 97.1644 134.084 97.9512 133.542C98.744 132.999 99.6649 132.668 100.714 132.547C101.769 132.425 102.73 132.54 103.596 132.892C104.462 133.243 105.17 133.77 105.72 134.473C106.271 135.176 106.599 135.99 106.706 136.916C106.782 137.579 106.737 138.24 106.569 138.901C106.407 139.555 106.078 140.303 105.581 141.144C105.089 141.979 104.391 143.01 103.487 144.237L99.9411 149.029L99.9573 149.169L108.328 148.204L108.551 150.139L97.1909 151.448Z" fill="#85C1E9"/>
<path d="M151.84 145.399C150.68 145.533 149.622 145.453 148.668 145.159C147.719 144.864 146.937 144.393 146.322 143.745C145.712 143.091 145.329 142.295 145.174 141.357L147.389 141.101C147.503 141.676 147.76 142.154 148.161 142.536C148.56 142.911 149.057 143.181 149.652 143.344C150.247 143.507 150.891 143.548 151.582 143.469C152.356 143.38 153.026 143.166 153.593 142.827C154.16 142.489 154.586 142.059 154.87 141.54C155.155 141.02 155.26 140.443 155.187 139.81C155.111 139.148 154.88 138.584 154.493 138.117C154.106 137.645 153.58 137.302 152.914 137.088C152.248 136.874 151.457 136.819 150.543 136.925L149.101 137.091L148.878 135.156L150.32 134.99C151.035 134.908 151.647 134.707 152.157 134.387C152.672 134.066 153.055 133.653 153.306 133.149C153.563 132.645 153.655 132.076 153.582 131.443C153.511 130.833 153.315 130.318 152.994 129.898C152.672 129.478 152.251 129.17 151.729 128.975C151.214 128.779 150.625 128.719 149.962 128.795C149.341 128.867 148.768 129.049 148.243 129.341C147.724 129.626 147.316 130.003 147.019 130.471C146.722 130.933 146.593 131.464 146.633 132.065L144.523 132.309C144.449 131.361 144.638 130.502 145.09 129.731C145.541 128.954 146.174 128.317 146.99 127.819C147.811 127.321 148.741 127.011 149.778 126.892C150.892 126.764 151.874 126.879 152.723 127.239C153.571 127.592 154.252 128.111 154.764 128.794C155.276 129.477 155.582 130.244 155.68 131.094C155.796 132.108 155.629 133.003 155.178 133.78C154.733 134.556 154.072 135.134 153.196 135.514L153.212 135.655C154.371 135.711 155.314 136.092 156.043 136.798C156.771 137.498 157.201 138.42 157.333 139.563C157.446 140.542 157.28 141.452 156.837 142.293C156.398 143.127 155.748 143.82 154.885 144.371C154.022 144.922 153.007 145.265 151.84 145.399Z" fill="#85C1E9"/>
<path d="M193.416 136.616L193.209 134.822L199.679 121.39L200.98 121.24L201.301 124.018L200.421 124.119L195.533 134.269L195.549 134.41L206.206 133.181L206.429 135.116L193.416 136.616ZM202.317 139.331L200.242 121.325L202.317 121.086L204.392 139.092L202.317 139.331Z" fill="#85C1E9"/>
<path d="M249.634 134.127C248.603 134.246 247.65 134.148 246.776 133.833C245.902 133.518 245.175 133.032 244.595 132.374C244.014 131.716 243.647 130.933 243.495 130.024L245.605 129.781C245.781 130.586 246.228 131.218 246.946 131.675C247.669 132.127 248.491 132.299 249.411 132.193C250.15 132.108 250.786 131.859 251.321 131.447C251.862 131.035 252.261 130.507 252.52 129.866C252.784 129.218 252.871 128.51 252.783 127.742C252.692 126.956 252.439 126.276 252.022 125.7C251.61 125.118 251.085 124.683 250.446 124.394C249.807 124.106 249.103 124.003 248.334 124.085C247.783 124.143 247.227 124.293 246.667 124.536C246.106 124.773 245.654 125.047 245.31 125.36L243.241 125.349L243.31 116.361L252.665 115.283L252.888 117.217L245.362 118.084L245.341 123.468L245.447 123.456C245.782 123.12 246.217 122.824 246.752 122.566C247.286 122.308 247.855 122.145 248.459 122.075C249.561 121.948 250.573 122.099 251.496 122.527C252.423 122.949 253.186 123.585 253.783 124.437C254.386 125.288 254.754 126.297 254.889 127.464C255.021 128.612 254.882 129.668 254.47 130.63C254.063 131.586 253.442 132.376 252.605 133.001C251.768 133.62 250.777 133.996 249.634 134.127Z" fill="#85C1E9"/>
<path d="M297.344 128.628C296.604 128.702 295.85 128.646 295.08 128.462C294.31 128.277 293.584 127.9 292.901 127.332C292.217 126.757 291.627 125.943 291.131 124.89C290.635 123.83 290.291 122.468 290.099 120.804C289.915 119.209 289.902 117.779 290.059 116.514C290.216 115.243 290.529 114.152 291.001 113.243C291.471 112.327 292.083 111.604 292.835 111.071C293.593 110.538 294.479 110.214 295.494 110.097C296.502 109.981 297.422 110.079 298.254 110.393C299.091 110.701 299.8 111.183 300.381 111.841C300.961 112.499 301.379 113.285 301.633 114.2L299.487 114.447C299.195 113.661 298.731 113.035 298.095 112.568C297.459 112.1 296.666 111.922 295.716 112.031C294.321 112.192 293.292 112.925 292.629 114.231C291.972 115.536 291.767 117.285 292.013 119.478L292.154 119.462C292.425 118.926 292.766 118.456 293.176 118.052C293.592 117.642 294.065 117.309 294.594 117.052C295.122 116.795 295.694 116.631 296.31 116.56C297.341 116.441 298.315 116.59 299.23 117.007C300.145 117.419 300.912 118.046 301.532 118.889C302.151 119.726 302.527 120.725 302.661 121.886C302.789 123 302.658 124.048 302.266 125.032C301.874 126.009 301.258 126.823 300.418 127.472C299.584 128.115 298.559 128.5 297.344 128.628ZM297.121 126.694C297.86 126.609 298.501 126.348 299.045 125.911C299.594 125.473 300.003 124.924 300.271 124.264C300.546 123.603 300.639 122.891 300.551 122.129C300.465 121.385 300.22 120.727 299.816 120.156C299.417 119.578 298.906 119.141 298.284 118.845C297.667 118.547 296.99 118.441 296.251 118.527C295.694 118.591 295.189 118.762 294.734 119.04C294.278 119.312 293.89 119.66 293.571 120.083C293.257 120.505 293.026 120.974 292.878 121.49C292.729 122 292.685 122.525 292.747 123.064C292.83 123.779 293.074 124.428 293.48 125.011C293.891 125.593 294.412 126.041 295.042 126.354C295.678 126.667 296.371 126.78 297.121 126.694Z" fill="#85C1E9"/>
<path d="M341.617 123.276L347.835 106.416L347.818 106.276L338.534 107.346L338.311 105.411L349.846 104.082L350.081 106.122L343.903 123.013L341.617 123.276Z" fill="#85C1E9"/>
<path d="M59.7121 207.787C58.5046 207.926 57.4131 207.835 56.4377 207.514C55.4674 207.187 54.6808 206.674 54.0778 205.978C53.4742 205.275 53.1192 204.437 53.0129 203.463C52.9193 202.702 52.9876 201.981 53.2181 201.301C53.4479 200.616 53.8016 200.026 54.2792 199.531C54.7619 199.03 55.3247 198.683 55.9677 198.49L55.9556 198.384C55.0682 198.261 54.3267 197.857 53.7309 197.171C53.1345 196.479 52.7842 195.656 52.6799 194.699C52.5687 193.786 52.7059 192.941 53.0918 192.166C53.4776 191.391 54.0568 190.748 54.8295 190.238C55.608 189.726 56.5248 189.41 57.5798 189.288C58.6232 189.168 59.5792 189.269 60.4478 189.59C61.3163 189.912 62.0266 190.406 62.5787 191.073C63.1366 191.739 63.4711 192.529 63.5824 193.443C63.6866 194.399 63.5241 195.282 63.0948 196.092C62.6706 196.895 62.0493 197.456 61.2309 197.776L61.2431 197.882C61.9073 197.924 62.5255 198.135 63.0978 198.515C63.6695 198.888 64.1482 199.382 64.5338 199.997C64.9188 200.606 65.1581 201.291 65.2518 202.053C65.3581 203.026 65.1943 203.924 64.7605 204.746C64.3318 205.562 63.6824 206.24 62.8121 206.779C61.947 207.313 60.9137 207.649 59.7121 207.787ZM59.4891 205.853C60.3039 205.759 60.992 205.546 61.5537 205.214C62.1153 204.882 62.5296 204.457 62.7966 203.939C63.0635 203.421 63.1628 202.84 63.0944 202.194C63.0101 201.515 62.765 200.935 62.3591 200.453C61.9531 199.971 61.434 199.615 60.8016 199.385C60.1752 199.154 59.4809 199.083 58.7189 199.171C57.9511 199.259 57.2825 199.488 56.7132 199.856C56.1498 200.224 55.7252 200.689 55.4395 201.25C55.1597 201.811 55.0619 202.431 55.1461 203.111C55.2146 203.756 55.4347 204.301 55.8067 204.745C56.1845 205.188 56.6875 205.508 57.3158 205.702C57.944 205.897 58.6685 205.947 59.4891 205.853ZM58.5041 197.307C59.1488 197.232 59.7055 197.038 60.174 196.722C60.6484 196.406 61.0025 196 61.2363 195.504C61.4701 195.008 61.5542 194.449 61.4884 193.827C61.4123 193.218 61.2076 192.704 60.8742 192.285C60.5401 191.86 60.1098 191.553 59.5832 191.365C59.0559 191.17 58.4611 191.111 57.7987 191.187C57.1247 191.265 56.5501 191.459 56.0751 191.769C55.5993 192.073 55.2501 192.47 55.0273 192.959C54.8038 193.442 54.7302 193.988 54.8063 194.597C54.872 195.219 55.0723 195.745 55.407 196.176C55.7476 196.606 56.1848 196.921 56.7186 197.121C57.2524 197.32 57.8476 197.382 58.5041 197.307Z" fill="#85C1E9"/>
<path d="M106.709 183.626C107.448 183.546 108.203 183.602 108.974 183.792C109.744 183.983 110.471 184.362 111.154 184.931C111.836 185.493 112.425 186.302 112.921 187.355C113.417 188.409 113.76 189.762 113.95 191.415C114.135 193.015 114.146 194.454 113.985 195.732C113.828 197.003 113.515 198.097 113.044 199.012C112.579 199.927 111.968 200.651 111.21 201.183C110.457 201.716 109.574 202.04 108.56 202.157C107.552 202.273 106.629 202.178 105.792 201.87C104.96 201.556 104.251 201.071 103.664 200.414C103.083 199.75 102.667 198.952 102.417 198.018L104.562 197.771C104.851 198.575 105.314 199.214 105.95 199.687C106.592 200.154 107.388 200.332 108.337 200.223C109.726 200.063 110.752 199.33 111.416 198.024C112.085 196.717 112.292 194.956 112.036 192.74L111.895 192.757C111.624 193.287 111.283 193.757 110.873 194.166C110.463 194.576 109.994 194.909 109.465 195.166C108.936 195.423 108.361 195.587 107.74 195.659C106.708 195.778 105.732 195.632 104.812 195.221C103.896 194.804 103.129 194.177 102.51 193.339C101.896 192.495 101.522 191.493 101.388 190.333C101.261 189.231 101.391 188.194 101.778 187.223C102.171 186.245 102.784 185.432 103.618 184.784C104.457 184.135 105.488 183.748 106.709 183.626ZM106.932 185.56C106.194 185.645 105.55 185.906 105 186.344C104.456 186.775 104.047 187.321 103.772 187.982C103.503 188.637 103.412 189.339 103.499 190.089C103.585 190.84 103.828 191.504 104.227 192.081C104.631 192.652 105.142 193.087 105.758 193.384C106.38 193.674 107.06 193.777 107.798 193.692C108.355 193.628 108.861 193.46 109.317 193.187C109.772 192.909 110.156 192.559 110.47 192.137C110.789 191.708 111.023 191.239 111.172 190.728C111.32 190.212 111.364 189.688 111.302 189.154C111.221 188.451 110.975 187.811 110.564 187.235C110.159 186.658 109.639 186.213 109.003 185.9C108.373 185.587 107.682 185.473 106.932 185.56Z" fill="#85C1E9"/>
<path d="M151.155 178.752L153.23 196.759L151.05 197.01L149.238 181.29L149.132 181.302L145.073 184.727L144.817 182.512L148.974 179.004L151.155 178.752Z" fill="#85C1E9"/>
<path d="M164.311 195.731C162.986 195.884 161.816 195.653 160.801 195.04C159.785 194.42 158.952 193.45 158.3 192.13C157.649 190.803 157.21 189.161 156.984 187.203C156.76 185.257 156.815 183.567 157.148 182.133C157.487 180.692 158.081 179.555 158.929 178.72C159.782 177.88 160.865 177.383 162.178 177.232C163.491 177.081 164.656 177.318 165.672 177.943C166.694 178.562 167.531 179.534 168.183 180.861C168.84 182.181 169.28 183.814 169.505 185.76C169.73 187.718 169.677 189.417 169.344 190.857C169.01 192.291 168.419 193.425 167.571 194.26C166.722 195.088 165.635 195.579 164.311 195.731ZM164.088 193.797C165.401 193.646 166.348 192.895 166.928 191.545C167.509 190.195 167.665 188.348 167.394 186.003C167.215 184.444 166.895 183.136 166.434 182.078C165.98 181.02 165.409 180.239 164.721 179.737C164.039 179.233 163.265 179.031 162.397 179.131C161.096 179.281 160.153 180.04 159.568 181.408C158.983 182.771 158.825 184.621 159.094 186.96C159.274 188.519 159.591 189.825 160.045 190.877C160.499 191.93 161.066 192.705 161.747 193.202C162.434 193.699 163.214 193.898 164.088 193.797Z" fill="#85C1E9"/>
<path d="M199.691 173.158L201.766 191.165L199.586 191.416L197.774 175.695L197.668 175.707L193.608 179.133L193.353 176.918L197.51 173.409L199.691 173.158Z" fill="#85C1E9"/>
<path d="M211.2 171.831L213.275 189.838L211.095 190.089L209.283 174.369L209.177 174.381L205.118 177.807L204.862 175.591L209.019 172.083L211.2 171.831Z" fill="#85C1E9"/>
<path d="M249.406 167.428L251.481 185.434L249.301 185.686L247.489 169.965L247.383 169.977L243.324 173.403L243.068 171.187L247.225 167.679L249.406 167.428Z" fill="#85C1E9"/>
<path d="M256.66 184.838L256.478 183.255L261.671 176.064C262.281 175.221 262.779 174.493 263.166 173.878C263.551 173.257 263.824 172.685 263.983 172.162C264.148 171.632 264.199 171.092 264.135 170.541C264.062 169.908 263.847 169.378 263.488 168.95C263.136 168.521 262.685 168.211 262.134 168.019C261.583 167.827 260.983 167.768 260.332 167.843C259.64 167.923 259.053 168.136 258.57 168.483C258.093 168.823 257.743 169.264 257.52 169.807C257.303 170.348 257.235 170.962 257.314 171.648L255.239 171.887C255.117 170.832 255.254 169.878 255.648 169.025C256.043 168.171 256.634 167.474 257.42 166.932C258.213 166.389 259.134 166.057 260.183 165.936C261.238 165.815 262.199 165.93 263.065 166.281C263.931 166.633 264.639 167.16 265.19 167.863C265.74 168.565 266.068 169.38 266.175 170.306C266.251 170.968 266.206 171.63 266.038 172.291C265.876 172.945 265.547 173.693 265.05 174.534C264.558 175.369 263.86 176.399 262.956 177.626L259.41 182.418L259.427 182.559L267.797 181.594L268.02 183.528L256.66 184.838Z" fill="#85C1E9"/>
<path d="M296.765 161.969L298.841 179.976L296.66 180.227L294.848 164.507L294.743 164.519L290.683 167.944L290.428 165.729L294.585 162.221L296.765 161.969Z" fill="#85C1E9"/>
<path d="M310.132 178.924C308.971 179.058 307.914 178.978 306.959 178.684C306.011 178.389 305.229 177.918 304.614 177.27C304.004 176.616 303.621 175.82 303.465 174.881L305.681 174.626C305.795 175.201 306.052 175.679 306.452 176.061C306.852 176.436 307.349 176.706 307.944 176.869C308.539 177.032 309.182 177.073 309.874 176.994C310.648 176.904 311.318 176.691 311.885 176.352C312.451 176.013 312.877 175.584 313.162 175.064C313.446 174.545 313.552 173.968 313.479 173.335C313.403 172.673 313.171 172.109 312.785 171.642C312.398 171.17 311.871 170.827 311.205 170.613C310.539 170.398 309.749 170.344 308.835 170.449L307.393 170.616L307.17 168.681L308.612 168.515C309.327 168.433 309.939 168.231 310.449 167.911C310.964 167.591 311.347 167.178 311.598 166.674C311.854 166.169 311.946 165.601 311.873 164.968C311.803 164.358 311.607 163.843 311.285 163.423C310.964 163.002 310.542 162.695 310.021 162.499C309.505 162.303 308.916 162.244 308.254 162.32C307.633 162.392 307.06 162.573 306.535 162.866C306.015 163.151 305.607 163.528 305.311 163.996C305.014 164.457 304.885 164.989 304.925 165.59L302.814 165.833C302.741 164.886 302.93 164.026 303.382 163.256C303.832 162.479 304.466 161.842 305.282 161.344C306.103 160.845 307.033 160.536 308.07 160.417C309.184 160.288 310.165 160.404 311.014 160.763C311.863 161.117 312.543 161.635 313.056 162.319C313.568 163.002 313.873 163.769 313.971 164.619C314.088 165.633 313.921 166.528 313.47 167.305C313.025 168.081 312.364 168.659 311.487 169.039L311.503 169.18C312.662 169.236 313.606 169.617 314.335 170.323C315.063 171.023 315.493 171.945 315.624 173.088C315.737 174.067 315.572 174.977 315.128 175.818C314.69 176.652 314.039 177.345 313.176 177.896C312.313 178.447 311.298 178.789 310.132 178.924Z" fill="#85C1E9"/>
<path d="M346.48 156.239L348.555 174.246L346.375 174.497L344.563 158.777L344.457 158.789L340.397 162.215L340.142 159.999L344.299 156.491L346.48 156.239Z" fill="#85C1E9"/>
<path d="M352.886 170.005L352.679 168.211L359.149 154.779L360.451 154.629L360.771 157.407L359.892 157.509L355.003 167.658L355.019 167.799L365.676 166.571L365.899 168.505L352.886 170.005ZM361.787 172.721L359.712 154.714L361.787 154.475L363.862 172.482L361.787 172.721Z" fill="#85C1E9"/>
<path d="M60.5224 240.968L62.5978 258.975L60.4173 259.226L58.6053 243.505L58.4998 243.517L54.4401 246.943L54.1848 244.728L58.3419 241.219L60.5224 240.968Z" fill="#85C1E9"/>
<path d="M73.4319 257.975C72.4003 258.094 71.4476 257.996 70.5738 257.681C69.7001 257.366 68.9729 256.88 68.3922 256.222C67.8115 255.564 67.4451 254.781 67.2928 253.872L69.4029 253.629C69.5789 254.434 70.0259 255.066 70.7439 255.523C71.467 255.975 72.2887 256.147 73.209 256.041C73.9475 255.956 74.5841 255.707 75.1187 255.295C75.6591 254.883 76.0587 254.355 76.3173 253.714C76.5812 253.066 76.6688 252.358 76.5803 251.59C76.4898 250.804 76.2361 250.124 75.8194 249.548C75.4078 248.966 74.8825 248.531 74.2434 248.242C73.6043 247.954 72.9005 247.851 72.1319 247.933C71.5803 247.991 71.0244 248.141 70.4644 248.384C69.9037 248.621 69.4513 248.895 69.1073 249.208L67.0391 249.197L67.1078 240.209L76.4628 239.131L76.6858 241.065L69.1595 241.932L69.1386 247.316L69.2441 247.304C69.5796 246.968 70.0146 246.672 70.5492 246.414C71.0837 246.156 71.6529 245.993 72.2566 245.923C73.3586 245.796 74.3708 245.947 75.2932 246.375C76.2209 246.797 76.9832 247.433 77.5803 248.285C78.1833 249.136 78.552 250.145 78.6864 251.312C78.8188 252.46 78.6792 253.516 78.2674 254.478C77.8608 255.434 77.2392 256.224 76.4025 256.849C75.5651 257.468 74.5749 257.844 73.4319 257.975Z" fill="#85C1E9"/>
<path d="M109.686 235.302L111.761 253.308L109.581 253.56L107.769 237.839L107.663 237.851L103.604 241.277L103.348 239.061L107.505 235.553L109.686 235.302Z" fill="#85C1E9"/>
<path d="M122.947 252.269C122.207 252.342 121.453 252.286 120.683 252.102C119.913 251.917 119.187 251.541 118.504 250.972C117.82 250.398 117.23 249.584 116.734 248.53C116.238 247.471 115.894 246.109 115.702 244.444C115.518 242.85 115.505 241.42 115.662 240.154C115.818 238.883 116.132 237.793 116.604 236.883C117.074 235.968 117.686 235.244 118.438 234.712C119.196 234.179 120.082 233.854 121.096 233.737C122.105 233.621 123.025 233.72 123.857 234.034C124.694 234.341 125.403 234.824 125.984 235.481C126.564 236.139 126.982 236.925 127.236 237.84L125.09 238.088C124.798 237.302 124.333 236.675 123.698 236.208C123.062 235.741 122.269 235.562 121.319 235.671C119.924 235.832 118.895 236.566 118.232 237.872C117.575 239.177 117.369 240.926 117.616 243.119L117.757 243.102C118.028 242.566 118.369 242.097 118.779 241.693C119.195 241.283 119.668 240.949 120.196 240.692C120.725 240.435 121.297 240.271 121.913 240.2C122.944 240.081 123.918 240.23 124.833 240.648C125.747 241.059 126.515 241.686 127.135 242.529C127.754 243.367 128.13 244.366 128.264 245.526C128.392 246.64 128.261 247.689 127.869 248.672C127.477 249.65 126.861 250.463 126.021 251.113C125.187 251.755 124.162 252.141 122.947 252.269ZM122.724 250.334C123.463 250.249 124.104 249.988 124.648 249.551C125.197 249.114 125.606 248.565 125.874 247.904C126.148 247.243 126.242 246.532 126.154 245.77C126.068 245.025 125.823 244.367 125.419 243.796C125.019 243.219 124.509 242.782 123.886 242.485C123.27 242.188 122.593 242.082 121.854 242.167C121.297 242.231 120.791 242.402 120.336 242.68C119.881 242.953 119.493 243.3 119.174 243.723C118.86 244.145 118.629 244.615 118.481 245.131C118.332 245.641 118.288 246.165 118.35 246.705C118.433 247.42 118.677 248.069 119.083 248.652C119.494 249.234 120.015 249.681 120.645 249.995C121.281 250.308 121.974 250.421 122.724 250.334Z" fill="#85C1E9"/>
<path d="M158.222 229.708L160.297 247.714L158.117 247.966L156.305 232.245L156.199 232.257L152.14 235.683L151.884 233.467L156.041 229.959L158.222 229.708Z" fill="#85C1E9"/>
<path d="M166.039 247.052L172.256 230.193L172.24 230.052L162.955 231.122L162.732 229.188L174.268 227.858L174.503 229.898L168.325 246.789L166.039 247.052Z" fill="#85C1E9"/>
<path d="M206.76 224.113L208.835 242.12L206.655 242.371L204.843 226.651L204.737 226.663L200.677 230.089L200.422 227.873L204.579 224.365L206.76 224.113Z" fill="#85C1E9"/>
<path d="M219.81 241.104C218.602 241.244 217.511 241.153 216.535 240.831C215.565 240.504 214.779 239.992 214.176 239.295C213.572 238.592 213.217 237.754 213.111 236.781C213.017 236.019 213.085 235.299 213.316 234.619C213.546 233.933 213.899 233.343 214.377 232.848C214.86 232.347 215.423 232 216.066 231.807L216.053 231.702C215.166 231.578 214.424 231.174 213.829 230.488C213.232 229.797 212.882 228.973 212.778 228.017C212.666 227.103 212.804 226.259 213.19 225.484C213.575 224.709 214.155 224.066 214.927 223.555C215.706 223.044 216.623 222.727 217.678 222.605C218.721 222.485 219.677 222.586 220.546 222.907C221.414 223.229 222.124 223.723 222.676 224.39C223.234 225.056 223.569 225.846 223.68 226.76C223.784 227.716 223.622 228.599 223.193 229.409C222.768 230.212 222.147 230.774 221.329 231.094L221.341 231.199C222.005 231.241 222.623 231.452 223.196 231.832C223.767 232.205 224.246 232.7 224.632 233.314C225.017 233.923 225.256 234.609 225.35 235.37C225.456 236.344 225.292 237.242 224.858 238.064C224.43 238.879 223.78 239.557 222.91 240.097C222.045 240.63 221.011 240.966 219.81 241.104ZM219.587 239.17C220.402 239.076 221.09 238.863 221.651 238.531C222.213 238.199 222.627 237.774 222.894 237.257C223.161 236.739 223.261 236.157 223.192 235.512C223.108 234.832 222.863 234.252 222.457 233.77C222.051 233.288 221.532 232.932 220.899 232.702C220.273 232.472 219.579 232.4 218.817 232.488C218.049 232.576 217.38 232.805 216.811 233.174C216.248 233.541 215.823 234.006 215.537 234.568C215.257 235.128 215.16 235.749 215.244 236.428C215.312 237.073 215.533 237.618 215.904 238.062C216.282 238.506 216.785 238.825 217.414 239.02C218.042 239.215 218.766 239.265 219.587 239.17ZM218.602 230.624C219.247 230.55 219.803 230.355 220.272 230.04C220.746 229.724 221.1 229.317 221.334 228.821C221.568 228.325 221.652 227.766 221.586 227.144C221.51 226.535 221.305 226.021 220.972 225.602C220.638 225.178 220.208 224.871 219.681 224.682C219.154 224.487 218.559 224.428 217.897 224.505C217.222 224.582 216.648 224.776 216.173 225.086C215.697 225.391 215.348 225.787 215.125 226.276C214.902 226.759 214.828 227.305 214.904 227.914C214.97 228.536 215.17 229.063 215.505 229.493C215.845 229.923 216.283 230.238 216.816 230.438C217.35 230.638 217.945 230.7 218.602 230.624Z" fill="#85C1E9"/>
<path d="M255.296 218.519L257.372 236.525L255.191 236.777L253.379 221.056L253.274 221.068L249.214 224.494L248.959 222.278L253.116 218.77L255.296 218.519Z" fill="#85C1E9"/>
<path d="M266.179 217.015C266.919 216.936 267.673 216.991 268.444 217.182C269.214 217.372 269.941 217.752 270.624 218.32C271.306 218.883 271.896 219.691 272.391 220.745C272.887 221.798 273.23 223.151 273.42 224.804C273.605 226.405 273.616 227.844 273.455 229.121C273.298 230.393 272.985 231.486 272.514 232.401C272.049 233.316 271.438 234.04 270.68 234.573C269.927 235.105 269.044 235.43 268.03 235.546C267.022 235.663 266.099 235.567 265.262 235.26C264.43 234.946 263.721 234.46 263.134 233.803C262.553 233.14 262.137 232.341 261.887 231.408L264.032 231.161C264.321 231.965 264.784 232.603 265.42 233.077C266.062 233.543 266.858 233.722 267.807 233.612C269.196 233.452 270.223 232.719 270.886 231.413C271.555 230.107 271.762 228.345 271.506 226.13L271.366 226.146C271.094 226.676 270.753 227.146 270.343 227.556C269.933 227.965 269.464 228.298 268.935 228.555C268.406 228.812 267.831 228.977 267.21 229.048C266.178 229.167 265.202 229.021 264.282 228.611C263.367 228.193 262.599 227.566 261.98 226.729C261.366 225.885 260.992 224.883 260.859 223.722C260.732 222.62 260.862 221.584 261.248 220.612C261.641 219.635 262.254 218.822 263.088 218.173C263.928 217.524 264.958 217.138 266.179 217.015ZM266.402 218.949C265.664 219.034 265.02 219.296 264.47 219.733C263.926 220.164 263.517 220.71 263.242 221.372C262.973 222.026 262.882 222.729 262.969 223.479C263.055 224.229 263.298 224.893 263.697 225.471C264.102 226.042 264.612 226.476 265.228 226.773C265.85 227.064 266.53 227.167 267.268 227.082C267.825 227.017 268.331 226.849 268.787 226.577C269.242 226.299 269.626 225.949 269.94 225.526C270.259 225.098 270.493 224.628 270.642 224.118C270.79 223.602 270.834 223.077 270.772 222.544C270.691 221.84 270.445 221.201 270.034 220.624C269.629 220.047 269.109 219.603 268.473 219.29C267.843 218.976 267.153 218.863 266.402 218.949Z" fill="#85C1E9"/>
<path d="M299.578 231.661L299.396 230.078L304.589 222.887C305.199 222.045 305.697 221.316 306.084 220.701C306.47 220.081 306.742 219.509 306.902 218.986C307.066 218.456 307.117 217.916 307.053 217.365C306.98 216.732 306.765 216.201 306.407 215.773C306.054 215.344 305.603 215.034 305.052 214.842C304.501 214.65 303.901 214.592 303.25 214.667C302.558 214.747 301.971 214.96 301.488 215.307C301.011 215.647 300.661 216.088 300.438 216.63C300.222 217.172 300.153 217.786 300.232 218.472L298.157 218.711C298.035 217.656 298.172 216.701 298.566 215.848C298.961 214.995 299.552 214.297 300.339 213.755C301.131 213.212 302.052 212.881 303.101 212.76C304.157 212.638 305.117 212.753 305.983 213.105C306.849 213.456 307.557 213.983 308.108 214.686C308.658 215.389 308.986 216.203 309.093 217.129C309.169 217.792 309.124 218.453 308.957 219.114C308.794 219.768 308.465 220.516 307.968 221.357C307.476 222.192 306.778 223.223 305.874 224.45L302.328 229.242L302.345 229.382L310.715 228.417L310.938 230.352L299.578 231.661Z" fill="#85C1E9"/>
<path d="M320.471 229.502C319.146 229.655 317.976 229.425 316.961 228.811C315.945 228.192 315.112 227.222 314.461 225.901C313.809 224.574 313.37 222.932 313.145 220.975C312.92 219.028 312.975 217.338 313.308 215.904C313.647 214.463 314.241 213.326 315.089 212.492C315.942 211.651 317.026 211.155 318.339 211.003C319.652 210.852 320.816 211.089 321.833 211.714C322.854 212.333 323.691 213.306 324.343 214.632C325 215.952 325.44 217.585 325.665 219.531C325.89 221.489 325.837 223.188 325.504 224.628C325.17 226.062 324.579 227.197 323.731 228.031C322.882 228.859 321.795 229.35 320.471 229.502ZM320.248 227.568C321.561 227.417 322.508 226.666 323.089 225.316C323.67 223.966 323.825 222.119 323.555 219.775C323.375 218.215 323.055 216.907 322.594 215.849C322.14 214.791 321.569 214.011 320.881 213.508C320.2 213.004 319.425 212.803 318.557 212.903C317.256 213.053 316.313 213.812 315.728 215.18C315.143 216.542 314.985 218.393 315.255 220.731C315.434 222.29 315.751 223.596 316.205 224.649C316.659 225.701 317.226 226.476 317.907 226.974C318.594 227.471 319.374 227.669 320.248 227.568Z" fill="#85C1E9"/>
<path d="M349.293 225.931L349.111 224.348L354.305 217.157C354.914 216.315 355.413 215.586 355.799 214.971C356.185 214.351 356.457 213.779 356.617 213.256C356.782 212.726 356.832 212.185 356.769 211.634C356.696 211.001 356.48 210.471 356.122 210.043C355.77 209.614 355.318 209.304 354.767 209.112C354.217 208.92 353.616 208.862 352.965 208.937C352.274 209.017 351.686 209.23 351.204 209.576C350.726 209.917 350.376 210.358 350.154 210.9C349.937 211.442 349.868 212.056 349.947 212.741L347.872 212.981C347.75 211.926 347.887 210.971 348.282 210.118C348.676 209.265 349.267 208.567 350.054 208.025C350.847 207.482 351.767 207.151 352.817 207.03C353.872 206.908 354.832 207.023 355.698 207.375C356.565 207.726 357.273 208.253 357.823 208.956C358.373 209.659 358.702 210.473 358.808 211.399C358.885 212.062 358.839 212.723 358.672 213.384C358.51 214.038 358.18 214.786 357.683 215.627C357.191 216.462 356.493 217.493 355.59 218.719L352.044 223.511L352.06 223.652L360.43 222.687L360.653 224.622L349.293 225.931Z" fill="#85C1E9"/>
<path d="M368.539 205.467L370.615 223.473L368.434 223.725L366.622 208.004L366.517 208.016L362.457 211.442L362.202 209.226L366.359 205.718L368.539 205.467Z" fill="#85C1E9"/>
<path d="M62.156 310.796L61.9736 309.213L67.1673 302.022C67.7769 301.179 68.275 300.451 68.6615 299.836C69.0473 299.215 69.3199 298.644 69.4794 298.12C69.644 297.591 69.6946 297.05 69.6311 296.499C69.5581 295.866 69.3426 295.336 68.9844 294.908C68.6321 294.479 68.1806 294.169 67.6298 293.977C67.0791 293.785 66.4784 293.727 65.8278 293.802C65.1361 293.881 64.5489 294.094 64.0662 294.441C63.5887 294.781 63.2387 295.223 63.0161 295.765C62.7994 296.307 62.7305 296.92 62.8096 297.606L60.7346 297.845C60.613 296.79 60.7495 295.836 61.1441 294.983C61.5387 294.13 62.1295 293.432 62.9163 292.89C63.709 292.347 64.63 292.015 65.6792 291.894C66.7343 291.773 67.6949 291.888 68.561 292.239C69.4271 292.591 70.1353 293.118 70.6855 293.821C71.2357 294.524 71.5642 295.338 71.6709 296.264C71.7473 296.926 71.7017 297.588 71.5344 298.249C71.3722 298.903 71.0426 299.651 70.5457 300.492C70.0539 301.327 69.356 302.357 68.4521 303.584L64.9062 308.376L64.9224 308.517L73.2927 307.552L73.5157 309.486L62.156 310.796Z" fill="#85C1E9"/>
<path d="M77.1469 309.068L76.9645 307.485L82.1581 300.294C82.7678 299.451 83.2659 298.723 83.6524 298.108C84.0382 297.488 84.3108 296.916 84.4703 296.392C84.6349 295.863 84.6855 295.322 84.622 294.771C84.549 294.138 84.3335 293.608 83.9753 293.18C83.623 292.751 83.1714 292.441 82.6207 292.249C82.07 292.057 81.4693 291.999 80.8187 292.074C80.127 292.153 79.5398 292.367 79.0571 292.713C78.5796 293.053 78.2295 293.495 78.007 294.037C77.7903 294.579 77.7214 295.193 77.8005 295.878L75.7255 296.117C75.6039 295.062 75.7404 294.108 76.135 293.255C76.5296 292.402 77.1204 291.704 77.9072 291.162C78.6999 290.619 79.6209 290.287 80.6701 290.166C81.7252 290.045 82.6858 290.16 83.5519 290.511C84.418 290.863 85.1261 291.39 85.6764 292.093C86.2266 292.796 86.5551 293.61 86.6618 294.536C86.7381 295.199 86.6926 295.86 86.5253 296.521C86.3631 297.175 86.0335 297.923 85.5366 298.764C85.0448 299.599 84.3469 300.63 83.443 301.856L79.8971 306.648L79.9133 306.789L88.2836 305.824L88.5065 307.759L77.1469 309.068Z" fill="#85C1E9"/>
<path d="M111.32 305.13L111.137 303.547L116.331 296.356C116.941 295.513 117.439 294.785 117.825 294.17C118.211 293.549 118.484 292.977 118.643 292.454C118.808 291.924 118.858 291.384 118.795 290.833C118.722 290.2 118.506 289.669 118.148 289.242C117.796 288.813 117.344 288.503 116.793 288.311C116.243 288.119 115.642 288.06 114.991 288.135C114.3 288.215 113.713 288.428 113.23 288.775C112.752 289.115 112.402 289.556 112.18 290.099C111.963 290.64 111.894 291.254 111.973 291.94L109.898 292.179C109.777 291.124 109.913 290.17 110.308 289.317C110.702 288.463 111.293 287.766 112.08 287.224C112.873 286.681 113.794 286.349 114.843 286.228C115.898 286.107 116.859 286.221 117.725 286.573C118.591 286.925 119.299 287.452 119.849 288.155C120.399 288.857 120.728 289.672 120.835 290.598C120.911 291.26 120.865 291.922 120.698 292.583C120.536 293.237 120.206 293.985 119.709 294.826C119.217 295.661 118.52 296.691 117.616 297.918L114.07 302.71L114.086 302.851L122.456 301.886L122.679 303.82L111.32 305.13Z" fill="#85C1E9"/>
<path d="M132.423 302.947C131.263 303.08 130.205 303 129.251 302.706C128.302 302.412 127.52 301.941 126.905 301.293C126.295 300.639 125.912 299.842 125.756 298.904L127.972 298.649C128.086 299.224 128.343 299.702 128.743 300.083C129.143 300.459 129.64 300.728 130.235 300.891C130.83 301.054 131.473 301.096 132.165 301.016C132.939 300.927 133.609 300.713 134.176 300.375C134.743 300.036 135.168 299.607 135.453 299.087C135.737 298.567 135.843 297.991 135.77 297.358C135.694 296.696 135.463 296.131 135.076 295.665C134.689 295.193 134.163 294.85 133.496 294.635C132.83 294.421 132.04 294.367 131.126 294.472L129.684 294.638L129.461 292.704L130.903 292.538C131.618 292.455 132.23 292.254 132.74 291.934C133.255 291.613 133.638 291.201 133.889 290.697C134.145 290.192 134.237 289.623 134.164 288.99C134.094 288.381 133.898 287.866 133.576 287.445C133.255 287.025 132.833 286.717 132.312 286.522C131.796 286.326 131.207 286.266 130.545 286.343C129.924 286.414 129.351 286.596 128.826 286.888C128.307 287.174 127.899 287.55 127.602 288.018C127.305 288.48 127.176 289.012 127.216 289.613L125.106 289.856C125.032 288.908 125.221 288.049 125.673 287.278C126.124 286.502 126.757 285.865 127.573 285.367C128.394 284.868 129.324 284.559 130.361 284.439C131.475 284.311 132.456 284.427 133.306 284.786C134.154 285.14 134.835 285.658 135.347 286.342C135.859 287.025 136.164 287.792 136.262 288.642C136.379 289.656 136.212 290.551 135.761 291.327C135.316 292.103 134.655 292.681 133.778 293.062L133.795 293.202C134.953 293.259 135.897 293.64 136.626 294.346C137.354 295.046 137.784 295.968 137.916 297.111C138.028 298.089 137.863 298.999 137.42 299.841C136.981 300.675 136.33 301.368 135.467 301.919C134.604 302.469 133.59 302.812 132.423 302.947Z" fill="#85C1E9"/>
<path d="M159.857 299.535L159.675 297.952L164.869 290.761C165.478 289.918 165.976 289.19 166.363 288.575C166.749 287.955 167.021 287.383 167.181 286.859C167.345 286.33 167.396 285.789 167.332 285.238C167.259 284.605 167.044 284.075 166.686 283.647C166.333 283.218 165.882 282.908 165.331 282.716C164.78 282.524 164.18 282.466 163.529 282.541C162.837 282.62 162.25 282.834 161.768 283.18C161.29 283.52 160.94 283.962 160.717 284.504C160.501 285.046 160.432 285.659 160.511 286.345L158.436 286.584C158.314 285.529 158.451 284.575 158.845 283.722C159.24 282.869 159.831 282.171 160.618 281.629C161.41 281.086 162.331 280.754 163.381 280.633C164.436 280.512 165.396 280.627 166.262 280.978C167.128 281.33 167.837 281.857 168.387 282.56C168.937 283.263 169.266 284.077 169.372 285.003C169.449 285.666 169.403 286.327 169.236 286.988C169.074 287.642 168.744 288.39 168.247 289.231C167.755 290.066 167.057 291.097 166.153 292.323L162.608 297.115L162.624 297.256L170.994 296.291L171.217 298.226L159.857 299.535Z" fill="#85C1E9"/>
<path d="M173.614 294.207L173.407 292.414L179.877 278.982L181.178 278.832L181.498 281.61L180.619 281.711L175.731 291.861L175.747 292.002L186.403 290.773L186.626 292.708L173.614 294.207ZM182.515 296.923L180.44 278.917L182.515 278.677L184.59 296.684L182.515 296.923Z" fill="#85C1E9"/>
<path d="M208.393 293.941L208.211 292.358L213.404 285.167C214.014 284.324 214.512 283.596 214.899 282.981C215.285 282.361 215.557 281.789 215.717 281.265C215.881 280.736 215.932 280.195 215.868 279.644C215.795 279.011 215.58 278.481 215.222 278.053C214.869 277.624 214.418 277.314 213.867 277.122C213.316 276.93 212.716 276.872 212.065 276.947C211.373 277.026 210.786 277.24 210.303 277.586C209.826 277.926 209.476 278.368 209.253 278.91C209.037 279.452 208.968 280.065 209.047 280.751L206.972 280.99C206.85 279.935 206.987 278.981 207.381 278.128C207.776 277.275 208.367 276.577 209.154 276.035C209.946 275.492 210.867 275.16 211.916 275.039C212.972 274.918 213.932 275.033 214.798 275.384C215.664 275.736 216.372 276.263 216.923 276.966C217.473 277.669 217.801 278.483 217.908 279.409C217.984 280.072 217.939 280.733 217.772 281.394C217.609 282.048 217.28 282.796 216.783 283.637C216.291 284.472 215.593 285.503 214.689 286.729L211.143 291.521L211.16 291.662L219.53 290.697L219.753 292.632L208.393 293.941Z" fill="#85C1E9"/>
<path d="M229.04 291.811C228.008 291.929 227.055 291.831 226.181 291.516C225.308 291.201 224.58 290.715 224 290.057C223.419 289.4 223.053 288.616 222.9 287.707L225.011 287.464C225.187 288.269 225.634 288.901 226.351 289.359C227.075 289.81 227.896 289.982 228.817 289.876C229.555 289.791 230.192 289.543 230.726 289.13C231.267 288.718 231.666 288.191 231.925 287.549C232.189 286.901 232.276 286.193 232.188 285.425C232.097 284.64 231.844 283.959 231.427 283.384C231.015 282.801 230.49 282.366 229.851 282.077C229.212 281.789 228.508 281.686 227.74 281.768C227.188 281.826 226.632 281.976 226.072 282.219C225.511 282.456 225.059 282.731 224.715 283.044L222.647 283.032L222.715 274.044L232.07 272.966L232.293 274.9L224.767 275.768L224.746 281.151L224.852 281.139C225.187 280.803 225.622 280.507 226.157 280.249C226.691 279.992 227.26 279.828 227.864 279.758C228.966 279.631 229.978 279.782 230.901 280.21C231.829 280.632 232.591 281.269 233.188 282.12C233.791 282.971 234.16 283.98 234.294 285.147C234.426 286.296 234.287 287.351 233.875 288.313C233.468 289.269 232.847 290.059 232.01 290.684C231.173 291.303 230.183 291.679 229.04 291.811Z" fill="#85C1E9"/>
<path d="M256.929 288.347L256.747 286.764L261.94 279.573C262.55 278.73 263.048 278.002 263.435 277.387C263.82 276.766 264.093 276.194 264.253 275.671C264.417 275.141 264.468 274.601 264.404 274.05C264.331 273.417 264.116 272.887 263.758 272.459C263.405 272.03 262.954 271.72 262.403 271.528C261.852 271.336 261.252 271.277 260.601 271.352C259.909 271.432 259.322 271.645 258.839 271.992C258.362 272.332 258.012 272.773 257.789 273.316C257.573 273.857 257.504 274.471 257.583 275.157L255.508 275.396C255.386 274.341 255.523 273.387 255.917 272.534C256.312 271.68 256.903 270.983 257.689 270.441C258.482 269.898 259.403 269.566 260.452 269.445C261.507 269.324 262.468 269.439 263.334 269.79C264.2 270.142 264.908 270.669 265.459 271.372C266.009 272.074 266.337 272.889 266.444 273.815C266.52 274.477 266.475 275.139 266.308 275.8C266.145 276.454 265.816 277.202 265.319 278.043C264.827 278.878 264.129 279.908 263.225 281.135L259.679 285.927L259.696 286.068L268.066 285.103L268.289 287.037L256.929 288.347Z" fill="#85C1E9"/>
<path d="M277.927 286.176C277.187 286.249 276.432 286.194 275.663 286.009C274.893 285.825 274.167 285.448 273.484 284.879C272.8 284.305 272.21 283.491 271.714 282.437C271.218 281.378 270.874 280.016 270.682 278.351C270.498 276.757 270.485 275.327 270.642 274.062C270.798 272.79 271.112 271.7 271.583 270.79C272.054 269.875 272.666 269.151 273.418 268.619C274.176 268.086 275.062 267.761 276.076 267.644C277.084 267.528 278.005 267.627 278.837 267.941C279.674 268.248 280.383 268.731 280.964 269.388C281.544 270.046 281.961 270.833 282.215 271.748L280.07 271.995C279.778 271.209 279.313 270.582 278.677 270.115C278.042 269.648 277.249 269.469 276.299 269.579C274.904 269.739 273.875 270.473 273.212 271.779C272.555 273.084 272.349 274.833 272.596 277.026L272.737 277.01C273.008 276.474 273.348 276.004 273.759 275.6C274.175 275.19 274.648 274.856 275.176 274.599C275.705 274.342 276.277 274.178 276.893 274.107C277.924 273.988 278.898 274.138 279.813 274.555C280.727 274.966 281.495 275.593 282.114 276.437C282.734 277.274 283.11 278.273 283.244 279.434C283.372 280.547 283.241 281.596 282.849 282.579C282.457 283.557 281.841 284.37 281.001 285.02C280.167 285.662 279.142 286.048 277.927 286.176ZM277.704 284.241C278.443 284.156 279.084 283.895 279.627 283.459C280.177 283.021 280.586 282.472 280.854 281.811C281.128 281.15 281.222 280.439 281.134 279.677C281.048 278.932 280.803 278.275 280.398 277.703C279.999 277.126 279.489 276.689 278.866 276.392C278.25 276.095 277.573 275.989 276.834 276.074C276.277 276.138 275.771 276.309 275.316 276.588C274.861 276.86 274.473 277.207 274.154 277.63C273.84 278.053 273.609 278.522 273.461 279.038C273.311 279.548 273.268 280.073 273.33 280.612C273.413 281.327 273.657 281.976 274.062 282.559C274.474 283.141 274.995 283.589 275.625 283.902C276.261 284.215 276.954 284.328 277.704 284.241Z" fill="#85C1E9"/>
<path d="M305.466 282.752L305.284 281.17L310.477 273.978C311.087 273.136 311.585 272.407 311.971 271.793C312.357 271.172 312.63 270.6 312.789 270.077C312.954 269.547 313.005 269.007 312.941 268.456C312.868 267.823 312.652 267.292 312.294 266.864C311.942 266.436 311.49 266.125 310.94 265.934C310.389 265.742 309.788 265.683 309.138 265.758C308.446 265.838 307.859 266.051 307.376 266.398C306.899 266.738 306.549 267.179 306.326 267.721C306.109 268.263 306.04 268.877 306.12 269.563L304.045 269.802C303.923 268.747 304.059 267.793 304.454 266.939C304.849 266.086 305.439 265.389 306.226 264.846C307.019 264.304 307.94 263.972 308.989 263.851C310.044 263.729 311.005 263.844 311.871 264.196C312.737 264.547 313.445 265.075 313.995 265.777C314.546 266.48 314.874 267.295 314.981 268.221C315.057 268.883 315.012 269.545 314.844 270.205C314.682 270.86 314.353 271.607 313.856 272.449C313.364 273.283 312.666 274.314 311.762 275.541L308.216 280.333L308.232 280.473L316.603 279.509L316.826 281.443L305.466 282.752Z" fill="#85C1E9"/>
<path d="M321.02 280.96L327.237 264.1L327.221 263.959L317.936 265.029L317.713 263.095L329.249 261.765L329.484 263.805L323.306 280.696L321.02 280.96Z" fill="#85C1E9"/>
<path d="M355.183 277.022L355.001 275.439L360.194 268.248C360.804 267.405 361.302 266.677 361.689 266.062C362.074 265.441 362.347 264.87 362.506 264.346C362.671 263.817 362.722 263.276 362.658 262.725C362.585 262.092 362.37 261.562 362.011 261.134C361.659 260.705 361.208 260.395 360.657 260.203C360.106 260.011 359.505 259.953 358.855 260.028C358.163 260.107 357.576 260.32 357.093 260.667C356.616 261.007 356.266 261.449 356.043 261.991C355.826 262.533 355.758 263.146 355.837 263.832L353.762 264.071C353.64 263.016 353.777 262.062 354.171 261.209C354.566 260.356 355.156 259.658 355.943 259.116C356.736 258.573 357.657 258.241 358.706 258.12C359.761 257.999 360.722 258.114 361.588 258.465C362.454 258.817 363.162 259.344 363.712 260.047C364.263 260.75 364.591 261.564 364.698 262.49C364.774 263.152 364.729 263.814 364.561 264.475C364.399 265.129 364.07 265.877 363.573 266.718C363.081 267.553 362.383 268.583 361.479 269.81L357.933 274.602L357.949 274.743L366.32 273.778L366.543 275.712L355.183 277.022Z" fill="#85C1E9"/>
<path d="M375.97 274.875C374.763 275.014 373.671 274.923 372.696 274.602C371.725 274.275 370.939 273.762 370.336 273.066C369.732 272.363 369.377 271.525 369.271 270.551C369.177 269.79 369.246 269.069 369.476 268.39C369.706 267.704 370.06 267.114 370.537 266.619C371.02 266.118 371.583 265.771 372.226 265.578L372.214 265.473C371.326 265.349 370.585 264.945 369.989 264.259C369.392 263.568 369.042 262.744 368.938 261.788C368.827 260.874 368.964 260.03 369.35 259.254C369.736 258.479 370.315 257.837 371.087 257.326C371.866 256.814 372.783 256.498 373.838 256.376C374.881 256.256 375.837 256.357 376.706 256.678C377.574 257 378.285 257.494 378.837 258.161C379.395 258.827 379.729 259.617 379.84 260.531C379.945 261.487 379.782 262.37 379.353 263.18C378.929 263.983 378.307 264.545 377.489 264.865L377.501 264.97C378.165 265.012 378.783 265.223 379.356 265.603C379.928 265.976 380.406 266.47 380.792 267.085C381.177 267.694 381.416 268.379 381.51 269.141C381.616 270.114 381.452 271.012 381.018 271.835C380.59 272.65 379.94 273.328 379.07 273.868C378.205 274.401 377.172 274.737 375.97 274.875ZM375.747 272.941C376.562 272.847 377.25 272.634 377.812 272.302C378.373 271.97 378.788 271.545 379.055 271.027C379.322 270.51 379.421 269.928 379.352 269.283C379.268 268.603 379.023 268.023 378.617 267.541C378.211 267.059 377.692 266.703 377.06 266.473C376.433 266.242 375.739 266.171 374.977 266.259C374.209 266.347 373.54 266.576 372.971 266.944C372.408 267.312 371.983 267.777 371.698 268.338C371.418 268.899 371.32 269.519 371.404 270.199C371.473 270.844 371.693 271.389 372.065 271.833C372.442 272.277 372.945 272.596 373.574 272.791C374.202 272.985 374.926 273.036 375.747 272.941ZM374.762 264.395C375.407 264.321 375.963 264.126 376.432 263.81C376.906 263.494 377.26 263.088 377.494 262.592C377.728 262.096 377.812 261.537 377.746 260.915C377.67 260.306 377.466 259.792 377.132 259.373C376.798 258.948 376.368 258.642 375.841 258.453C375.314 258.258 374.719 258.199 374.057 258.275C373.383 258.353 372.808 258.547 372.333 258.857C371.857 259.161 371.508 259.558 371.285 260.047C371.062 260.53 370.988 261.076 371.064 261.685C371.13 262.307 371.33 262.833 371.665 263.264C372.006 263.694 372.443 264.009 372.977 264.209C373.51 264.408 374.106 264.471 374.762 264.395Z" fill="#85C1E9"/>
<path d="M333.479 406.809C345.346 406.719 370.904 379.93 377.116 374.462C375.936 372.783 374.273 369.425 372.689 365.944C369.617 359.199 367.911 351.845 367.687 344.358L367.286 330.922L329.075 330.872L327.403 364.43C326.662 365.787 325.611 366.708 324.506 367.341C324.865 370.616 319.608 406.914 333.479 406.809Z" fill="#F09EA4"/>
<path d="M327.934 353.943C327.934 353.943 343.683 362.49 358.445 359.612C362.9 358.743 369.069 355.03 368.974 354.734L368.105 348.373C367.817 346.255 367.79 343.305 367.734 341.167L367.289 331.003L327.183 334.058L327.934 353.943Z" fill="#DD627D"/>
<path d="M327.649 347.685C317.872 346.754 306.964 332.98 302.1 320.864C297.808 310.171 295.279 284.414 297.238 267.652C300.87 236.556 317.543 200.39 357.887 210.196C424.316 226.342 398.438 268.706 389.309 287.34C389.309 287.34 397.79 281.252 397.83 295.379C397.876 311.27 388.913 315.077 381.485 313.337C380.841 313.186 376.939 324.857 373.427 329.913C370.874 333.59 355.05 350.293 327.649 347.685Z" fill="#F09EA4"/>
<path d="M387.068 298.885C387.068 298.885 390.483 288.676 393.888 293.284C397.293 297.892 391.534 308.7 388.134 307.823C384.735 306.945 387.81 305.268 388.605 301.978C389.401 298.688 387.068 298.885 387.068 298.885Z" fill="#CC5065"/>
<path d="M337.624 325.382C333.55 331.112 324.139 331.735 319.877 325.894C318.779 324.39 321.21 322.831 322.302 324.327C325.552 328.78 332.568 327.551 335.492 323.436C336.568 321.923 338.689 323.885 337.624 325.382Z" fill="#2A005F"/>
<path d="M330.184 314.517C329.644 314.541 324.87 314.702 323.823 312.519C323.034 310.874 323.422 300.746 323.624 296.468C323.656 295.798 324.205 295.284 324.841 295.321C325.482 295.359 325.976 295.932 325.945 296.602C325.637 303.074 325.541 310.406 325.864 311.384C326.409 311.993 329.735 312.271 330.759 312.025C331.064 311.798 331.473 311.732 331.848 311.884C332.448 312.127 332.748 312.83 332.52 313.456C332.214 314.29 331.315 314.449 330.379 314.506C330.314 314.51 330.249 314.512 330.184 314.517ZM330.35 312.576C330.35 312.576 330.351 312.574 330.351 312.573C330.35 312.576 330.35 312.576 330.35 312.576Z" fill="#2A005F"/>
<path d="M360.027 311.759C360.054 308.673 356.58 306.141 352.266 306.102C347.953 306.064 344.434 308.534 344.406 311.62C344.379 314.706 347.853 317.239 352.167 317.277C356.48 317.316 359.999 314.845 360.027 311.759Z" fill="#DD627D"/>
<path d="M310.706 303.568C313.215 303.379 315.017 300.154 314.732 296.364C314.446 292.575 312.181 289.656 309.672 289.845C307.163 290.034 305.361 293.259 305.646 297.049C305.931 300.838 308.197 303.757 310.706 303.568Z" fill="#2A005F"/>
<path d="M316.131 281.589C315.99 281.403 315.818 281.239 315.589 281.14C315.373 281.048 310.225 278.912 303.54 282.402C302.857 282.758 302.591 283.602 302.949 284.286C303.306 284.968 304.144 285.239 304.833 284.877C304.837 284.876 304.84 284.873 304.844 284.871C305.818 284.641 308.428 284.109 310.214 284.536C312.446 285.069 314.892 285.881 316.003 284.981C317.098 284.094 316.583 281.766 316.131 281.589Z" fill="#2A005F"/>
<path d="M352.47 296.677C352.755 292.888 350.952 289.663 348.443 289.474C345.934 289.285 343.669 292.204 343.384 295.993C343.098 299.782 344.901 303.007 347.41 303.196C349.919 303.385 352.184 300.467 352.47 296.677Z" fill="#2A005F"/>
<path d="M340.193 281.56C340.334 281.374 340.507 281.209 340.736 281.111C340.952 281.019 346.1 278.883 352.784 282.373C353.468 282.729 353.733 283.573 353.376 284.257C353.019 284.939 352.181 285.21 351.491 284.848C351.487 284.847 351.483 284.844 351.48 284.842C350.507 284.612 347.897 284.08 346.111 284.507C343.879 285.04 341.433 285.852 340.322 284.952C339.228 284.065 339.742 281.737 340.193 281.56Z" fill="#2A005F"/>
<path d="M307.821 317.426C312.134 317.388 315.609 314.855 315.581 311.769C315.554 308.683 312.035 306.213 307.722 306.251C303.408 306.29 299.934 308.822 299.961 311.908C299.989 314.994 303.508 317.465 307.821 317.426Z" fill="#DD627D"/>
<path d="M327.653 347.685C317.876 346.754 306.968 332.979 302.104 320.863C297.812 310.17 295.283 284.414 297.241 267.651C298.301 258.587 300.478 249.098 304.016 240.436L299.298 236.67C299.298 236.67 280.535 247.721 281.917 261.995C283.298 276.268 286.521 285.247 280.535 294.456C274.55 303.666 266.031 304.471 272.938 317.594C277.035 325.378 265.226 336.933 265.686 349.365C266.146 361.797 282.262 362.833 274.895 374.805C269.174 384.103 307.194 391.318 324.462 394.076C322.9 383.306 324.722 369.316 324.505 367.34C325.61 366.708 326.661 365.786 327.402 364.43L327.929 353.838L327.697 347.688C327.684 347.688 327.668 347.686 327.653 347.685Z" fill="black"/>
<path d="M429.722 355.584C432.83 346.605 446.989 332.446 437.32 324.158C427.65 315.87 426.646 308.521 431.103 295.15C436.629 278.574 428.341 268.214 421.549 264.529C411.131 258.88 415.333 249.335 413.951 242.197C412.57 235.06 386.728 211.404 377.404 208.814C368.08 206.224 364.971 208.987 364.971 208.987L357.892 231.261L400.545 260.492C397.991 270.954 392.582 280.668 389.314 287.34C389.314 287.34 397.795 281.252 397.835 295.379C397.881 311.27 388.919 315.077 381.49 313.337C380.846 313.186 376.944 324.857 373.432 329.913C372.653 331.033 370.635 333.366 367.439 335.992L367.655 343.255C367.738 344.967 367.875 346.675 368.107 348.372L368.972 354.705C369.816 358.576 371.052 362.349 372.689 365.944C374.273 369.425 375.936 372.782 377.116 374.462C373.399 377.733 362.757 388.635 352.266 396.886C370.823 415.444 406.882 420.626 414.183 419.815C418.434 419.343 426.129 410.664 431.507 401.327L433.176 404.276C433.176 404.276 439.046 394.952 437.665 380.448C436.284 365.944 426.614 364.562 429.722 355.584Z" fill="black"/>
<path d="M327.849 246.458C327.849 246.458 331.156 264.506 351.85 265.969C368.944 267.178 373.664 296.071 373.664 296.071C373.664 296.071 377.348 303.496 381.492 298.834C383.115 297.008 385.384 294.656 387.593 290.575C392.236 281.994 399.423 269.61 401.061 261.652C403.479 249.911 401.407 236.097 392.428 227.809C383.449 219.521 327.849 246.458 327.849 246.458Z" fill="black"/>
<path d="M338.44 260.616C338.44 260.616 301.949 261.653 297.23 295.15C293.411 322.256 294.008 262.343 294.008 262.343C294.008 262.343 296.77 235.752 299.533 228.846C302.296 221.939 314.609 216.571 327.62 208.816C345.001 198.456 358.931 209.852 358.931 209.852L338.44 260.616Z" fill="black"/>
<path d="M386.212 215.723C375.852 201.909 359.621 207.78 359.621 207.78L350.297 211.233C350.297 211.233 339.937 243.695 345.117 246.803C350.297 249.911 402.788 241.968 402.788 241.968C402.788 241.968 391.031 222.149 386.212 215.723Z" fill="black"/>
<path d="M338.899 254.17C338.899 254.17 340.971 260.617 322.783 264.99C304.594 269.363 297.228 293.077 297.228 293.077C297.228 293.077 294.234 282.257 300.912 272.357C307.588 262.457 316.797 261.306 324.625 260.385C332.452 259.465 338.899 254.17 338.899 254.17Z" fill="black"/>
<path d="M341.364 248.531C341.364 248.531 338.395 243.466 343.736 238.758C349.076 234.051 349.986 230.904 349.772 225.555C349.557 220.207 352.765 218.35 356.258 214.926C359.748 211.501 367.167 211.204 367.167 211.204C367.167 211.204 355.608 215.989 353.864 219.861C352.119 223.733 353.326 228.004 351.305 233.615C349.284 239.226 342.632 241.395 341.364 248.531Z" fill="black"/>
<path d="M365.144 232.299C365.144 232.299 372.051 226.773 385.519 236.788C398.987 246.803 393.116 260.271 400.368 269.595C407.62 278.919 415.563 271.322 415.563 293.078C415.563 314.834 412.8 318.633 412.8 318.633C412.8 318.633 415.218 290.143 412.628 283.754C410.038 277.365 400.196 279.955 395.879 272.358C391.562 264.76 392.253 250.947 388.972 245.076C385.692 239.206 381.03 232.126 365.144 232.299Z" fill="black"/>
<path d="M398.527 321.856C398.527 321.856 390.699 330.835 394.383 341.195C398.067 351.555 400.599 352.245 397.376 359.383C394.152 366.519 394.152 366.519 394.152 366.519C394.152 366.519 397.146 360.303 395.764 353.396C394.383 346.489 387.245 340.735 390.699 331.985C394.152 323.236 398.527 321.856 398.527 321.856Z" fill="black"/>
<path d="M292.489 305.338C292.489 305.338 285.928 319.324 290.59 331.065C295.252 342.807 291.108 350.059 289.381 356.966C287.654 363.872 292.662 368.362 292.662 368.362C292.662 368.362 285.928 366.117 286.964 355.757C288 345.397 289.899 342.634 287.827 333.31C285.755 323.986 287.309 313.281 292.489 305.338Z" fill="black"/>
<path d="M419.938 340.504C419.938 340.504 425.003 354.778 422.01 361.224C419.016 367.671 425.002 375.268 425.002 382.866C425.002 382.866 426.614 377.11 424.542 369.512C422.47 361.915 427.535 355.93 426.383 347.642C425.231 339.353 419.938 340.504 419.938 340.504Z" fill="black"/>
<path d="M131.002 265.911C131.002 265.911 131.233 273.508 131.923 278.112C132.614 282.716 144.01 298.141 145.622 299.637C147.234 301.133 153.795 295.839 153.795 295.839L148.039 251.866L131.002 265.911Z" fill="#E88E99"/>
<path d="M152.068 244.04C152.068 244.04 145.852 235.291 144.471 234.83C143.089 234.369 140.096 236.097 139.06 236.442C138.024 236.787 137.679 241.622 137.679 241.622C137.679 241.622 135.147 241.622 133.995 242.313C132.844 243.004 131.232 245.306 131.232 245.306L129.391 251.637C129.391 251.637 126.168 252.673 125.592 253.018C125.016 253.364 124.21 256.012 124.556 256.817C124.901 257.622 126.168 263.609 126.513 264.3C126.859 264.99 130.715 268.386 130.715 268.386C130.715 268.386 134.111 269.94 135.263 268.5C136.415 267.061 136.644 265.68 136.644 265.68C136.644 265.68 138.976 265.68 140.443 264.384C141.91 263.088 141.593 261.334 141.593 261.334C141.593 261.334 143.349 260.356 143.925 259.435C144.501 258.513 144.616 257.564 144.616 257.564C144.616 257.564 152.528 252.097 152.068 244.04Z" fill="#F09EA4"/>
<path d="M154.83 202.254C154.83 202.254 153.449 213.132 157.938 226.428C162.428 239.723 165.363 241.45 165.708 247.493C166.054 253.536 166.686 269.709 166.686 274.889C166.686 280.069 153.794 269.767 153.794 269.767C153.794 269.767 151.204 240.241 150.341 235.061C149.478 229.881 146.715 212.269 147.406 206.743C148.096 201.218 153.104 199.491 154.83 202.254Z" fill="#F09EA4"/>
<path d="M151.722 246.572C151.722 246.572 156.557 253.593 158.514 255.896C160.472 258.199 160.932 262.917 159.09 264.069C157.249 265.22 150.572 253.133 150.457 250.832C150.341 248.529 151.722 246.572 151.722 246.572Z" fill="#CC5065"/>
<path d="M145.939 260.011C145.939 260.011 141.189 253.622 140.844 249.651C140.499 245.679 140.412 241.621 141.88 240.412C143.348 239.204 144.815 238.686 146.369 239.204C147.924 239.722 153.363 249.046 153.363 249.046L145.939 260.011Z" fill="#CC5065"/>
<path d="M138.081 241.881C138.081 241.881 138.081 247.493 138.081 248.269C138.081 249.046 139.635 252.586 139.98 255.694C140.325 258.802 140.958 260.903 141.189 260.961C141.189 260.961 140.383 261.019 140.153 259.465C139.922 257.911 139.52 255.09 138.829 252.846C138.139 250.601 137.39 248.529 137.448 247.148C137.505 245.766 138.081 241.881 138.081 241.881Z" fill="#CC5065"/>
<path d="M129.793 251.895C129.793 251.895 132.298 257.421 132.816 260.184C133.334 262.946 135.838 264.673 135.838 264.673C135.838 264.673 134.802 264.586 133.421 263.464C132.039 262.343 132.039 258.802 131.262 257.161C130.484 255.52 129.017 251.894 129.017 251.894L129.793 251.895Z" fill="#CC5065"/>
<path d="M130.715 268.386C130.561 268.31 133.305 269.48 134.859 268.617C136.413 267.753 136.471 265.394 136.471 265.394C136.471 265.394 137.967 266.027 139.752 264.645C141.536 263.264 141.478 261.192 141.478 261.192C141.478 261.192 144.472 259.925 144.73 256.559C144.73 256.559 144.817 259.494 143.306 260.445C141.795 261.395 141.795 261.395 141.795 261.395C141.795 261.395 141.535 264.072 139.938 264.891C138.341 265.71 136.7 265.842 136.7 265.842C136.7 265.842 136.57 268.259 135.146 268.864C133.722 269.469 132.197 269.119 130.715 268.386Z" fill="#CC5065"/>
<path d="M155.867 259.465C155.59 258.833 155.752 253.94 154.371 251.523C152.989 249.105 149.076 242.313 147.004 240.357C144.932 238.401 142.284 239.897 141.478 242.774C140.673 245.652 141.362 251.982 144.125 256.817C146.888 261.652 144.701 264.645 143.665 272.472C142.629 280.299 142.398 288.357 145.968 293.652C149.536 298.947 156.443 300.559 156.443 300.559C156.443 300.559 163.464 297.336 164.845 295.84C166.227 294.344 167.263 280.3 166.572 275.235C165.881 270.169 159.435 267.637 155.867 259.465Z" fill="#F09EA4"/>
<path d="M242.661 388.851C242.661 388.851 194.314 400.592 183.033 403.585C171.751 406.579 161.622 424.306 163.924 434.666C166.227 445.026 187.867 442.494 248.417 429.371C248.417 429.371 254.403 405.427 242.661 388.851Z" fill="#F09EA4"/>
<path d="M144.299 298.128C144.299 298.128 148.04 414.464 165.134 437.256C165.134 437.256 184.531 409.801 186.257 403.931C187.984 398.06 178.66 357.31 174.171 339.698C169.681 322.086 164.846 295.84 164.846 295.84C164.846 295.84 149.939 299.049 144.299 298.128Z" fill="#F09EA4"/>
<path d="M376.54 360.073C376.54 360.073 333.891 396.075 332.682 395.298C327.752 392.129 324.998 361.195 324.998 361.195C324.998 361.195 297.86 367.814 290.32 373.771C280.089 381.854 285.486 413.484 278.119 428.679C270.752 443.874 272.594 464.594 276.278 482.092C279.962 499.589 279.962 514.323 273.515 537.806C267.068 561.289 262.924 586.614 262.924 586.614L387.245 585.923C387.245 585.923 379.648 551.044 379.648 534.468C379.648 517.892 403.476 459.53 403.476 459.53C403.476 459.53 383.792 407.384 408.311 381.484C408.311 381.484 399.677 377.685 389.663 369.743C379.359 361.571 376.54 360.073 376.54 360.073Z" fill="#2A005F"/>
<path d="M388.168 366.98C388.168 366.98 425.004 381.715 431.45 392.766C437.896 403.816 454.472 458.034 454.932 462.638C455.392 467.242 413.032 484.049 410.729 484.049C408.427 484.049 397.837 448.479 393.693 435.587C389.549 422.695 382.181 372.965 388.168 366.98Z" fill="#2A005F"/>
<path d="M299.53 369.052C299.53 369.052 244.621 382.52 240.477 384.937C236.333 387.355 242.94 435.84 244.967 436.393C248.766 437.429 295.041 428.104 299.185 426.723C303.329 425.342 326.121 390.808 299.53 369.052Z" fill="#2A005F"/>
<path d="M276.909 431.471C276.909 431.471 280.421 422.463 284.565 415.671C288.709 408.879 292.393 399.671 292.393 399.671C292.393 399.671 284.681 411.643 281.457 416.016C278.234 420.391 272.593 432.362 272.593 432.362L276.909 431.471Z" fill="#1A0042"/>
<path d="M409.807 483.013L399.677 446.062L391.389 491.07L402.785 468.854L409.807 483.013Z" fill="#1A0042"/>
<path d="M298.492 483.013C298.492 483.013 317.831 479.56 336.479 483.358C355.128 487.157 355.473 489.229 355.473 489.229C355.473 489.229 339.242 495.445 323.702 496.136C308.162 496.826 298.492 483.013 298.492 483.013Z" fill="#1A0042"/>
<path d="M332.682 395.298L325.948 358.087L307.472 370.433L332.682 395.298Z" fill="#85C1E9"/>
<path d="M332.682 395.298L371.877 356.274L394.324 370.951L332.682 395.298Z" fill="#85C1E9"/>
<path d="M332.897 398.941C335.096 398.941 336.879 397.288 336.879 395.249C336.879 393.21 335.096 391.557 332.897 391.557C330.697 391.557 328.914 393.21 328.914 395.249C328.914 397.288 330.697 398.941 332.897 398.941Z" fill="#85C1E9"/>
<path d="M328.553 416.536C330.753 416.536 332.536 414.882 332.536 412.843C332.536 410.804 330.753 409.151 328.553 409.151C326.354 409.151 324.571 410.804 324.571 412.843C324.571 414.882 326.354 416.536 328.553 416.536Z" fill="#85C1E9"/>
<path d="M440.987 536.412C440.987 536.412 421.629 537.538 386.346 541.836C351.062 546.135 331.182 548.738 331.145 550.721C331.108 552.703 327.883 566.031 333.794 568.125C339.705 570.219 439.282 574.559 458.2 570.451C477.117 566.343 481.06 541.128 440.987 536.412Z" fill="#F09EA4"/>
<path d="M355.36 546.324L347.763 544.138C347.763 544.138 331.294 539.355 321.632 539.648C311.969 539.941 283.99 546.9 283.99 546.9L303.674 568.656L366.18 570.383L355.36 546.324Z" fill="#F09EA4"/>
<path d="M449.082 467.613C438.799 473.533 418.024 481.858 412.196 483.68C419.979 504.423 431.299 533.448 437.664 544.483C448.024 562.441 447.103 568.657 455.621 568.887C464.14 569.118 471.738 559.333 471.967 553.923C472.064 551.658 457.239 498.376 449.082 467.613Z" fill="#F09EA4"/>
<path d="M370.986 570.93L316.251 568.138L289.182 581.607L379.59 581.354L370.986 570.93Z" fill="#85C1E9"/>
<path d="M166.423 575.747H311.587C319.127 575.747 327.705 579.612 325.716 571.879L297.648 463.381C296.289 458.099 291.775 454.437 286.624 454.437H144.203C139.15 454.437 133.423 460.652 132.123 464.365L158.736 569.214C159.548 573.034 162.74 575.747 166.423 575.747Z" fill="#85C1E9"/>
<path d="M160.978 581.445H311.305C316.344 581.445 320.002 576.349 318.671 571.182L291.633 466.112C290.724 462.583 287.707 460.135 284.266 460.135H138.649C133.75 460.135 130.119 464.967 131.198 470.045L153.527 575.114C154.315 578.816 157.409 581.445 160.978 581.445Z" fill="#372D2D"/>
<path d="M222.075 538.123C228.572 536.87 232.641 529.638 231.162 521.971C229.683 514.303 223.216 509.103 216.719 510.356C210.221 511.61 206.153 518.842 207.632 526.509C209.111 534.177 215.577 539.377 222.075 538.123Z" fill="#85C1E9"/>
</svg>
