<svg width="31" height="31" viewBox="0 0 31 31" fill="none" xmlns="http://www.w3.org/2000/svg">
<path d="M17.5697 12.4223V23.2614C17.5697 23.9368 16.6371 24.4904 15.4993 24.4904C14.3615 24.4904 13.4288 23.9478 13.4288 23.2614V12.4223C8.57918 11.8466 4.92329 9.31121 4.92329 6.26652C4.92329 2.81218 9.66103 0 15.4993 0C21.3375 0 26.0566 2.81218 26.0566 6.26652C26.0752 9.31121 22.4007 11.8466 17.5697 12.4223Z" fill="#0C335E"/>
<path d="M7.14346 19.7188C8.188 19.4642 9.40041 19.752 9.84807 20.372C10.2957 20.992 9.79211 21.7117 8.74757 21.9774C5.85643 22.6971 4.12175 23.7821 4.12175 24.8892C4.12175 26.6164 8.80353 28.5539 15.4998 28.5539C22.2147 28.5539 26.8778 26.6275 26.8778 24.8892C26.8778 23.7932 25.1058 22.6749 22.2706 21.9774C21.2261 21.7117 20.7225 21.0031 21.1701 20.372C21.6178 19.752 22.8116 19.4531 23.8747 19.7188C28.3513 20.826 31 22.7635 31 24.8892C31 28.3214 24.1918 31.0008 15.4998 31.0008C6.80771 31.0008 -0.00044632 28.3214 -0.00044632 24.8892C-0.00044632 22.7635 2.66686 20.837 7.14346 19.7188Z" fill="#0C335E"/>
</svg>
