<svg width="25" height="28" viewBox="0 0 25 28" fill="none" xmlns="http://www.w3.org/2000/svg">
<path d="M18.9047 11.2877H10.1406V13.0387H18.9047V11.2877Z" fill="white"/>
<path d="M12.7672 14.8444H10.1406V16.5954H12.7672V14.8444Z" fill="white"/>
<path d="M16.9328 14.8444H14.3057V16.5954H16.9328V14.8444Z" fill="white"/>
<path d="M0.87553 28H16.2442C17.8675 28 19.1886 26.6795 19.1886 25.0562V23.627H21.1091C22.7319 23.627 24.0524 22.3065 24.0524 20.6826V7.05575C24.0524 6.80751 23.9468 6.58605 23.781 6.4264L23.7835 6.42382L17.3391 0.243603C17.2665 0.174076 17.1836 0.123605 17.0955 0.0834333C17.0703 0.0721029 17.044 0.0664374 17.0183 0.0571671C16.9431 0.0309011 16.8674 0.0154505 16.788 0.0108153C16.769 0.0097853 16.753 0 16.7335 0H5.73936C5.25576 0 4.86435 0.391929 4.86435 0.875531V4.37354H0.87553C0.392443 4.37354 0 4.76546 0 5.24907V27.1245C0 27.6081 0.392443 28 0.87553 28ZM17.608 2.92839L20.9988 6.18022H18.8007C18.1431 6.18022 17.608 5.64512 17.608 4.98744V2.92839ZM6.61541 1.75106H15.8569V4.98744C15.8569 6.61077 17.1774 7.93128 18.8013 7.93128H22.3013V20.6826C22.3013 21.3403 21.7662 21.8754 21.1091 21.8754H6.61541V1.75106ZM1.75106 6.1246H4.86435V22.7509C4.86435 23.2345 5.25576 23.627 5.73936 23.627H17.437V25.0562C17.437 25.7133 16.9019 26.2489 16.2442 26.2489H1.75106V6.1246Z" fill="white"/>
</svg>
